STARTFONT 2.1
COMMENT
COMMENT Converted from OpenType font "UbuntuMono-Regular.ttf" by "otf2bdf 3.0".
COMMENT
FONT -FreeType-Ubuntu Mono-Medium-R-Normal--55-400-100-100-P-233-ISO10646-1
SIZE 40 100 100
FONTBOUNDINGBOX 55 55 -18 -9
STARTPROPERTIES 19
FOUNDRY "FreeType"
FAMILY_NAME "Ubuntu Mono"
WEIGHT_NAME "Medium"
SLANT "R"
SETWIDTH_NAME "Normal"
ADD_STYLE_NAME ""
PIXEL_SIZE 55
POINT_SIZE 400
RESOLUTION_X 100
RESOLUTION_Y 100
SPACING "P"
AVERAGE_WIDTH 233
CHARSET_REGISTRY "ISO10646"
CHARSET_ENCODING "1"
FONT_ASCENT 46
FONT_DESCENT 9
COPYRIGHT "Copyright 2011 Canonical Ltd.  Licensed under the Ubuntu Font Licence 1.0"
_OTF_FONTFILE "UbuntuMono-Regular.ttf"
_OTF_PSNAME "UbuntuMono-Regular"
ENDPROPERTIES
CHARS 1224
STARTCHAR 0000
ENCODING 0
SWIDTH 486 0
DWIDTH 27 0
BBX 0 0 0 0
BITMAP
ENDCHAR
STARTCHAR 0008
ENCODING 8
SWIDTH 486 0
DWIDTH 27 0
BBX 0 0 0 0
BITMAP
ENDCHAR
STARTCHAR 0009
ENCODING 9
SWIDTH 486 0
DWIDTH 27 0
BBX 0 0 0 0
BITMAP
ENDCHAR
STARTCHAR 000D
ENCODING 13
SWIDTH 486 0
DWIDTH 27 0
BBX 0 0 0 0
BITMAP
ENDCHAR
STARTCHAR 001D
ENCODING 29
SWIDTH 486 0
DWIDTH 27 0
BBX 0 0 0 0
BITMAP
ENDCHAR
STARTCHAR 0020
ENCODING 32
SWIDTH 486 0
DWIDTH 27 0
BBX 0 0 0 0
BITMAP
ENDCHAR
STARTCHAR 0021
ENCODING 33
SWIDTH 486 0
DWIDTH 27 0
BBX 7 35 10 -1
BITMAP
7C
7C
7C
7C
7C
7C
7C
7C
7C
7C
7C
7C
7C
7C
7C
3C
3C
3C
3C
3C
3C
38
00
00
00
00
00
38
7E
FE
FE
FE
FE
7E
18
ENDCHAR
STARTCHAR 0022
ENCODING 34
SWIDTH 486 0
DWIDTH 27 0
BBX 14 14 7 24
BITMAP
F07C
F07C
F07C
F07C
F07C
F07C
F078
F038
F038
7038
7038
7038
7038
7038
ENDCHAR
STARTCHAR 0023
ENCODING 35
SWIDTH 486 0
DWIDTH 27 0
BBX 25 34 1 0
BITMAP
00781E00
00781E00
00F81E00
00F01E00
00F03E00
00F03C00
00F03C00
01F03C00
01E03C00
FFFFFF80
FFFFFF80
FFFFFF80
03E07800
03C07800
03C0F800
03C0F000
03C0F000
07C0F000
07C0F000
0781F000
0781E000
FFFFFF80
FFFFFF80
FFFFFF80
FFFFFF80
0F03C000
0F03C000
0F03C000
1F03C000
1E03C000
1E07C000
1E078000
1E078000
3E078000
ENDCHAR
STARTCHAR 0024
ENCODING 36
SWIDTH 486 0
DWIDTH 27 0
BBX 22 44 3 -5
BITMAP
007800
007800
007800
007800
007800
007800
00FF80
07FFF0
1FFFF0
3FFFF0
3F00E0
7E0000
7C0000
7C0000
7C0000
7C0000
7C0000
7E0000
3F8000
3FE000
1FFC00
07FF00
01FFC0
007FE0
000FF0
0003F8
0001F8
0000FC
00007C
00007C
00007C
00007C
4000F8
7001F8
FFFFF0
FFFFE0
7FFFC0
0FFE00
007800
007800
007800
007800
007800
007800
ENDCHAR
STARTCHAR 0025
ENCODING 37
SWIDTH 486 0
DWIDTH 27 0
BBX 26 36 1 -1
BITMAP
1F800000
3FC00780
7FE00F00
79E00F00
F0F01E00
F0F03C00
F0703C00
E0707800
E0707800
E070F000
F071E000
F0F1E000
F0F3C000
79E38000
7FE78000
3FCF0000
1F8F0000
001E0000
003C0000
003CFE00
0079FF00
0079EF80
00F3C780
01E3C380
01E383C0
03C383C0
03C383C0
078383C0
0F0383C0
0F0383C0
1E03C380
1C03C380
3C01E780
7801FF00
7800FE00
00003800
ENDCHAR
STARTCHAR 0026
ENCODING 38
SWIDTH 486 0
DWIDTH 27 0
BBX 24 35 2 0
BITMAP
01FC00
07FF00
0FFF80
1FDF80
1F07C0
1E03C0
3E03C0
3E03C0
3E03C0
3E03C0
3E0780
1E0780
1F0F00
0F1F00
0FFE00
07FC00
07F020
0FF03C
1FF03C
3EF83C
3C7C3C
7C3E3C
783F38
F81FF8
F80FF8
F007F0
F003F0
F001F0
F801F8
F803F8
7C07FC
7F3FFC
3FFF3E
1FFE1F
0FF81F
ENDCHAR
STARTCHAR 0027
ENCODING 39
SWIDTH 486 0
DWIDTH 27 0
BBX 5 15 11 23
BITMAP
F8
F8
F8
F8
F8
78
78
78
78
78
78
78
78
78
70
ENDCHAR
STARTCHAR 0028
ENCODING 40
SWIDTH 486 0
DWIDTH 27 0
BBX 15 48 6 -9
BITMAP
0008
001C
003E
007E
00FC
01F8
03F0
07E0
07C0
0F80
0F80
1F00
1F00
3E00
3E00
3C00
7C00
7C00
7800
7800
F800
F800
F800
F800
F800
F800
F800
F800
7800
7800
7800
7C00
7C00
3C00
3E00
1E00
1F00
0F80
0F80
07C0
07E0
03F0
01F8
00FC
007E
003E
001C
000C
ENDCHAR
STARTCHAR 0029
ENCODING 41
SWIDTH 486 0
DWIDTH 27 0
BBX 15 48 6 -9
BITMAP
2000
3800
7C00
FE00
3F00
1F80
0F80
0FC0
07E0
03E0
01F0
01F8
00F8
0078
007C
007C
003C
003E
003E
001E
001E
001E
001E
001E
001E
001E
001E
001E
001E
001E
003E
003E
003C
007C
007C
00F8
00F8
01F0
01F0
03E0
07C0
0FC0
1F80
3F00
7E00
FC00
7800
3000
ENDCHAR
STARTCHAR 002A
ENCODING 42
SWIDTH 486 0
DWIDTH 27 0
BBX 21 20 3 14
BITMAP
007800
007800
007800
007800
007800
707830
7C78F8
7F33F8
FFFFF8
7FFFF8
03FF00
00FC00
01FE00
03DF00
07CF80
0F8FC0
1F87C0
1F07E0
0F0380
020100
ENDCHAR
STARTCHAR 002B
ENCODING 43
SWIDTH 486 0
DWIDTH 27 0
BBX 22 25 3 2
BITMAP
007800
007800
007800
007800
007800
007800
007800
007800
007800
007800
FFFFFC
FFFFFC
FFFFFC
FFFFFC
007800
007800
007800
007800
007800
007800
007800
007800
007800
007800
007800
ENDCHAR
STARTCHAR 002C
ENCODING 44
SWIDTH 486 0
DWIDTH 27 0
BBX 12 16 8 -8
BITMAP
0300
0FC0
0FE0
1FE0
1FE0
1FF0
0FE0
0FE0
03E0
03E0
07C0
0F80
FF00
7E00
7C00
7000
ENDCHAR
STARTCHAR 002D
ENCODING 45
SWIDTH 486 0
DWIDTH 27 0
BBX 12 4 8 12
BITMAP
FFF0
FFF0
FFF0
FFF0
ENDCHAR
STARTCHAR 002E
ENCODING 46
SWIDTH 486 0
DWIDTH 27 0
BBX 8 9 10 -1
BITMAP
3C
7E
FF
FF
FF
FF
FF
7E
18
ENDCHAR
STARTCHAR 002F
ENCODING 47
SWIDTH 486 0
DWIDTH 27 0
BBX 20 48 4 -9
BITMAP
0001F0
0001F0
0001E0
0003E0
0003E0
0003C0
0007C0
0007C0
000780
000F80
000F80
000F00
001F00
001F00
001E00
003E00
003E00
003C00
007C00
007C00
007800
00F800
00F800
00F000
01F000
01F000
01F000
03E000
03E000
03E000
03C000
07C000
07C000
078000
0F8000
0F8000
0F0000
1F0000
1F0000
1E0000
3E0000
3E0000
3C0000
7C0000
7C0000
780000
F80000
F80000
ENDCHAR
STARTCHAR 0030
ENCODING 48
SWIDTH 486 0
DWIDTH 27 0
BBX 22 36 3 -1
BITMAP
01FE00
07FF80
0FFFC0
1FFFE0
3F07E0
3E01F0
7C01F0
7C00F8
7800F8
F80078
F8007C
F8007C
F8007C
F0007C
F0787C
F0FC7C
F0FC3C
F0FC3C
F0FC3C
F0783C
F0307C
F0007C
F0007C
F8007C
F8007C
F80078
7800F8
7C00F8
7C00F8
3E01F0
3F03F0
1FCFE0
0FFFC0
07FF80
03FF00
007800
ENDCHAR
STARTCHAR 0031
ENCODING 49
SWIDTH 486 0
DWIDTH 27 0
BBX 20 34 4 0
BITMAP
003C00
007C00
00FC00
03FC00
07FC00
1FFC00
7FFC00
FE7C00
7C7C00
607C00
007C00
007C00
007C00
007C00
007C00
007C00
007C00
007C00
007C00
007C00
007C00
007C00
007C00
007C00
007C00
007C00
007C00
007C00
007C00
007C00
3FFFF0
3FFFF0
3FFFF0
3FFFF0
ENDCHAR
STARTCHAR 0032
ENCODING 50
SWIDTH 486 0
DWIDTH 27 0
BBX 21 35 4 0
BITMAP
07FC00
3FFF00
7FFF80
FFFFC0
FC0FC0
F007E0
4003E0
0003E0
0001E0
0001E0
0001E0
0003E0
0003E0
0007C0
0007C0
000F80
001F80
003F00
007E00
00FC00
01F800
03F000
07E000
0FC000
1F8000
1F0000
3E0000
3E0000
7C0000
780000
F80000
FFFFF8
FFFFF8
FFFFF8
FFFFF8
ENDCHAR
STARTCHAR 0033
ENCODING 51
SWIDTH 486 0
DWIDTH 27 0
BBX 22 36 3 -1
BITMAP
07FC00
1FFF00
7FFFC0
7FFFE0
3C07E0
3003F0
0001F0
0001F0
0001F0
0001F0
0001F0
0001F0
0003E0
0007E0
001FC0
03FF80
03FE00
03FFC0
03FFE0
0007F0
0001F0
0000F8
0000F8
000078
00007C
00007C
00007C
000078
0000F8
0001F8
4003F0
7C3FF0
7FFFE0
FFFFC0
3FFF00
03F000
ENDCHAR
STARTCHAR 0034
ENCODING 52
SWIDTH 486 0
DWIDTH 27 0
BBX 24 34 2 0
BITMAP
0001F0
0003F0
0007F0
000FF0
001FF0
003FF0
007DF0
0079F0
00F1F0
01F1F0
01E1F0
03C1F0
07C1F0
0781F0
0F01F0
1F01F0
1E01F0
3C01F0
3C01F0
7801F0
7801F0
FFFFFF
FFFFFF
FFFFFF
FFFFFF
0001F0
0001F0
0001F0
0001F0
0001F0
0001F0
0001F0
0001F0
0001F0
ENDCHAR
STARTCHAR 0035
ENCODING 53
SWIDTH 486 0
DWIDTH 27 0
BBX 21 35 4 -1
BITMAP
1FFFF0
1FFFF0
1FFFF0
1FFFF0
1E0000
1E0000
1E0000
1E0000
1E0000
3E0000
3E0000
3C0000
3C0000
3FE000
3FFE00
3FFF00
3FFFC0
003FC0
0007E0
0003F0
0001F0
0001F0
0000F0
0000F8
0000F8
0000F8
0000F0
0001F0
0003F0
C007E0
F83FE0
FFFFC0
FFFF80
7FFE00
07E000
ENDCHAR
STARTCHAR 0036
ENCODING 54
SWIDTH 486 0
DWIDTH 27 0
BBX 22 36 3 -1
BITMAP
000010
0007F0
003FF0
00FFF0
01FF80
03F800
07E000
0F8000
1F0000
1F0000
3E0000
3C0000
7C0000
7C0000
79FF00
FFFFC0
FFFFE0
FFFFF0
FC01F8
F800F8
F800F8
F8007C
F8007C
F8007C
F8007C
F8007C
F8007C
7C007C
7C00F8
7E00F8
3E01F0
1F83F0
1FFFE0
0FFFC0
03FF80
007C00
ENDCHAR
STARTCHAR 0037
ENCODING 55
SWIDTH 486 0
DWIDTH 27 0
BBX 22 34 3 0
BITMAP
FFFFFC
FFFFFC
FFFFFC
FFFFFC
0000F8
0000F8
0001F0
0003E0
0003E0
0007C0
0007C0
000F80
000F80
001F00
001F00
003E00
003E00
003C00
007C00
007C00
007800
00F800
00F800
00F000
01F000
01F000
01E000
01E000
03E000
03E000
03E000
03E000
03C000
03C000
ENDCHAR
STARTCHAR 0038
ENCODING 56
SWIDTH 486 0
DWIDTH 27 0
BBX 22 36 3 -1
BITMAP
01FE00
07FF80
0FFFE0
1FFFE0
3F03F0
7C01F8
7C00F8
7800F8
780078
780078
780078
7C00F8
7C00F0
7E01F0
3F03E0
1FC7C0
0FFF80
07FF80
0FFFC0
1F1FE0
3E03F0
7C01F8
7800F8
F8007C
F0007C
F0007C
F0007C
F0007C
F8007C
F800F8
7C00F8
7F03F0
3FFFF0
1FFFE0
07FF80
00FC00
ENDCHAR
STARTCHAR 0039
ENCODING 57
SWIDTH 486 0
DWIDTH 27 0
BBX 22 35 3 0
BITMAP
03FE00
07FF80
1FFFC0
3FFFE0
3F03E0
7C01F0
7C00F0
F800F8
F800F8
F80078
F8007C
F8007C
F8007C
F8007C
F8007C
7C007C
7E007C
3F83FC
3FFFFC
1FFFF8
07FF78
0020F8
0000F8
0000F8
0001F0
0001F0
0003E0
0007E0
000FC0
003F80
00FF00
3FFE00
3FF800
3FE000
3F0000
ENDCHAR
STARTCHAR 003A
ENCODING 58
SWIDTH 486 0
DWIDTH 27 0
BBX 8 27 10 -1
BITMAP
38
7E
FF
FF
FF
FF
FF
7E
38
00
00
00
00
00
00
00
00
00
3C
7E
FF
FF
FF
FF
FF
7E
18
ENDCHAR
STARTCHAR 003B
ENCODING 59
SWIDTH 486 0
DWIDTH 27 0
BBX 11 34 7 -8
BITMAP
0700
0FC0
1FE0
1FE0
1FE0
1FE0
1FE0
0FC0
0700
0000
0000
0000
0000
0000
0000
0000
0000
0000
0300
0FC0
1FE0
1FE0
1FE0
1FE0
1FE0
0FE0
03E0
03C0
07C0
1F80
FF00
FE00
FC00
6000
ENDCHAR
STARTCHAR 003C
ENCODING 60
SWIDTH 486 0
DWIDTH 27 0
BBX 22 22 3 3
BITMAP
000018
00007C
0001FC
000FFC
003FF0
00FFC0
07FE00
1FF800
7FE000
FF0000
FC0000
FC0000
FF8000
7FE000
0FFC00
03FF00
00FFE0
001FF8
0007FC
0001FC
00003C
000008
ENDCHAR
STARTCHAR 003D
ENCODING 61
SWIDTH 486 0
DWIDTH 27 0
BBX 22 15 3 7
BITMAP
FFFFFC
FFFFFC
FFFFFC
FFFFFC
000000
000000
000000
000000
000000
000000
000000
FFFFFC
FFFFFC
FFFFFC
FFFFFC
ENDCHAR
STARTCHAR 003E
ENCODING 62
SWIDTH 486 0
DWIDTH 27 0
BBX 22 22 3 3
BITMAP
600000
F80000
FE0000
FFC000
3FF000
0FFC00
01FF80
007FE0
000FFC
0003FC
00007C
0000FC
0007FC
001FF8
00FFE0
03FF00
0FFC00
7FE000
FF8000
FE0000
700000
400000
ENDCHAR
STARTCHAR 003F
ENCODING 63
SWIDTH 486 0
DWIDTH 27 0
BBX 18 36 5 -1
BITMAP
1FF800
7FFE00
FFFF00
7FFF80
601F80
000F80
0007C0
0007C0
0007C0
0007C0
000780
000F80
001F00
003F00
007E00
00FC00
00F800
01F000
03E000
03C000
07C000
078000
078000
000000
000000
000000
000000
000000
038000
07E000
0FE000
0FE000
0FE000
0FE000
07C000
018000
ENDCHAR
STARTCHAR 0040
ENCODING 64
SWIDTH 486 0
DWIDTH 27 0
BBX 24 43 2 -8
BITMAP
003F80
00FFE0
03FFF8
07FFF8
0FC07C
0F803E
1F001E
1E001E
3E001F
3C000F
3C000F
7C01FF
7807FF
781FFF
783FFF
783E0F
F87C0F
F87C0F
F8780F
F8F80F
F8F80F
F8F80F
F8F80F
F8F80F
F8F80F
F8780F
787C0F
787C0F
7C3E0F
7C3FFF
7C1FFF
3E07FF
3E00F0
1F0000
1F0000
0F8000
0FC000
07E000
03FE18
01FFF8
007FF8
003FF8
000180
ENDCHAR
STARTCHAR 0041
ENCODING 65
SWIDTH 486 0
DWIDTH 27 0
BBX 26 34 1 0
BITMAP
003F0000
007F8000
007F8000
007F8000
00FFC000
00F3C000
00F3C000
01E3E000
01E1E000
01E1E000
03C1F000
03C0F000
03C0F000
0780F800
0780F800
07807800
0F807800
0F007C00
0F003C00
1F003C00
1E003E00
1FFFFE00
1FFFFE00
3FFFFE00
3FFFFF00
3C000F00
7C000F00
7C000F80
78000F80
78000F80
F8000780
F80007C0
F80007C0
F00007C0
ENDCHAR
STARTCHAR 0042
ENCODING 66
SWIDTH 486 0
DWIDTH 27 0
BBX 22 35 3 0
BITMAP
0FE000
FFFF00
FFFF80
FFFFC0
F80FE0
F803F0
F801F0
F801F0
F800F0
F800F0
F800F0
F800F0
F801F0
F803E0
F80FC0
FFFF80
FFFF00
FFFFC0
FFFFE0
F807F0
F801F8
F800F8
F8007C
F8007C
F8007C
F8007C
F8007C
F8007C
F8007C
F800F8
F803F8
FFFFF0
FFFFE0
FFFF80
FFFE00
ENDCHAR
STARTCHAR 0043
ENCODING 67
SWIDTH 486 0
DWIDTH 27 0
BBX 23 36 3 -1
BITMAP
003FC0
01FFF8
03FFFC
07FFFC
0FE03C
1F8008
3F0000
3E0000
7C0000
7C0000
780000
F80000
F80000
F80000
F00000
F00000
F00000
F00000
F00000
F00000
F00000
F00000
F80000
F80000
F80000
780000
7C0000
7E0000
3E0000
3F0000
1FC00C
0FF8FC
07FFFC
03FFFE
00FFF8
001F80
ENDCHAR
STARTCHAR 0044
ENCODING 68
SWIDTH 486 0
DWIDTH 27 0
BBX 23 35 3 0
BITMAP
1FC000
FFFC00
FFFF00
FFFF80
F83FC0
F807E0
F803F0
F801F0
F800F8
F800F8
F8007C
F8007C
F8007C
F8003C
F8003C
F8003C
F8003E
F8003E
F8003E
F8003E
F8003C
F8003C
F8007C
F8007C
F8007C
F80078
F800F8
F800F8
F801F0
F803F0
F80FE0
FFFFC0
FFFF80
FFFE00
FFF800
ENDCHAR
STARTCHAR 0045
ENCODING 69
SWIDTH 486 0
DWIDTH 27 0
BBX 21 34 5 0
BITMAP
FFFFE0
FFFFE0
FFFFE0
FFFFE0
F80000
F80000
F80000
F80000
F80000
F80000
F80000
F80000
F80000
F80000
FFFFC0
FFFFC0
FFFFC0
FFFFC0
F80000
F80000
F80000
F80000
F80000
F80000
F80000
F80000
F80000
F80000
F80000
F80000
FFFFF8
FFFFF8
FFFFF8
FFFFF8
ENDCHAR
STARTCHAR 0046
ENCODING 70
SWIDTH 486 0
DWIDTH 27 0
BBX 20 34 5 0
BITMAP
FFFFF0
FFFFF0
FFFFF0
FFFFF0
F80000
F80000
F80000
F80000
F80000
F80000
F80000
F80000
F80000
F80000
FFFFC0
FFFFC0
FFFFC0
FFFFC0
F80000
F80000
F80000
F80000
F80000
F80000
F80000
F80000
F80000
F80000
F80000
F80000
F80000
F80000
F80000
F80000
ENDCHAR
STARTCHAR 0047
ENCODING 71
SWIDTH 486 0
DWIDTH 27 0
BBX 22 36 3 -1
BITMAP
007FE0
01FFF8
03FFFC
07FFFC
0FE038
1F8008
3F0000
3E0000
7C0000
7C0000
780000
F80000
F80000
F80000
F00000
F00000
F00000
F00000
F0003C
F0003C
F0003C
F0003C
F8003C
F8003C
F8003C
7C003C
7C003C
7C003C
3E003C
3F003C
1F803C
0FF0FC
07FFFC
03FFFC
00FFF8
001F80
ENDCHAR
STARTCHAR 0048
ENCODING 72
SWIDTH 486 0
DWIDTH 27 0
BBX 23 34 2 0
BITMAP
F8001E
F8001E
F8001E
F8001E
F8001E
F8001E
F8001E
F8001E
F8001E
F8001E
F8001E
F8001E
F8001E
F8001E
FFFFFE
FFFFFE
FFFFFE
FFFFFE
F8001E
F8001E
F8001E
F8001E
F8001E
F8001E
F8001E
F8001E
F8001E
F8001E
F8001E
F8001E
F8001E
F8001E
F8001E
F8001E
ENDCHAR
STARTCHAR 0049
ENCODING 73
SWIDTH 486 0
DWIDTH 27 0
BBX 18 34 5 0
BITMAP
FFFFC0
FFFFC0
FFFFC0
FFFFC0
01E000
01E000
01E000
01E000
01E000
01E000
01E000
01E000
01E000
01E000
01E000
01E000
01E000
01E000
01E000
01E000
01E000
01E000
01E000
01E000
01E000
01E000
01E000
01E000
01E000
01E000
FFFFC0
FFFFC0
FFFFC0
FFFFC0
ENDCHAR
STARTCHAR 004A
ENCODING 74
SWIDTH 486 0
DWIDTH 27 0
BBX 20 35 3 -1
BITMAP
0FFFF0
0FFFF0
0FFFF0
0FFFF0
0000F0
0000F0
0000F0
0000F0
0000F0
0000F0
0000F0
0000F0
0000F0
0000F0
0000F0
0000F0
0000F0
0000F0
0000F0
0000F0
0000F0
0000F0
0000F0
0000F0
0000F0
0000F0
0001F0
0001F0
0003F0
7007E0
7C1FE0
FFFFC0
7FFF80
1FFE00
03F000
ENDCHAR
STARTCHAR 004B
ENCODING 75
SWIDTH 486 0
DWIDTH 27 0
BBX 23 34 4 0
BITMAP
F000F8
F001F8
F001F0
F003E0
F007E0
F00FC0
F00F80
F01F00
F03E00
F07E00
F0FC00
F1F800
F3F000
F7E000
F7C000
FF8000
FFC000
FFE000
F7F000
F1F800
F0FC00
F07E00
F03F00
F01F80
F00FC0
F007C0
F007E0
F003F0
F001F0
F001F8
F000FC
F0007C
F0007E
F0003E
ENDCHAR
STARTCHAR 004C
ENCODING 76
SWIDTH 486 0
DWIDTH 27 0
BBX 21 34 5 0
BITMAP
F80000
F80000
F80000
F80000
F80000
F80000
F80000
F80000
F80000
F80000
F80000
F80000
F80000
F80000
F80000
F80000
F80000
F80000
F80000
F80000
F80000
F80000
F80000
F80000
F80000
F80000
F80000
F80000
F80000
F80000
FFFFF8
FFFFF8
FFFFF8
FFFFF8
ENDCHAR
STARTCHAR 004D
ENCODING 77
SWIDTH 486 0
DWIDTH 27 0
BBX 24 34 2 0
BITMAP
3E007C
3E007C
3E00FC
3F00FC
3F00FC
3F01FC
3F81FC
7B81DC
7B83DE
7BC3DE
79C39E
79C39E
79E79E
78E71E
78E71E
78FF1E
78FE1E
787E1E
787E1E
F87C1E
F83C1E
F0001E
F0001E
F0001E
F0001F
F0001F
F0001F
F0001F
F0001F
F0001F
F0001F
F0000F
F0000F
F0000F
ENDCHAR
STARTCHAR 004E
ENCODING 78
SWIDTH 486 0
DWIDTH 27 0
BBX 22 34 3 0
BITMAP
F8003C
FC003C
FC003C
FE003C
FE003C
FF003C
FF003C
F7803C
F7C03C
F3C03C
F3E03C
F1E03C
F1F03C
F0F03C
F0F83C
F0783C
F0783C
F03C3C
F03C3C
F01E3C
F01E3C
F00F3C
F00F3C
F0073C
F007BC
F007BC
F003FC
F003FC
F001FC
F001FC
F000FC
F000FC
F000FC
F0007C
ENDCHAR
STARTCHAR 004F
ENCODING 79
SWIDTH 486 0
DWIDTH 27 0
BBX 24 36 2 -1
BITMAP
00FF00
03FFC0
07FFE0
0FFFF0
1F81F8
3E00FC
3E007C
7C003E
7C003E
78003E
F8001E
F8001F
F8001F
F0001F
F0001F
F0001F
F0000F
F0000F
F0000F
F0000F
F0001F
F0001F
F8001F
F8001F
F8001F
F8001E
78003E
7C003E
7C007C
3E007C
3F00F8
1FC3F8
0FFFF0
07FFE0
03FF80
003C00
ENDCHAR
STARTCHAR 0050
ENCODING 80
SWIDTH 486 0
DWIDTH 27 0
BBX 21 35 4 0
BITMAP
0FF000
FFFF00
FFFF80
FFFFE0
F81FE0
F803F0
F801F0
F800F8
F800F8
F800F8
F80078
F80078
F80078
F800F8
F800F8
F800F8
F801F0
F807F0
FFFFE0
FFFFC0
FFFF00
FFFC00
F80000
F80000
F80000
F80000
F80000
F80000
F80000
F80000
F80000
F80000
F80000
F80000
F80000
ENDCHAR
STARTCHAR 0051
ENCODING 81
SWIDTH 486 0
DWIDTH 27 0
BBX 24 44 2 -9
BITMAP
00FF00
03FFC0
07FFE0
0FFFF0
1F81F8
3E00FC
3E007C
7C003E
7C003E
78003E
F8001E
F8001F
F8001F
F8001F
F0001F
F0001F
F0000F
F0000F
F0000F
F0000F
F0001F
F0001F
F8001F
F8001F
F8001F
F8001E
78003E
7C003E
7C007C
3E007C
3F00F8
1FC3F8
0FFFF0
07FFE0
03FF80
007E00
003C00
003E00
003F00
001FC0
000FFE
0003FE
0000FC
00001C
ENDCHAR
STARTCHAR 0052
ENCODING 82
SWIDTH 486 0
DWIDTH 27 0
BBX 22 35 3 0
BITMAP
0FF000
FFFE00
FFFF80
FFFFC0
F81FE0
F803F0
F801F0
F800F8
F800F8
F800F8
F800F8
F800F8
F800F8
F800F8
F800F0
F801F0
F803E0
F83FE0
FFFFC0
FFFF00
FFFE00
F83E00
F81F00
F80F80
F80780
F807C0
F803C0
F803E0
F801E0
F801F0
F800F8
F800F8
F8007C
F8007C
F8003C
ENDCHAR
STARTCHAR 0053
ENCODING 83
SWIDTH 486 0
DWIDTH 27 0
BBX 22 36 3 -1
BITMAP
01FF80
07FFF0
0FFFF0
1FFFF0
3F00E0
3E0020
7C0000
7C0000
780000
780000
7C0000
7C0000
7E0000
3F0000
1FC000
1FF000
07FC00
03FF00
00FFC0
001FE0
0007F0
0003F8
0000F8
0000F8
00007C
00007C
00007C
00007C
00007C
0000F8
7001F8
7E07F0
FFFFF0
FFFFC0
1FFF80
01F800
ENDCHAR
STARTCHAR 0054
ENCODING 84
SWIDTH 486 0
DWIDTH 27 0
BBX 24 34 2 0
BITMAP
FFFFFF
FFFFFF
FFFFFF
FFFFFF
003C00
003C00
003C00
003C00
003C00
003C00
003C00
003C00
003C00
003C00
003C00
003C00
003C00
003C00
003C00
003C00
003C00
003C00
003C00
003C00
003C00
003C00
003C00
003C00
003C00
003C00
003C00
003C00
003C00
003C00
ENDCHAR
STARTCHAR 0055
ENCODING 85
SWIDTH 486 0
DWIDTH 27 0
BBX 22 35 3 -1
BITMAP
F0003C
F0003C
F0003C
F0003C
F0003C
F0003C
F0003C
F0003C
F0003C
F0003C
F0003C
F0003C
F0003C
F0003C
F0003C
F0003C
F0003C
F0003C
F0003C
F0003C
F0003C
F0003C
F0003C
F0007C
F0007C
F8007C
F8007C
F80078
7C00F8
7E01F8
3F87F0
3FFFE0
1FFFC0
07FF80
00FC00
ENDCHAR
STARTCHAR 0056
ENCODING 86
SWIDTH 486 0
DWIDTH 27 0
BBX 26 34 1 0
BITMAP
F80007C0
F80007C0
F8000780
78000F80
7C000F80
7C000F80
7C000F00
3C000F00
3E001F00
3E001F00
1E001E00
1E003E00
1F003E00
1F003C00
0F003C00
0F807C00
0F807C00
07807800
07807800
07C0F800
03C0F000
03C0F000
03E1F000
01E1E000
01E1E000
01E3E000
01F3C000
00F3C000
00F7C000
00FF8000
007F8000
007F8000
007F0000
003F0000
ENDCHAR
STARTCHAR 0057
ENCODING 87
SWIDTH 486 0
DWIDTH 27 0
BBX 24 34 2 0
BITMAP
F0000F
F0000F
F0001F
F0001F
F0001F
F0001F
F0001F
F0001F
F0001F
F0001F
F0001F
F0001E
F0001E
F83C1E
F87C1E
787E1E
787E1E
78FE1E
78EF1E
78E71E
79E71E
79C79E
79C39E
7BC39E
7B83DC
7B81DC
7F81DC
7F81FC
3F01FC
3F00FC
3F00FC
3E00FC
3E007C
3E007C
ENDCHAR
STARTCHAR 0058
ENCODING 88
SWIDTH 486 0
DWIDTH 27 0
BBX 24 34 2 0
BITMAP
F8003E
7C003E
3C007C
3E007C
1F00F8
1F00F8
0F81F0
0F81E0
07C3E0
07C3C0
03E7C0
03EF80
01FF80
00FF00
00FE00
007E00
00FE00
00FF00
01FF00
01FF80
03E7C0
03C7C0
07C3E0
0F83E0
0F81F0
1F00F0
1F00F8
3E00F8
3E007C
7C007C
7C003E
78003E
F8001F
F8001F
ENDCHAR
STARTCHAR 0059
ENCODING 89
SWIDTH 486 0
DWIDTH 27 0
BBX 26 34 1 0
BITMAP
F80007C0
FC000F80
7C000F80
7C000F00
3E001F00
3E001F00
1F003E00
1F003E00
0F807C00
0F807C00
0780F800
07C0F800
03E1F000
03E1F000
01F3E000
01F3C000
00FFC000
00FF8000
007F8000
003F0000
003F0000
001E0000
001E0000
001E0000
001E0000
001E0000
001E0000
001E0000
001E0000
001E0000
001E0000
001E0000
001E0000
001E0000
ENDCHAR
STARTCHAR 005A
ENCODING 90
SWIDTH 486 0
DWIDTH 27 0
BBX 22 34 3 0
BITMAP
7FFFFC
7FFFFC
7FFFFC
7FFFFC
0000F8
0001F0
0003E0
0003E0
0007C0
000FC0
000F80
001F00
001F00
003E00
007C00
007C00
00F800
01F000
01F000
03E000
03E000
07C000
078000
0F8000
1F0000
1F0000
3E0000
3E0000
7C0000
7C0000
FFFFFC
FFFFFC
FFFFFC
FFFFFC
ENDCHAR
STARTCHAR 005B
ENCODING 91
SWIDTH 486 0
DWIDTH 27 0
BBX 13 48 8 -9
BITMAP
FFF8
FFF8
FFF8
FFF8
F000
F000
F000
F000
F000
F000
F000
F000
F000
F000
F000
F000
F000
F000
F000
F000
F000
F000
F000
F000
F000
F000
F000
F000
F000
F000
F000
F000
F000
F000
F000
F000
F000
F000
F000
F000
F000
F000
F000
F000
F000
FFF8
FFF8
FFF8
ENDCHAR
STARTCHAR 005C
ENCODING 92
SWIDTH 486 0
DWIDTH 27 0
BBX 20 48 4 -9
BITMAP
F80000
F80000
780000
7C0000
7C0000
3C0000
3E0000
3E0000
1E0000
1E0000
1F0000
0F0000
0F0000
0F8000
0F8000
078000
07C000
07C000
03C000
03E000
03E000
01E000
01F000
01F000
00F000
00F800
00F800
007800
007C00
007C00
003C00
003E00
003E00
001E00
001F00
001F00
001F00
000F00
000F80
000F80
000780
0007C0
0007C0
0003C0
0003E0
0003E0
0001E0
0001F0
ENDCHAR
STARTCHAR 005D
ENCODING 93
SWIDTH 486 0
DWIDTH 27 0
BBX 13 48 7 -9
BITMAP
FFF8
FFF8
FFF8
FFF8
00F8
00F8
00F8
00F8
00F8
00F8
00F8
00F8
00F8
00F8
00F8
00F8
00F8
00F8
00F8
00F8
00F8
00F8
00F8
00F8
00F8
00F8
00F8
00F8
00F8
00F8
00F8
00F8
00F8
00F8
00F8
00F8
00F8
00F8
00F8
00F8
00F8
00F8
00F8
00F8
00F8
FFF8
FFF8
FFF8
ENDCHAR
STARTCHAR 005E
ENCODING 94
SWIDTH 486 0
DWIDTH 27 0
BBX 24 18 2 16
BITMAP
007C00
007E00
00FF00
00FF00
01FF80
03E780
03E7C0
07C3C0
07C3E0
0F81F0
0F01F0
1F00F8
3E0078
3E007C
7C003C
7C003E
F8001F
30001C
ENDCHAR
STARTCHAR 005F
ENCODING 95
SWIDTH 486 0
DWIDTH 27 0
BBX 27 4 0 -9
BITMAP
FFFFFFE0
FFFFFFE0
FFFFFFE0
FFFFFFE0
ENDCHAR
STARTCHAR 0060
ENCODING 96
SWIDTH 486 0
DWIDTH 27 0
BBX 9 9 9 30
BITMAP
3000
7800
F800
7C00
3E00
1F00
0F80
0780
0300
ENDCHAR
STARTCHAR 0061
ENCODING 97
SWIDTH 486 0
DWIDTH 27 0
BBX 21 27 3 -1
BITMAP
1FFF00
1FFFC0
1FFFE0
1FFFF0
0003F0
0001F8
0000F8
0000F8
0000F8
0000F8
003CF8
07FFF8
1FFFF8
3FFFF8
7F00F8
7C00F8
F800F8
F800F8
F800F8
F800F8
F800F8
7C00F8
7F81F8
3FFFF8
1FFFF8
07FFF8
003800
ENDCHAR
STARTCHAR 0062
ENCODING 98
SWIDTH 486 0
DWIDTH 27 0
BBX 22 39 4 0
BITMAP
F80000
F80000
F80000
F80000
F80000
F80000
F80000
F80000
F80000
F80000
F80000
F80000
FBFE00
FFFF80
FFFFC0
FFFFE0
FC07E0
F801F0
F801F0
F800F8
F800F8
F800F8
F80078
F8007C
F8007C
F8007C
F8007C
F80078
F800F8
F800F8
F800F8
F801F0
F803F0
F807E0
FF7FE0
FFFFC0
FFFF00
7FFE00
00C000
ENDCHAR
STARTCHAR 0063
ENCODING 99
SWIDTH 486 0
DWIDTH 27 0
BBX 22 27 3 -1
BITMAP
00FFF8
03FFF8
0FFFF8
1FFFF8
3FC008
3F0000
7E0000
7C0000
F80000
F80000
F80000
F80000
F00000
F00000
F00000
F80000
F80000
F80000
7C0000
7C0000
7E0000
3F8000
1FFFFC
0FFFFC
07FFFC
01FFF8
001E00
ENDCHAR
STARTCHAR 0064
ENCODING 100
SWIDTH 486 0
DWIDTH 27 0
BBX 22 39 2 0
BITMAP
00007C
00007C
00007C
00007C
00007C
00007C
00007C
00007C
00007C
00007C
00007C
00007C
01FF7C
07FFFC
0FFFFC
1FFFFC
3F81FC
3E007C
7C007C
7C007C
7C007C
F8007C
F8007C
F8007C
F8007C
F8007C
F8007C
F8007C
F8007C
7C007C
7C007C
7E007C
3E007C
3F807C
1FFFFC
0FFFFC
07FFFC
01FFF8
001C00
ENDCHAR
STARTCHAR 0065
ENCODING 101
SWIDTH 486 0
DWIDTH 27 0
BBX 23 27 2 -1
BITMAP
00FF80
03FFE0
07FFF0
1FFFF8
1F80FC
3E007C
3E003C
7C003E
78003E
78001E
F8001E
FFFFFE
FFFFFE
FFFFFE
F80000
F80000
780000
780000
7C0000
7E0000
3F0000
1F8008
1FFFF8
0FFFF8
03FFF8
01FFF8
000F00
ENDCHAR
STARTCHAR 0066
ENCODING 102
SWIDTH 486 0
DWIDTH 27 0
BBX 24 38 3 1
BITMAP
001FFC
007FFF
00FFFE
01FF7E
01F802
01F000
03E000
03E000
03E000
03E000
03E000
03E000
FFFFF8
FFFFF8
FFFFF8
FFFFF8
03E000
03E000
03E000
03E000
03E000
03E000
03E000
03E000
03E000
03E000
03E000
03E000
03E000
03E000
03E000
03E000
03E000
03E000
03E000
03E000
03E000
03E000
ENDCHAR
STARTCHAR 0067
ENCODING 103
SWIDTH 486 0
DWIDTH 27 0
BBX 22 35 2 -9
BITMAP
01FFF0
07FFFC
0FFFFC
1FFFFC
3F807C
3E007C
7E007C
7C007C
7C007C
F8007C
F8007C
F8007C
F8007C
F8007C
F8007C
F8007C
7C007C
7C007C
7C007C
3E007C
3F81FC
1FFFFC
0FFFFC
07FFFC
01FE7C
00007C
00007C
00007C
0000F8
0000F8
3003F0
3FFFF0
3FFFE0
3FFFC0
1FFE00
ENDCHAR
STARTCHAR 0068
ENCODING 104
SWIDTH 486 0
DWIDTH 27 0
BBX 20 38 4 1
BITMAP
F80000
F80000
F80000
F80000
F80000
F80000
F80000
F80000
F80000
F80000
F80000
F80000
FFFE00
FFFF00
FFFF80
FFFFC0
F807E0
F803E0
F801E0
F801F0
F801F0
F801F0
F801F0
F801F0
F801F0
F801F0
F801F0
F801F0
F801F0
F801F0
F801F0
F801F0
F801F0
F801F0
F801F0
F801F0
F801F0
F801F0
ENDCHAR
STARTCHAR 0069
ENCODING 105
SWIDTH 486 0
DWIDTH 27 0
BBX 22 38 3 -1
BITMAP
03E000
03F000
07F000
07F000
07F000
03F000
03E000
000000
000000
000000
000000
FFF000
FFF000
FFF000
FFF000
01F000
01F000
01F000
01F000
01F000
01F000
01F000
01F000
01F000
01F000
01F000
01F000
01F000
01F000
00F000
00F000
00F800
00F800
00FFFC
007FFC
003FFC
001FF8
0003C0
ENDCHAR
STARTCHAR 006A
ENCODING 106
SWIDTH 486 0
DWIDTH 27 0
BBX 17 46 4 -9
BITMAP
001E00
003F00
003F80
003F80
003F80
003F00
001E00
000000
000000
000000
000000
3FFF80
3FFF80
3FFF80
3FFF80
000780
000780
000780
000780
000780
000780
000780
000780
000780
000780
000780
000780
000780
000780
000780
000780
000780
000780
000780
000780
000780
000780
000780
000780
000F80
000F80
601F00
7FFF00
FFFE00
FFFC00
3FF800
ENDCHAR
STARTCHAR 006B
ENCODING 107
SWIDTH 486 0
DWIDTH 27 0
BBX 22 38 4 1
BITMAP
F80000
F80000
F80000
F80000
F80000
F80000
F80000
F80000
F80000
F80000
F80000
F80000
F800F8
F801F0
F803E0
F807E0
F80FC0
F81F00
F83E00
F87C00
F9F800
FBF000
FFE000
FFC000
FFC000
FFE000
FBF000
F9FC00
F8FE00
F83F00
F81F80
F80F80
F807C0
F803E0
F801F0
F801F8
F800FC
F8007C
ENDCHAR
STARTCHAR 006C
ENCODING 108
SWIDTH 486 0
DWIDTH 27 0
BBX 22 39 3 -1
BITMAP
FFF000
FFF000
FFF000
FFF000
01F000
01F000
01F000
01F000
01F000
01F000
01F000
01F000
01F000
01F000
01F000
01F000
01F000
01F000
01F000
01F000
01F000
01F000
01F000
01F000
01F000
01F000
01F000
01F000
01F000
01F000
00F000
00F000
00F800
00F800
00FFFC
007FFC
003FFC
001FF8
0003C0
ENDCHAR
STARTCHAR 006D
ENCODING 109
SWIDTH 486 0
DWIDTH 27 0
BBX 24 26 2 0
BITMAP
3FC3F0
FFFFFC
FFFFFC
FDFF7E
F07C1E
F03C1F
F03C0F
F03C0F
F03C0F
F03C0F
F03C0F
F03C0F
F03C0F
F03C0F
F03C0F
F03C0F
F0000F
F0000F
F0000F
F0000F
F0000F
F0000F
F0000F
F0000F
F0000F
F0000F
ENDCHAR
STARTCHAR 006E
ENCODING 110
SWIDTH 486 0
DWIDTH 27 0
BBX 20 26 4 0
BITMAP
3FFE00
FFFF00
FFFFC0
FFFFC0
F807E0
F803E0
F801F0
F801F0
F801F0
F801F0
F801F0
F801F0
F801F0
F801F0
F801F0
F801F0
F801F0
F801F0
F801F0
F801F0
F801F0
F801F0
F801F0
F801F0
F801F0
F801F0
ENDCHAR
STARTCHAR 006F
ENCODING 111
SWIDTH 486 0
DWIDTH 27 0
BBX 24 27 2 -1
BITMAP
01FF00
03FFC0
0FFFE0
1FFFF0
1F81F8
3E00FC
7E007C
7C003E
7C003E
78003E
F8001E
F8001E
F8001F
F8001F
F8001F
F8001E
F8003E
7C003E
7C003E
7C007C
3E00FC
3F01F8
1FFFF8
0FFFF0
07FFE0
01FF80
001800
ENDCHAR
STARTCHAR 0070
ENCODING 112
SWIDTH 486 0
DWIDTH 27 0
BBX 22 35 4 -9
BITMAP
3FFC00
FFFF00
FFFF80
FFFFC0
F807E0
F803F0
F801F0
F800F8
F800F8
F800F8
F80078
F80078
F8007C
F8007C
F8007C
F80078
F800F8
F800F8
F800F8
F801F8
F801F0
FC03F0
FFFFE0
FFFFC0
FFFF80
FFFE00
F87000
F80000
F80000
F80000
F80000
F80000
F80000
F80000
F80000
ENDCHAR
STARTCHAR 0071
ENCODING 113
SWIDTH 486 0
DWIDTH 27 0
BBX 22 35 2 -9
BITMAP
00FFF0
03FFFC
0FFFFC
1FFFFC
1F807C
3F007C
3E007C
7C007C
7C007C
78007C
F8007C
F8007C
F8007C
F8007C
F8007C
F8007C
F8007C
7C007C
7C007C
7C007C
3E007C
3F00FC
1FFFFC
0FFFFC
07FFFC
03FF7C
00387C
00007C
00007C
00007C
00007C
00007C
00007C
00007C
00007C
ENDCHAR
STARTCHAR 0072
ENCODING 114
SWIDTH 486 0
DWIDTH 27 0
BBX 18 26 6 0
BITMAP
0FFFC0
FFFFC0
FFFFC0
FFFFC0
F80000
F80000
F80000
F80000
F80000
F80000
F80000
F80000
F80000
F80000
F80000
F80000
F80000
F80000
F80000
F80000
F80000
F80000
F80000
F80000
F80000
F80000
ENDCHAR
STARTCHAR 0073
ENCODING 115
SWIDTH 486 0
DWIDTH 27 0
BBX 20 27 4 -1
BITMAP
07FFC0
1FFFE0
3FFFC0
7FFFC0
7C0040
F80000
F80000
F80000
FC0000
7E0000
7F8000
3FF000
0FFE00
07FF00
00FFC0
001FE0
0007E0
0001F0
0001F0
0001F0
0001F0
E001F0
FE0FE0
FFFFE0
FFFFC0
7FFF00
00D000
ENDCHAR
STARTCHAR 0074
ENCODING 116
SWIDTH 486 0
DWIDTH 27 0
BBX 22 35 3 -1
BITMAP
006000
03E000
03E000
03E000
03E000
03E000
03E000
03E000
FFFFF8
FFFFF8
FFFFF8
FFFFF8
03E000
03E000
03E000
03E000
03E000
03E000
03E000
03E000
03E000
03E000
03E000
03E000
03E000
03E000
03E000
03E000
03E000
01F000
01FFFC
01FFFC
00FFFC
003FF8
0007C0
ENDCHAR
STARTCHAR 0075
ENCODING 117
SWIDTH 486 0
DWIDTH 27 0
BBX 20 27 4 -1
BITMAP
F001F0
F001F0
F001F0
F001F0
F001F0
F001F0
F001F0
F001F0
F001F0
F001F0
F001F0
F001F0
F001F0
F001F0
F001F0
F001F0
F001F0
F801F0
F801F0
F801F0
7C01F0
7E01F0
7FFFF0
3FFFF0
1FFFF0
07FFE0
006800
ENDCHAR
STARTCHAR 0076
ENCODING 118
SWIDTH 486 0
DWIDTH 27 0
BBX 24 26 2 0
BITMAP
F8001F
F8001F
F8001E
7C003E
7C003E
7C003C
3E007C
3E007C
3E0078
1F00F8
1F00F8
1F00F0
0F81F0
0F81E0
0783E0
07C3E0
07C3C0
03C7C0
03E780
01EF80
01FF00
00FF00
00FE00
00FE00
007E00
007C00
ENDCHAR
STARTCHAR 0077
ENCODING 119
SWIDTH 486 0
DWIDTH 27 0
BBX 26 26 1 0
BITMAP
F00003C0
F80007C0
F8000780
F8000780
F8000780
78000780
781E0780
781E0780
781E0780
783F0780
783F0F00
7C3F0F00
3C7F8F00
3C778F00
3C738F00
3CF3CF00
3CE3CE00
3CE1DE00
1DE1FE00
1FC1FE00
1FC0FE00
1FC0FC00
1F807C00
0F807C00
0F007C00
0F003C00
ENDCHAR
STARTCHAR 0078
ENCODING 120
SWIDTH 486 0
DWIDTH 27 0
BBX 24 26 2 0
BITMAP
F8003E
7C003C
3E007C
3F00F8
1F01F0
0F81F0
07C3E0
03E7C0
03F7C0
01FF80
00FF00
007E00
007E00
00FF00
00FF80
01FF80
03E7C0
07C3E0
07C3F0
0F81F0
1F00F8
3E00FC
3E007C
7C003E
F8003E
F8001F
ENDCHAR
STARTCHAR 0079
ENCODING 121
SWIDTH 486 0
DWIDTH 27 0
BBX 24 35 2 -9
BITMAP
7C001F
7C003E
7C003E
3E003E
3E003E
3E007C
1E007C
1F007C
1F0078
0F00F8
0F80F8
0F80F0
0780F0
07C1F0
07C1F0
03E1E0
03E3E0
01E3E0
01F3C0
00F3C0
00FF80
007F80
007F80
003F00
003F00
001F00
001E00
003E00
003C00
007C00
00F800
7FF000
FFE000
FFC000
FF8000
ENDCHAR
STARTCHAR 007A
ENCODING 122
SWIDTH 486 0
DWIDTH 27 0
BBX 20 26 4 0
BITMAP
7FFFE0
7FFFE0
7FFFE0
7FFFE0
0007E0
000FC0
001F80
001F00
003E00
007E00
00FC00
00F800
01F000
03E000
07E000
07C000
0F8000
1F8000
1F0000
3E0000
7E0000
7C0000
FFFFF0
FFFFF0
FFFFF0
FFFFF0
ENDCHAR
STARTCHAR 007B
ENCODING 123
SWIDTH 486 0
DWIDTH 27 0
BBX 20 48 4 -9
BITMAP
000FF0
007FF0
00FFF0
01FFF0
01F000
01E000
01E000
03E000
03E000
03E000
03E000
03E000
03E000
03E000
03E000
03E000
03E000
03E000
03E000
03C000
03C000
07C000
FF8000
FF0000
FF0000
FF8000
0FC000
07C000
03C000
03E000
03E000
03E000
03E000
03E000
03E000
03E000
03E000
03E000
03E000
03E000
03E000
01E000
01E000
01F000
01FE00
00FFF0
007FF0
001FF0
ENDCHAR
STARTCHAR 007C
ENCODING 124
SWIDTH 486 0
DWIDTH 27 0
BBX 4 48 12 -9
BITMAP
F0
F0
F0
F0
F0
F0
F0
F0
F0
F0
F0
F0
F0
F0
F0
F0
F0
F0
F0
F0
F0
F0
F0
F0
F0
F0
F0
F0
F0
F0
F0
F0
F0
F0
F0
F0
F0
F0
F0
F0
F0
F0
F0
F0
F0
F0
F0
F0
ENDCHAR
STARTCHAR 007D
ENCODING 125
SWIDTH 486 0
DWIDTH 27 0
BBX 19 48 4 -9
BITMAP
FF0000
FFC000
FFF000
FFF000
00F800
007800
007800
007800
007800
007800
007800
007800
007800
007800
007800
007800
007800
007800
007800
007C00
003C00
003E00
001FE0
000FE0
000FE0
001FE0
003E00
003C00
007C00
007C00
007800
007800
007800
007800
007800
007800
007800
007800
007800
007800
007800
007800
007800
00F800
07F800
FFF000
FFE000
FF8000
ENDCHAR
STARTCHAR 007E
ENCODING 126
SWIDTH 486 0
DWIDTH 27 0
BBX 24 9 2 10
BITMAP
078000
1FE00F
3FF80F
7FFC1E
7CFFFE
F03FFC
F00FF8
6007F0
000080
ENDCHAR
STARTCHAR 00A0
ENCODING 160
SWIDTH 486 0
DWIDTH 27 0
BBX 0 0 0 0
BITMAP
ENDCHAR
STARTCHAR 00A1
ENCODING 161
SWIDTH 486 0
DWIDTH 27 0
BBX 8 35 10 -9
BITMAP
38
7E
FE
FF
FF
FE
7E
18
00
00
00
00
38
3C
3C
3C
3C
3C
3C
3C
7C
7C
7C
7C
7C
7C
7C
7C
7C
7C
7C
7C
7C
7C
7C
ENDCHAR
STARTCHAR 00A2
ENCODING 162
SWIDTH 486 0
DWIDTH 27 0
BBX 22 39 3 -5
BITMAP
001E00
001E00
001E00
001E00
001E00
001E00
001E00
00FFF8
07FFF8
0FFFF8
1FF9F8
3F8000
7E0000
7C0000
FC0000
F80000
F80000
F80000
F00000
F00000
F00000
F80000
F80000
F80000
FC0000
7C0000
7E0000
3F8000
1FF9FC
0FFFFC
07FFFC
01FFF8
001E00
001E00
001E00
001E00
001E00
001E00
001E00
ENDCHAR
STARTCHAR 00A3
ENCODING 163
SWIDTH 486 0
DWIDTH 27 0
BBX 23 35 2 0
BITMAP
000FF0
007FFC
00FFFC
01FFFC
01F818
03F000
03E000
03C000
07C000
07C000
07C000
07C000
07C000
07C000
07C000
07C000
FFFFE0
FFFFE0
FFFFE0
FFFFE0
07C000
07C000
07C000
07C000
07C000
078000
078000
078000
078000
0F8000
0F8000
0FFFFE
0FFFFE
0FFFFE
0FFFFE
ENDCHAR
STARTCHAR 00A4
ENCODING 164
SWIDTH 486 0
DWIDTH 27 0
BBX 24 23 2 5
BITMAP
200008
70001C
F83C3E
7DFFFE
3FFFFC
1FFFF8
0F81F0
1F00F8
1E0078
1C0078
3C0038
3C0038
3C0038
3C0038
1E0078
1E0078
1F00F0
1FC3F0
3FFFF8
7FFFFC
FCFF3F
78001E
30000C
ENDCHAR
STARTCHAR 00A5
ENCODING 165
SWIDTH 486 0
DWIDTH 27 0
BBX 26 34 1 0
BITMAP
F80007C0
7C000F80
7C000F80
3E001F00
3E001E00
1F003E00
1F003C00
0F807C00
07807800
07C0F800
03C0F000
03E1E000
01F3E000
01F3C000
00FFC000
007F8000
007F0000
1FFFFE00
1FFFFE00
1FFFFE00
001E0000
001E0000
001E0000
001E0000
001E0000
1FFFFE00
1FFFFE00
1FFFFE00
1FFFFE00
001E0000
001E0000
001E0000
001E0000
001E0000
ENDCHAR
STARTCHAR 00A6
ENCODING 166
SWIDTH 486 0
DWIDTH 27 0
BBX 4 48 12 -9
BITMAP
F0
F0
F0
F0
F0
F0
F0
F0
F0
F0
F0
F0
F0
F0
F0
F0
F0
F0
F0
00
00
00
00
00
00
00
00
00
00
F0
F0
F0
F0
F0
F0
F0
F0
F0
F0
F0
F0
F0
F0
F0
F0
F0
F0
F0
ENDCHAR
STARTCHAR 00A7
ENCODING 167
SWIDTH 486 0
DWIDTH 27 0
BBX 20 40 4 -5
BITMAP
03FF00
0FFFE0
1FFFE0
3FFFC0
3E00C0
3C0000
3C0000
7C0000
3C0000
3E0000
3F8000
1FE000
0FFC00
1FFF00
3EFF80
7C3FC0
7807E0
F003F0
F001F0
F000F0
F000F0
F800F0
FC01F0
7E01E0
7FC3E0
3FFFC0
0FFF80
03FF00
007F80
001FC0
0007C0
0003E0
0003E0
0003E0
0003E0
4007E0
7F3FC0
FFFF80
FFFF00
3FFE00
ENDCHAR
STARTCHAR 00A8
ENCODING 168
SWIDTH 486 0
DWIDTH 27 0
BBX 16 5 6 31
BITMAP
783E
FC3E
FC3F
FC3E
783E
ENDCHAR
STARTCHAR 00A9
ENCODING 169
SWIDTH 486 0
DWIDTH 27 0
BBX 24 27 2 -1
BITMAP
01FF00
07FFC0
0FFFF0
1F00F8
3E0078
3C003C
783E1E
70FF1E
F1FE0E
F1F60F
E3C00F
E3C007
E38007
E38007
E3C007
E3C00F
E3E00F
F1FF0E
70FF0E
787F1E
38003C
3C0078
1F00F8
0FE7F0
07FFE0
01FF80
001C00
ENDCHAR
STARTCHAR 00AA
ENCODING 170
SWIDTH 486 0
DWIDTH 27 0
BBX 14 19 7 16
BITMAP
3FE0
3FF0
3FF8
30FC
003C
001C
001C
07FC
3FFC
7FFC
FC1C
E01C
E01C
E01C
F01C
FC3C
7FFC
3FFC
07E0
ENDCHAR
STARTCHAR 00AB
ENCODING 171
SWIDTH 486 0
DWIDTH 27 0
BBX 19 19 4 4
BITMAP
020080
0781E0
0F83C0
0F03C0
1E0780
3E0F80
3C0F00
7C1F00
F83E00
F83E00
F83E00
781E00
7C1F00
3C0F00
1E0780
1E0780
0F03C0
0781E0
0701C0
ENDCHAR
STARTCHAR 00AC
ENCODING 172
SWIDTH 486 0
DWIDTH 27 0
BBX 23 17 2 2
BITMAP
FFFFFE
FFFFFE
FFFFFE
FFFFFE
00001E
00001E
00001E
00001E
00001E
00001E
00001E
00001E
00001E
00001E
00001E
00001E
00001E
ENDCHAR
STARTCHAR 00AD
ENCODING 173
SWIDTH 486 0
DWIDTH 27 0
BBX 12 4 8 12
BITMAP
FFF0
FFF0
FFF0
FFF0
ENDCHAR
STARTCHAR 00AE
ENCODING 174
SWIDTH 486 0
DWIDTH 27 0
BBX 24 27 2 -1
BITMAP
01FF00
07FFC0
0FFFF0
1F00F8
3E0078
3C003C
78FC1E
71FF1E
F1FF8E
F1C38F
E1C38F
E1C387
E1C787
E1FF07
E1FF07
E1FE0F
E1C70F
F1C78E
71C38E
79C3DE
38003C
3C0078
1F00F8
0FE7F0
07FFE0
01FF80
001C00
ENDCHAR
STARTCHAR 00AF
ENCODING 175
SWIDTH 486 0
DWIDTH 27 0
BBX 14 3 7 32
BITMAP
FFFC
FFFC
FFFC
ENDCHAR
STARTCHAR 00B0
ENCODING 176
SWIDTH 486 0
DWIDTH 27 0
BBX 14 13 7 26
BITMAP
1FE0
3FF0
7FF8
F078
F03C
E03C
E03C
E03C
F03C
7878
7FF8
3FF0
0FC0
ENDCHAR
STARTCHAR 00B1
ENCODING 177
SWIDTH 486 0
DWIDTH 27 0
BBX 22 31 3 0
BITMAP
007800
007800
007800
007800
007800
007800
007800
007800
007800
007800
FFFFFC
FFFFFC
FFFFFC
FFFFFC
007800
007800
007800
007800
007800
007800
007800
007800
007800
007800
000000
000000
000000
FFFFFC
FFFFFC
FFFFFC
FFFFFC
ENDCHAR
STARTCHAR 00B2
ENCODING 178
SWIDTH 486 0
DWIDTH 27 0
BBX 14 19 7 16
BITMAP
1FC0
7FF0
FFF0
7078
4078
0078
0078
0078
00F0
01E0
03C0
0780
1F00
3E00
3C00
7800
7FFC
7FFC
7FFC
ENDCHAR
STARTCHAR 00B3
ENCODING 179
SWIDTH 486 0
DWIDTH 27 0
BBX 14 20 7 15
BITMAP
3FC0
FFE0
7FF0
60F8
0078
0078
0070
01F0
0FE0
0FE0
0FF8
0078
003C
003C
003C
003C
71F8
FFF0
FFE0
1F00
ENDCHAR
STARTCHAR 00B4
ENCODING 180
SWIDTH 486 0
DWIDTH 27 0
BBX 9 9 10 30
BITMAP
0600
0F00
1F80
3F00
3E00
7C00
F800
F000
6000
ENDCHAR
STARTCHAR 00B5
ENCODING 181
SWIDTH 486 0
DWIDTH 27 0
BBX 20 35 4 -9
BITMAP
F801F0
F801F0
F801F0
F801F0
F801F0
F801F0
F801F0
F801F0
F801F0
F801F0
F801F0
F801F0
F801F0
F801F0
F801F0
F801F0
F801F0
F801F0
F801F0
F801F0
FC01F0
FE01F0
FFFFF0
FFFFF0
FFFFF0
F7FFE0
F0E000
F80000
F80000
F80000
F80000
F80000
F80000
F80000
F80000
ENDCHAR
STARTCHAR 00B6
ENCODING 182
SWIDTH 486 0
DWIDTH 27 0
BBX 23 44 2 -9
BITMAP
001FE0
01FFFE
0FFFFE
1FFFFE
3FFC1E
7FFC1E
7FFC1E
FFFC1E
FFFC1E
FFFC1E
FFFC1E
FFFC1E
FFFC1E
FFFC1E
FFFC1E
FFFC1E
7FFC1E
7FFC1E
3FFC1E
1FFC1E
07FC1E
01FC1E
003C1E
003C1E
003C1E
003C1E
003C1E
003C1E
003C1E
003C1E
003C1E
003C1E
003C1E
003C1E
003C1E
003C1E
003C1E
003C1E
003C1E
003C1E
003C1E
003C1E
003C1E
003C1E
ENDCHAR
STARTCHAR 00B7
ENCODING 183
SWIDTH 486 0
DWIDTH 27 0
BBX 8 9 10 10
BITMAP
18
7E
FF
FF
FF
FF
FF
7E
3C
ENDCHAR
STARTCHAR 00B8
ENCODING 184
SWIDTH 486 0
DWIDTH 27 0
BBX 9 10 9 -9
BITMAP
0E00
0E00
1C00
1E00
3F00
0F80
0780
FF80
FF00
FE00
ENDCHAR
STARTCHAR 00B9
ENCODING 185
SWIDTH 486 0
DWIDTH 27 0
BBX 14 19 7 16
BITMAP
0180
0780
0F80
3F80
FF80
FB80
4380
0380
0380
0380
0380
0380
0380
0380
0380
0380
FFFC
FFFC
FFFC
ENDCHAR
STARTCHAR 00BA
ENCODING 186
SWIDTH 486 0
DWIDTH 27 0
BBX 18 19 5 16
BITMAP
07F000
0FFC00
3FFE00
3E3F00
780F80
780780
F003C0
F003C0
F003C0
F003C0
F003C0
F003C0
F00380
780780
7C0F80
3FFF00
1FFE00
0FFC00
01E000
ENDCHAR
STARTCHAR 00BB
ENCODING 187
SWIDTH 486 0
DWIDTH 27 0
BBX 19 20 5 4
BITMAP
200800
F03C00
F03C00
781E00
7C1F00
3C0F00
1E0780
1F07C0
0F03C0
0F83E0
0F83E0
1F07C0
1E0780
3E0F80
3C0F00
781E00
781E00
F03C00
E03800
200800
ENDCHAR
STARTCHAR 00BC
ENCODING 188
SWIDTH 486 0
DWIDTH 27 0
BBX 26 35 1 0
BITMAP
03000000
0F000780
1F000F00
7F000F00
FF001E00
67001E00
07003C00
07007800
07007800
0700F000
0700E000
0701E000
0703C000
0703C000
00078000
000F0000
000F0000
001E0000
001E0000
003C0000
00780000
00781F00
00F03F00
00E07F00
01E0EF00
03C0EF00
03C1CF00
0781CF00
0F038F00
0F070F00
1E07FFC0
1E07FFC0
3C000F00
78000F00
78000F00
ENDCHAR
STARTCHAR 00BD
ENCODING 189
SWIDTH 486 0
DWIDTH 27 0
BBX 26 35 1 0
BITMAP
03800000
07800F00
1F800F00
7F801E00
7F801E00
77803C00
07807800
07807800
0780F000
0780E000
0781E000
0783C000
0783C000
07878000
000F0000
000F0000
001E0000
001E0000
003C0000
00780000
00780000
00F0FE00
00E1FF00
01E1FF80
03C08380
03C00380
07800380
07000780
0F001F00
1E003E00
1E00F800
3C01F000
7801FFC0
7801FFC0
F001FFC0
ENDCHAR
STARTCHAR 00BE
ENCODING 190
SWIDTH 486 0
DWIDTH 27 0
BBX 26 35 1 0
BITMAP
7F000000
FFC00780
7FC00700
01C00F00
01C01E00
0FC01E00
1F803C00
1FC07800
07E07800
01E0F000
00E0F000
43E1E000
7FC3C000
FF83C000
1C078000
00078000
000F0000
001E0000
001E0000
003C0000
00380000
00781F00
00F03F00
00F07F00
01E0EF00
03C0EF00
03C1CF00
0781CF00
07838F00
0F070F00
1E07FFC0
1E07FFC0
3C000F00
38000F00
78000F00
ENDCHAR
STARTCHAR 00BF
ENCODING 191
SWIDTH 486 0
DWIDTH 27 0
BBX 18 35 5 -9
BITMAP
007000
01F800
01FC00
01FC00
01FC00
01FC00
01F800
006000
000000
000000
000000
000000
007800
007800
00F800
00F000
01F000
01F000
03E000
07C000
0F8000
1F0000
3E0000
7C0000
780000
F80000
F80000
F80000
F80000
FC0000
7C0180
7FDF80
3FFF80
1FFFC0
0FFE00
ENDCHAR
STARTCHAR 00C0
ENCODING 192
SWIDTH 486 0
DWIDTH 27 0
BBX 26 46 1 0
BITMAP
00100000
00380000
00780000
007C0000
003E0000
001F0000
000F8000
0007C000
00030000
00000000
00000000
00000000
003F0000
007F8000
007F8000
007F8000
00FFC000
00F3C000
00F3C000
01E3E000
01E1E000
01E1E000
03C1F000
03C0F000
03C0F000
0780F800
0780F800
07807800
0F807800
0F007C00
0F003C00
1F003C00
1E003E00
1FFFFE00
1FFFFE00
3FFFFE00
3FFFFF00
3C000F00
7C000F00
7C000F80
78000F80
78000F80
F8000780
F80007C0
F80007C0
F00007C0
ENDCHAR
STARTCHAR 00C1
ENCODING 193
SWIDTH 486 0
DWIDTH 27 0
BBX 26 46 1 0
BITMAP
00020000
00070000
000F8000
000F8000
001F0000
003E0000
007C0000
00F80000
00700000
00200000
00000000
00000000
003F0000
007F8000
007F8000
007F8000
00FFC000
00F3C000
00F3C000
01E3E000
01E1E000
01E1E000
03C1F000
03C0F000
03C0F000
0780F800
0780F800
07807800
0F807800
0F007C00
0F003C00
1F003C00
1E003E00
1FFFFE00
1FFFFE00
3FFFFE00
3FFFFF00
3C000F00
7C000F00
7C000F80
78000F80
78000F80
F8000780
F80007C0
F80007C0
F00007C0
ENDCHAR
STARTCHAR 00C2
ENCODING 194
SWIDTH 486 0
DWIDTH 27 0
BBX 26 46 1 0
BITMAP
00080000
000C0000
001E0000
003F0000
007F8000
00F7C000
01E3E000
03C0E000
01806000
00000000
00000000
00000000
003F0000
007F8000
007F8000
007F8000
00FFC000
00F3C000
00F3C000
01E3E000
01E1E000
01E1E000
03C1F000
03C0F000
03C0F000
0780F800
0780F800
07807800
0F807800
0F007C00
0F003C00
1F003C00
1E003E00
1FFFFE00
1FFFFE00
3FFFFE00
3FFFFF00
3C000F00
7C000F00
7C000F80
78000F80
78000F80
F8000780
F80007C0
F80007C0
F00007C0
ENDCHAR
STARTCHAR 00C3
ENCODING 195
SWIDTH 486 0
DWIDTH 27 0
BBX 26 44 1 0
BITMAP
00703000
01FC7000
03FFF000
03FFE000
0707C000
01000000
00000000
00000000
00000000
00000000
003F0000
007F8000
007F8000
007F8000
00FFC000
00F3C000
00F3C000
01E3E000
01E1E000
01E1E000
03C1F000
03C0F000
03C0F000
0780F800
0780F800
07807800
0F807800
0F007C00
0F003C00
1F003C00
1E003E00
1FFFFE00
1FFFFE00
3FFFFE00
3FFFFF00
3C000F00
7C000F00
7C000F80
78000F80
78000F80
F8000780
F80007C0
F80007C0
F00007C0
ENDCHAR
STARTCHAR 00C4
ENCODING 196
SWIDTH 486 0
DWIDTH 27 0
BBX 26 44 1 0
BITMAP
03C0E000
03E1F000
07E1F000
07E1F000
03E1F000
0180E000
00000000
00000000
00000000
00000000
003F0000
007F8000
007F8000
007F8000
00FFC000
00F3C000
00F3C000
01E3E000
01E1E000
01E1E000
03C1F000
03C0F000
03C0F000
0780F800
0780F800
07807800
0F807800
0F007C00
0F003C00
1F003C00
1E003E00
1FFFFE00
1FFFFE00
3FFFFE00
3FFFFF00
3C000F00
7C000F00
7C000F80
78000F80
78000F80
F8000780
F80007C0
F80007C0
F00007C0
ENDCHAR
STARTCHAR 00C5
ENCODING 197
SWIDTH 486 0
DWIDTH 27 0
BBX 26 42 1 0
BITMAP
000C0000
003F0000
007F8000
00E1C000
00C1C000
00C0C000
00C1C000
00E1C000
007F8000
003F0000
007F8000
007F8000
00FF8000
00F3C000
00F3C000
01E3E000
01E1E000
01E1E000
03C1F000
03C0F000
03C0F000
0780F800
0780F800
07807800
0F807800
0F007C00
0F003C00
1F003C00
1E003E00
1FFFFE00
1FFFFE00
3FFFFE00
3FFFFF00
3C000F00
7C000F00
7C000F80
78000F80
78000F80
F8000780
F80007C0
F80007C0
F00007C0
ENDCHAR
STARTCHAR 00C6
ENCODING 198
SWIDTH 486 0
DWIDTH 27 0
BBX 25 34 2 0
BITMAP
003FFF00
007FFF00
007FFF00
0077FF00
00F78000
00F78000
00E78000
01E78000
01E78000
01C78000
03C78000
03C78000
03C78000
07878000
0787FE00
0787FE00
0F07FE00
0F07FE00
0F078000
1F078000
1E078000
1FFF8000
1FFF8000
3FFF8000
3FFF8000
3C078000
7C078000
7C078000
78078000
78078000
F807FF80
F807FF80
F007FF80
F007FF80
ENDCHAR
STARTCHAR 00C7
ENCODING 199
SWIDTH 486 0
DWIDTH 27 0
BBX 23 44 3 -9
BITMAP
003FC0
01FFF8
03FFFC
07FFFC
0FE03C
1F8008
3F0000
3E0000
7C0000
7C0000
780000
F80000
F80000
F80000
F00000
F00000
F00000
F00000
F00000
F00000
F00000
F00000
F80000
F80000
F80000
780000
7C0000
7E0000
3E0000
3F0000
1FC00C
0FF8FC
07FFFC
03FFFE
00FFF8
001F80
000E00
001F00
001F80
000780
000780
007F80
00FF80
00FF00
ENDCHAR
STARTCHAR 00C8
ENCODING 200
SWIDTH 486 0
DWIDTH 27 0
BBX 21 46 5 0
BITMAP
010000
038000
07C000
03E000
01F000
00F000
007800
003C00
001800
000000
000000
000000
FFFFE0
FFFFE0
FFFFE0
FFFFE0
F80000
F80000
F80000
F80000
F80000
F80000
F80000
F80000
F80000
F80000
FFFFC0
FFFFC0
FFFFC0
FFFFC0
F80000
F80000
F80000
F80000
F80000
F80000
F80000
F80000
F80000
F80000
F80000
F80000
FFFFF8
FFFFF8
FFFFF8
FFFFF8
ENDCHAR
STARTCHAR 00C9
ENCODING 201
SWIDTH 486 0
DWIDTH 27 0
BBX 21 46 5 0
BITMAP
000800
001C00
003E00
007E00
00FC00
00F000
01E000
03C000
018000
000000
000000
000000
FFFFE0
FFFFE0
FFFFE0
FFFFE0
F80000
F80000
F80000
F80000
F80000
F80000
F80000
F80000
F80000
F80000
FFFFC0
FFFFC0
FFFFC0
FFFFC0
F80000
F80000
F80000
F80000
F80000
F80000
F80000
F80000
F80000
F80000
F80000
F80000
FFFFF8
FFFFF8
FFFFF8
FFFFF8
ENDCHAR
STARTCHAR 00CA
ENCODING 202
SWIDTH 486 0
DWIDTH 27 0
BBX 21 46 5 0
BITMAP
004000
006000
00F000
01F800
03FC00
07BE00
0F1F00
1E0700
0C0300
000000
000000
000000
FFFFE0
FFFFE0
FFFFE0
FFFFE0
F80000
F80000
F80000
F80000
F80000
F80000
F80000
F80000
F80000
F80000
FFFFC0
FFFFC0
FFFFC0
FFFFC0
F80000
F80000
F80000
F80000
F80000
F80000
F80000
F80000
F80000
F80000
F80000
F80000
FFFFF8
FFFFF8
FFFFF8
FFFFF8
ENDCHAR
STARTCHAR 00CB
ENCODING 203
SWIDTH 486 0
DWIDTH 27 0
BBX 21 44 5 0
BITMAP
1E0700
1F0F80
3F0F80
3F0F80
1F0F80
0C0700
000000
000000
000000
000000
FFFFE0
FFFFE0
FFFFE0
FFFFE0
F80000
F80000
F80000
F80000
F80000
F80000
F80000
F80000
F80000
F80000
FFFFC0
FFFFC0
FFFFC0
FFFFC0
F80000
F80000
F80000
F80000
F80000
F80000
F80000
F80000
F80000
F80000
F80000
F80000
FFFFF8
FFFFF8
FFFFF8
FFFFF8
ENDCHAR
STARTCHAR 00CC
ENCODING 204
SWIDTH 486 0
DWIDTH 27 0
BBX 18 46 5 0
BITMAP
010000
038000
078000
07C000
03E000
01F000
00F800
007C00
003800
000000
000000
000000
FFFFC0
FFFFC0
FFFFC0
FFFFC0
01E000
01E000
01E000
01E000
01E000
01E000
01E000
01E000
01E000
01E000
01E000
01E000
01E000
01E000
01E000
01E000
01E000
01E000
01E000
01E000
01E000
01E000
01E000
01E000
01E000
01E000
FFFFC0
FFFFC0
FFFFC0
FFFFC0
ENDCHAR
STARTCHAR 00CD
ENCODING 205
SWIDTH 486 0
DWIDTH 27 0
BBX 18 46 5 0
BITMAP
001000
003800
007C00
00FC00
00F800
01F000
03E000
07C000
038000
000000
000000
000000
FFFFC0
FFFFC0
FFFFC0
FFFFC0
01E000
01E000
01E000
01E000
01E000
01E000
01E000
01E000
01E000
01E000
01E000
01E000
01E000
01E000
01E000
01E000
01E000
01E000
01E000
01E000
01E000
01E000
01E000
01E000
01E000
01E000
FFFFC0
FFFFC0
FFFFC0
FFFFC0
ENDCHAR
STARTCHAR 00CE
ENCODING 206
SWIDTH 486 0
DWIDTH 27 0
BBX 18 46 5 0
BITMAP
008000
00C000
01E000
03F000
07F800
0F7C00
1E3E00
3C0E00
180600
000000
000000
000000
FFFFC0
FFFFC0
FFFFC0
FFFFC0
01E000
01E000
01E000
01E000
01E000
01E000
01E000
01E000
01E000
01E000
01E000
01E000
01E000
01E000
01E000
01E000
01E000
01E000
01E000
01E000
01E000
01E000
01E000
01E000
01E000
01E000
FFFFC0
FFFFC0
FFFFC0
FFFFC0
ENDCHAR
STARTCHAR 00CF
ENCODING 207
SWIDTH 486 0
DWIDTH 27 0
BBX 18 44 5 0
BITMAP
3C0E00
3E1F00
7E1F00
7E1F00
3E1F00
180E00
000000
000000
000000
000000
FFFFC0
FFFFC0
FFFFC0
FFFFC0
01E000
01E000
01E000
01E000
01E000
01E000
01E000
01E000
01E000
01E000
01E000
01E000
01E000
01E000
01E000
01E000
01E000
01E000
01E000
01E000
01E000
01E000
01E000
01E000
01E000
01E000
FFFFC0
FFFFC0
FFFFC0
FFFFC0
ENDCHAR
STARTCHAR 00D0
ENCODING 208
SWIDTH 486 0
DWIDTH 27 0
BBX 25 35 1 0
BITMAP
03F80000
1FFF0000
1FFFC000
1FFFE000
1F0FF800
1F01F800
1F00FC00
1F007C00
1F003E00
1F001E00
1F001F00
1F001F00
1F001F00
1F000F00
1F000F00
FFF80F00
FFF80F80
FFF80F80
FFF80F80
1F000F80
1F000F00
1F000F00
1F000F00
1F001F00
1F001F00
1F001F00
1F003E00
1F003E00
1F007C00
1F00FC00
1F03F800
1FFFF000
1FFFE000
1FFFC000
1FFE0000
ENDCHAR
STARTCHAR 00D1
ENCODING 209
SWIDTH 486 0
DWIDTH 27 0
BBX 22 44 3 0
BITMAP
01C0C0
07F1C0
0FFFC0
0FFF80
1C1F00
040000
000000
000000
000000
000000
F8003C
FC003C
FC003C
FE003C
FE003C
FF003C
FF003C
F7803C
F7C03C
F3C03C
F3E03C
F1E03C
F1F03C
F0F03C
F0F83C
F0783C
F0783C
F03C3C
F03C3C
F01E3C
F01E3C
F00F3C
F00F3C
F0073C
F007BC
F007BC
F003FC
F003FC
F001FC
F001FC
F000FC
F000FC
F000FC
F0007C
ENDCHAR
STARTCHAR 00D2
ENCODING 210
SWIDTH 486 0
DWIDTH 27 0
BBX 24 47 2 -1
BITMAP
002000
007000
00F000
00F800
007C00
003E00
001F00
000F80
000700
000000
000000
00FF00
03FFC0
07FFE0
0FFFF0
1F81F8
3E00FC
3E007C
7C003E
7C003E
78003E
F8001E
F8001F
F8001F
F0001F
F0001F
F0001F
F0000F
F0000F
F0000F
F0000F
F0001F
F0001F
F8001F
F8001F
F8001F
F8001E
78003E
7C003E
7C007C
3E007C
3F00F8
1FC3F8
0FFFF0
07FFE0
03FF80
003C00
ENDCHAR
STARTCHAR 00D3
ENCODING 211
SWIDTH 486 0
DWIDTH 27 0
BBX 24 47 2 -1
BITMAP
000200
000700
000F80
001F80
003F00
003E00
007C00
00F000
006000
000000
000000
00FF00
03FFC0
07FFE0
0FFFF0
1F81F8
3E00FC
3E007C
7C003E
7C003E
78003E
F8001E
F8001F
F8001F
F0001F
F0001F
F0001F
F0000F
F0000F
F0000F
F0000F
F0001F
F0001F
F8001F
F8001F
F8001F
F8001E
78003E
7C003E
7C007C
3E007C
3F00F8
1FC3F8
0FFFF0
07FFE0
03FF80
003C00
ENDCHAR
STARTCHAR 00D4
ENCODING 212
SWIDTH 486 0
DWIDTH 27 0
BBX 24 47 2 -1
BITMAP
001000
001800
003C00
007E00
00FF00
01EF80
03C7C0
0781C0
0300C0
000000
000000
00FF00
03FFC0
07FFE0
0FFFF0
1F81F8
3E00FC
3E007C
7C003E
7C003E
78003E
F8001E
F8001F
F8001F
F0001F
F0001F
F0001F
F0000F
F0000F
F0000F
F0000F
F0001F
F0001F
F8001F
F8001F
F8001F
F8001E
78003E
7C003E
7C007C
3E007C
3F00F8
1FC3F8
0FFFF0
07FFE0
03FF80
003C00
ENDCHAR
STARTCHAR 00D5
ENCODING 213
SWIDTH 486 0
DWIDTH 27 0
BBX 24 45 2 -1
BITMAP
00E060
03F8E0
07FFE0
07FFC0
0E0F80
020000
000000
000000
000000
00FF00
03FFC0
07FFE0
0FFFF0
1F81F8
3E00FC
3E007C
7C003E
7C003E
78003E
F8001E
F8001F
F8001F
F0001F
F0001F
F0001F
F0000F
F0000F
F0000F
F0000F
F0001F
F0001F
F8001F
F8001F
F8001F
F8001E
78003E
7C003E
7C007C
3E007C
3F00F8
1FC3F8
0FFFF0
07FFE0
03FF80
003C00
ENDCHAR
STARTCHAR 00D6
ENCODING 214
SWIDTH 486 0
DWIDTH 27 0
BBX 24 45 2 -1
BITMAP
0781C0
07C3E0
0FC3E0
0FC3E0
07C3E0
0301C0
000000
000000
000000
00FF00
03FFC0
07FFE0
0FFFF0
1F81F8
3E00FC
3E007C
7C003E
7C003E
78003E
F8001E
F8001F
F8001F
F0001F
F0001F
F0001F
F0000F
F0000F
F0000F
F0000F
F0001F
F0001F
F8001F
F8001F
F8001F
F8001E
78003E
7C003E
7C007C
3E007C
3F00F8
1FC3F8
0FFFF0
07FFE0
03FF80
003C00
ENDCHAR
STARTCHAR 00D7
ENCODING 215
SWIDTH 486 0
DWIDTH 27 0
BBX 20 19 4 6
BITMAP
3000C0
7801E0
FC03F0
7E07E0
3F0FC0
1F9F80
0FFF00
07FE00
03FC00
01F800
03FC00
07FE00
0FFF00
1F9F80
3F0FC0
7E07E0
FC03F0
7801E0
3000C0
ENDCHAR
STARTCHAR 00D8
ENCODING 216
SWIDTH 486 0
DWIDTH 27 0
BBX 24 38 2 -2
BITMAP
000030
00FF3C
03FFFC
07FFF8
0FFFF8
1F81F8
3E00FC
3E01FC
7C01FE
7C03FE
7803DE
F8079E
F8079F
F80F1F
F00F1F
F01E1F
F01E1F
F03C0F
F03C0F
F0780F
F0780F
F0F81F
F0F01F
F1F01F
F1E01F
FBE01F
FBC01E
7FC03E
7F803E
7F807C
3F007C
3F00F8
1FC3F8
3FFFF0
3FFFE0
3FFF80
383C00
080000
ENDCHAR
STARTCHAR 00D9
ENCODING 217
SWIDTH 486 0
DWIDTH 27 0
BBX 22 47 3 -1
BITMAP
00C000
01C000
03E000
01F000
00F800
007C00
003C00
001E00
000C00
000000
000000
000000
F0003C
F0003C
F0003C
F0003C
F0003C
F0003C
F0003C
F0003C
F0003C
F0003C
F0003C
F0003C
F0003C
F0003C
F0003C
F0003C
F0003C
F0003C
F0003C
F0003C
F0003C
F0003C
F0003C
F0007C
F0007C
F8007C
F8007C
F80078
7C00F8
7E01F8
3F87F0
3FFFE0
1FFFC0
07FF80
00FC00
ENDCHAR
STARTCHAR 00DA
ENCODING 218
SWIDTH 486 0
DWIDTH 27 0
BBX 22 47 3 -1
BITMAP
000400
000E00
001F00
003F00
007E00
007C00
00F800
01E000
00C000
000000
000000
000000
F0003C
F0003C
F0003C
F0003C
F0003C
F0003C
F0003C
F0003C
F0003C
F0003C
F0003C
F0003C
F0003C
F0003C
F0003C
F0003C
F0003C
F0003C
F0003C
F0003C
F0003C
F0003C
F0003C
F0007C
F0007C
F8007C
F8007C
F80078
7C00F8
7E01F8
3F87F0
3FFFE0
1FFFC0
07FF80
00FC00
ENDCHAR
STARTCHAR 00DB
ENCODING 219
SWIDTH 486 0
DWIDTH 27 0
BBX 22 47 3 -1
BITMAP
002000
003000
007800
00FC00
01FE00
03DF00
078F80
0F0380
060180
000000
000000
000000
F0003C
F0003C
F0003C
F0003C
F0003C
F0003C
F0003C
F0003C
F0003C
F0003C
F0003C
F0003C
F0003C
F0003C
F0003C
F0003C
F0003C
F0003C
F0003C
F0003C
F0003C
F0003C
F0003C
F0007C
F0007C
F8007C
F8007C
F80078
7C00F8
7E01F8
3F87F0
3FFFE0
1FFFC0
07FF80
00FC00
ENDCHAR
STARTCHAR 00DC
ENCODING 220
SWIDTH 486 0
DWIDTH 27 0
BBX 22 45 3 -1
BITMAP
0F0380
0F87C0
1F87C0
1F87C0
0F87C0
060380
000000
000000
000000
000000
F0003C
F0003C
F0003C
F0003C
F0003C
F0003C
F0003C
F0003C
F0003C
F0003C
F0003C
F0003C
F0003C
F0003C
F0003C
F0003C
F0003C
F0003C
F0003C
F0003C
F0003C
F0003C
F0003C
F0007C
F0007C
F8007C
F8007C
F80078
7C00F8
7E01F8
3F87F0
3FFFE0
1FFFC0
07FF80
00FC00
ENDCHAR
STARTCHAR 00DD
ENCODING 221
SWIDTH 486 0
DWIDTH 27 0
BBX 26 46 1 0
BITMAP
00010000
00038000
0007C000
000FC000
001F8000
001F0000
003E0000
00780000
00300000
00000000
00000000
00000000
F80007C0
FC000F80
7C000F80
7C000F00
3E001F00
3E001F00
1F003E00
1F003E00
0F807C00
0F807C00
0780F800
07C0F800
03E1F000
03E1F000
01F3E000
01F3C000
00FFC000
00FF8000
007F8000
003F0000
003F0000
001E0000
001E0000
001E0000
001E0000
001E0000
001E0000
001E0000
001E0000
001E0000
001E0000
001E0000
001E0000
001E0000
ENDCHAR
STARTCHAR 00DE
ENCODING 222
SWIDTH 486 0
DWIDTH 27 0
BBX 21 34 4 0
BITMAP
F80000
F80000
F80000
F80000
F80000
FFF000
FFFF00
FFFFC0
FFFFE0
F80FF0
F803F0
F801F8
F800F8
F800F8
F80078
F80078
F80078
F800F8
F800F8
F800F8
F801F0
F803F0
F80FE0
FFFFC0
FFFF80
FFFF00
FFF000
F80000
F80000
F80000
F80000
F80000
F80000
F80000
ENDCHAR
STARTCHAR 00DF
ENCODING 223
SWIDTH 486 0
DWIDTH 27 0
BBX 22 39 4 0
BITMAP
07FC00
1FFF00
3FFF80
3FFF80
7E0FC0
7C07C0
F807C0
F803C0
F803C0
F807C0
F807C0
F80F80
F81F00
F83F00
F87E00
F8FC00
F8F800
F8F800
F8F000
F8F800
F8FC00
F8FF00
F87F80
F81FE0
F80FF0
F803F8
F800FC
F8007C
F8007C
F8003C
F8003C
F8003C
F8007C
F8807C
F8F1FC
F8FFF8
F9FFF0
F8FFE0
001E00
ENDCHAR
STARTCHAR 00E0
ENCODING 224
SWIDTH 486 0
DWIDTH 27 0
BBX 21 39 3 0
BITMAP
00C000
01E000
03E000
01F000
00F800
007C00
003E00
001E00
000C00
000000
000000
000000
1FFF00
1FFFC0
1FFFE0
1FFFF0
0003F0
0001F8
0000F8
0000F8
0000F8
0000F8
003CF8
07FFF8
1FFFF8
3FFFF8
7F00F8
7C00F8
F800F8
F800F8
F800F8
F800F8
F800F8
7C00F8
7F81F8
3FFFF8
1FFFF8
07FFF8
003800
ENDCHAR
STARTCHAR 00E1
ENCODING 225
SWIDTH 486 0
DWIDTH 27 0
BBX 21 39 3 0
BITMAP
000600
000F00
001F80
003F00
003E00
007C00
00F800
00F000
006000
000000
000000
000000
1FFF00
1FFFC0
1FFFE0
1FFFF0
0003F0
0001F8
0000F8
0000F8
0000F8
0000F8
003CF8
07FFF8
1FFFF8
3FFFF8
7F00F8
7C00F8
F800F8
F800F8
F800F8
F800F8
F800F8
7C00F8
7F81F8
3FFFF8
1FFFF8
07FFF8
003800
ENDCHAR
STARTCHAR 00E2
ENCODING 226
SWIDTH 486 0
DWIDTH 27 0
BBX 21 39 3 -1
BITMAP
001000
003800
007C00
00FE00
01FF00
03EF80
0787C0
0703C0
020080
000000
000000
000000
1FFF00
1FFFC0
1FFFE0
1FFFF0
0003F0
0001F8
0000F8
0000F8
0000F8
0000F8
003CF8
07FFF8
1FFFF8
3FFFF8
7F00F8
7C00F8
F800F8
F800F8
F800F8
F800F8
F800F8
7C00F8
7F81F8
3FFFF8
1FFFF8
07FFF8
003800
ENDCHAR
STARTCHAR 00E3
ENCODING 227
SWIDTH 486 0
DWIDTH 27 0
BBX 21 37 3 0
BITMAP
03C0C0
07FBC0
0FFFC0
1E7F80
0C1F00
000000
000000
000000
000000
000000
1FFF00
1FFFC0
1FFFE0
1FFFF0
0003F0
0001F8
0000F8
0000F8
0000F8
0000F8
003CF8
07FFF8
1FFFF8
3FFFF8
7F00F8
7C00F8
F800F8
F800F8
F800F8
F800F8
F800F8
7C00F8
7F81F8
3FFFF8
1FFFF8
07FFF8
003800
ENDCHAR
STARTCHAR 00E4
ENCODING 228
SWIDTH 486 0
DWIDTH 27 0
BBX 21 37 3 -1
BITMAP
0F07C0
1F87C0
1F87E0
1F87C0
0F07C0
000000
000000
000000
000000
000000
1FFF00
1FFFC0
1FFFE0
1FFFF0
0003F0
0001F8
0000F8
0000F8
0000F8
0000F8
003CF8
07FFF8
1FFFF8
3FFFF8
7F00F8
7C00F8
F800F8
F800F8
F800F8
F800F8
F800F8
7C00F8
7F81F8
3FFFF8
1FFFF8
07FFF8
003800
ENDCHAR
STARTCHAR 00E5
ENCODING 229
SWIDTH 486 0
DWIDTH 27 0
BBX 21 40 3 -1
BITMAP
003000
00FC00
01FE00
038700
030700
030700
030700
038700
01FE00
00FC00
002000
000000
000000
1FFF00
1FFFC0
1FFFE0
1FFFF0
0003F0
0001F8
0000F8
0000F8
0000F8
0000F8
003CF8
07FFF8
1FFFF8
3FFFF8
7F00F8
7C00F8
F800F8
F800F8
F800F8
F800F8
F800F8
7C00F8
7F81F8
3FFFF8
1FFFF8
07FFF8
003800
ENDCHAR
STARTCHAR 00E6
ENCODING 230
SWIDTH 486 0
DWIDTH 27 0
BBX 25 27 2 -1
BITMAP
3FC1F800
3FF3FC00
3FF7FE00
3FFFFE00
00FF1E00
007E0F00
003E0F00
003E0F00
003C0F00
003C0F00
07BC0F00
1FFFFF80
3FFFFF80
7FFFFF80
7C7C0000
F83C0000
F03C0000
F03C0000
F03E0000
F01E0000
F01F0000
F81F8000
FCFFFE00
7FFFFF00
3FFFFF00
1FE1FE00
03003000
ENDCHAR
STARTCHAR 00E7
ENCODING 231
SWIDTH 486 0
DWIDTH 27 0
BBX 22 35 3 -9
BITMAP
00FFF8
03FFF8
0FFFF8
1FFFF8
3FC008
3F0000
7E0000
7C0000
F80000
F80000
F80000
F80000
F00000
F00000
F00000
F80000
F80000
F80000
FC0000
7C0000
7E0000
3F8000
1FFFFC
0FFFFC
07FFFC
01FFF8
001E00
003C00
003E00
003F00
000F00
000F00
01FF00
01FF00
01FE00
ENDCHAR
STARTCHAR 00E8
ENCODING 232
SWIDTH 486 0
DWIDTH 27 0
BBX 23 39 2 0
BITMAP
006000
00F000
01F000
00F800
007C00
003E00
001F00
000F00
000600
000000
000000
000000
00FF80
03FFE0
07FFF0
1FFFF8
1F80FC
3E007C
3E003C
7C003E
78003E
78001E
F8001E
FFFFFE
FFFFFE
FFFFFE
F80000
F80000
780000
780000
7C0000
7E0000
3F0000
1F8008
1FFFF8
0FFFF8
03FFF8
01FFF8
000F00
ENDCHAR
STARTCHAR 00E9
ENCODING 233
SWIDTH 486 0
DWIDTH 27 0
BBX 23 39 2 0
BITMAP
000300
000780
000FC0
001F80
001F00
003E00
007C00
007800
003000
000000
000000
000000
00FF80
03FFE0
07FFF0
1FFFF8
1F80FC
3E007C
3E003C
7C003E
78003E
78001E
F8001E
FFFFFE
FFFFFE
FFFFFE
F80000
F80000
780000
780000
7C0000
7E0000
3F0000
1F8008
1FFFF8
0FFFF8
03FFF8
01FFF8
000F00
ENDCHAR
STARTCHAR 00EA
ENCODING 234
SWIDTH 486 0
DWIDTH 27 0
BBX 23 39 2 -1
BITMAP
000800
001C00
003E00
007F00
00FF80
01F7C0
03E1E0
03C0E0
010040
000000
000000
000000
00FF80
03FFE0
07FFF0
1FFFF8
1F80FC
3E007C
3E003C
7C003E
78003E
78001E
F8001E
FFFFFE
FFFFFE
FFFFFE
F80000
F80000
780000
780000
7C0000
7E0000
3F0000
1F8008
1FFFF8
0FFFF8
03FFF8
01FFF8
000F00
ENDCHAR
STARTCHAR 00EB
ENCODING 235
SWIDTH 486 0
DWIDTH 27 0
BBX 23 37 2 -1
BITMAP
03C1E0
07E1F0
07E3F0
07E1F0
03C1E0
000000
000000
000000
000000
000000
00FF80
03FFE0
07FFF0
1FFFF8
1F80FC
3E007C
3E003C
7C003E
78003E
78001E
F8001E
FFFFFE
FFFFFE
FFFFFE
F80000
F80000
780000
780000
7C0000
7E0000
3F0000
1F8008
1FFFF8
0FFFF8
03FFF8
01FFF8
000F00
ENDCHAR
STARTCHAR 00EC
ENCODING 236
SWIDTH 486 0
DWIDTH 27 0
BBX 22 39 3 0
BITMAP
030000
078000
0FC000
07C000
03E000
01F000
00F800
007800
003000
000000
000000
000000
FFF000
FFF000
FFF000
FFF000
01F000
01F000
01F000
01F000
01F000
01F000
01F000
01F000
01F000
01F000
01F000
01F000
01F000
01F000
00F000
00F000
00F800
00F800
00FFFC
007FFC
003FFC
001FF8
0003C0
ENDCHAR
STARTCHAR 00ED
ENCODING 237
SWIDTH 486 0
DWIDTH 27 0
BBX 22 39 3 0
BITMAP
001000
003800
007C00
00F800
01F000
03E000
03C000
078000
010000
000000
000000
000000
FFF000
FFF000
FFF000
FFF000
01F000
01F000
01F000
01F000
01F000
01F000
01F000
01F000
01F000
01F000
01F000
01F000
01F000
01F000
00F000
00F000
00F800
00F800
00FFFC
007FFC
003FFC
001FF8
0003C0
ENDCHAR
STARTCHAR 00EE
ENCODING 238
SWIDTH 486 0
DWIDTH 27 0
BBX 22 39 3 -1
BITMAP
00C000
01E000
03E000
07F000
07F800
0F3C00
1E1E00
1C0E00
080400
000000
000000
000000
FFF000
FFF000
FFF000
FFF000
01F000
01F000
01F000
01F000
01F000
01F000
01F000
01F000
01F000
01F000
01F000
01F000
01F000
01F000
00F000
00F000
00F800
00F800
00FFFC
007FFC
003FFC
001FF8
0003C0
ENDCHAR
STARTCHAR 00EF
ENCODING 239
SWIDTH 486 0
DWIDTH 27 0
BBX 22 37 3 -1
BITMAP
3C0F00
7E1F00
7E1F80
7E1F00
3C0F00
000000
000000
000000
000000
000000
FFF000
FFF000
FFF000
FFF000
01F000
01F000
01F000
01F000
01F000
01F000
01F000
01F000
01F000
01F000
01F000
01F000
01F000
01F000
00F000
00F000
00F800
00F800
00FFFC
007FFC
003FFC
001FF8
0003C0
ENDCHAR
STARTCHAR 00F0
ENCODING 240
SWIDTH 486 0
DWIDTH 27 0
BBX 22 39 3 0
BITMAP
006000
00F800
00FC00
007E3C
003FFC
001FFC
007FE0
03FF80
03FFC0
01E3C0
0103E0
0001E0
0001F0
0000F0
03FCF0
0FFEF0
1FFFF0
3FFFF8
3E03F8
7C00F8
7C00F8
7800F8
F800F8
F800F8
F800F8
F800F8
F800F8
F800F8
F800F8
F800F0
7801F0
7C01F0
7C03E0
3E07E0
3F8FC0
1FFF80
0FFF00
03FE00
00E000
ENDCHAR
STARTCHAR 00F1
ENCODING 241
SWIDTH 486 0
DWIDTH 27 0
BBX 20 36 4 1
BITMAP
078180
0FF780
1FFF80
3CFF00
183E00
000000
000000
000000
000000
000000
3FFE00
FFFF00
FFFFC0
FFFFC0
F807E0
F803E0
F801F0
F801F0
F801F0
F801F0
F801F0
F801F0
F801F0
F801F0
F801F0
F801F0
F801F0
F801F0
F801F0
F801F0
F801F0
F801F0
F801F0
F801F0
F801F0
F801F0
ENDCHAR
STARTCHAR 00F2
ENCODING 242
SWIDTH 486 0
DWIDTH 27 0
BBX 24 40 2 -1
BITMAP
002000
006000
00F000
00F800
007C00
003E00
001E00
000F00
000700
000200
000000
000000
000000
01FF00
03FFC0
0FFFE0
1FFFF0
1F81F8
3E00FC
7E007C
7C003E
7C003E
78003E
F8001E
F8001E
F8001F
F8001F
F8001F
F8001E
F8003E
7C003E
7C003E
7C007C
3E00FC
3F01F8
1FFFF8
0FFFF0
07FFE0
01FF80
001800
ENDCHAR
STARTCHAR 00F3
ENCODING 243
SWIDTH 486 0
DWIDTH 27 0
BBX 24 39 2 0
BITMAP
000600
000700
000F80
001F00
003E00
007C00
00F800
00F000
006000
000000
000000
000000
01FF00
03FFC0
0FFFE0
1FFFF0
1F81F8
3E00FC
7E007C
7C003E
7C003E
78003E
F8001E
F8001E
F8001F
F8001F
F8001F
F8001E
F8003E
7C003E
7C003E
7C007C
3E00FC
3F01F8
1FFFF8
0FFFF0
07FFE0
01FF80
001800
ENDCHAR
STARTCHAR 00F4
ENCODING 244
SWIDTH 486 0
DWIDTH 27 0
BBX 24 39 2 -1
BITMAP
001800
003800
007C00
00FE00
01FF00
01E780
03C3C0
0381C0
010080
000000
000000
000000
01FF00
03FFC0
0FFFE0
1FFFF0
1F81F8
3E00FC
7E007C
7C003E
7C003E
78003E
F8001E
F8001E
F8001F
F8001F
F8001F
F8001E
F8003E
7C003E
7C003E
7C007C
3E00FC
3F01F8
1FFFF8
0FFFF0
07FFE0
01FF80
001800
ENDCHAR
STARTCHAR 00F5
ENCODING 245
SWIDTH 486 0
DWIDTH 27 0
BBX 24 37 2 0
BITMAP
01E060
03FDE0
07FFE0
0F3FC0
060F80
000000
000000
000000
000000
000000
01FF00
03FFC0
0FFFE0
1FFFF0
1F81F8
3E00FC
7E007C
7C003E
7C003E
78003E
F8001E
F8001E
F8001F
F8001F
F8001F
F8001E
F8003E
7C003E
7C003E
7C007C
3E00FC
3F01F8
1FFFF8
0FFFF0
07FFE0
01FF80
001800
ENDCHAR
STARTCHAR 00F6
ENCODING 246
SWIDTH 486 0
DWIDTH 27 0
BBX 24 37 2 -1
BITMAP
0783E0
0FC3E0
0FC3F0
0FC3E0
0783E0
000000
000000
000000
000000
000000
01FF00
03FFC0
0FFFE0
1FFFF0
1F81F8
3E00FC
7E007C
7C003E
7C003E
78003E
F8001E
F8001E
F8001F
F8001F
F8001F
F8001E
F8003E
7C003E
7C003E
7C007C
3E00FC
3F01F8
1FFFF8
0FFFF0
07FFE0
01FF80
001800
ENDCHAR
STARTCHAR 00F7
ENCODING 247
SWIDTH 486 0
DWIDTH 27 0
BBX 22 25 3 2
BITMAP
007800
00FC00
00FC00
00FC00
00FC00
00F800
002000
000000
000000
000000
FFFFFC
FFFFFC
FFFFFC
FFFFFC
000000
000000
000000
000000
007000
00F800
00FC00
00FC00
00FC00
00FC00
007800
ENDCHAR
STARTCHAR 00F8
ENCODING 248
SWIDTH 486 0
DWIDTH 27 0
BBX 24 28 2 -1
BITMAP
00000C
01FF1E
03FFFE
0FFFFC
1FFFF8
1F81F8
3E01FC
7E01FC
7C03FE
7C07BE
780F9E
F80F1E
F81E1E
F83C1F
F87C1F
F8781F
F8F01E
79E03E
79E03E
7FC03E
7F807C
3F00FC
3F01F8
1FFFF8
3FFFF0
7FFFE0
79FF80
703800
ENDCHAR
STARTCHAR 00F9
ENCODING 249
SWIDTH 486 0
DWIDTH 27 0
BBX 20 39 4 0
BITMAP
018000
03C000
07C000
03E000
01F000
00F800
007C00
003C00
001800
000000
000000
000000
F001F0
F001F0
F001F0
F001F0
F001F0
F001F0
F001F0
F001F0
F001F0
F001F0
F001F0
F001F0
F001F0
F001F0
F001F0
F001F0
F001F0
F801F0
F801F0
F801F0
7C01F0
7E01F0
7FFFF0
3FFFF0
1FFFF0
07FFE0
006800
ENDCHAR
STARTCHAR 00FA
ENCODING 250
SWIDTH 486 0
DWIDTH 27 0
BBX 20 39 4 0
BITMAP
001800
001C00
003E00
007C00
00F800
01F000
03E000
03C000
018000
000000
000000
000000
F001F0
F001F0
F001F0
F001F0
F001F0
F001F0
F001F0
F001F0
F001F0
F001F0
F001F0
F001F0
F001F0
F001F0
F001F0
F001F0
F001F0
F801F0
F801F0
F801F0
7C01F0
7E01F0
7FFFF0
3FFFF0
1FFFF0
07FFE0
006800
ENDCHAR
STARTCHAR 00FB
ENCODING 251
SWIDTH 486 0
DWIDTH 27 0
BBX 20 39 4 -1
BITMAP
006000
00E000
01F000
03F800
07FC00
079E00
0F0F00
0E0700
040200
000000
000000
000000
F001F0
F001F0
F001F0
F001F0
F001F0
F001F0
F001F0
F001F0
F001F0
F001F0
F001F0
F001F0
F001F0
F001F0
F001F0
F001F0
F001F0
F801F0
F801F0
F801F0
7C01F0
7E01F0
7FFFF0
3FFFF0
1FFFF0
07FFE0
006800
ENDCHAR
STARTCHAR 00FC
ENCODING 252
SWIDTH 486 0
DWIDTH 27 0
BBX 20 37 4 -1
BITMAP
1E0F80
3F0F80
3F0FC0
3F0F80
1E0F80
000000
000000
000000
000000
000000
F001F0
F001F0
F001F0
F001F0
F001F0
F001F0
F001F0
F001F0
F001F0
F001F0
F001F0
F001F0
F001F0
F001F0
F001F0
F001F0
F001F0
F801F0
F801F0
F801F0
7C01F0
7E01F0
7FFFF0
3FFFF0
1FFFF0
07FFE0
006800
ENDCHAR
STARTCHAR 00FD
ENCODING 253
SWIDTH 486 0
DWIDTH 27 0
BBX 24 47 2 -8
BITMAP
000300
000780
000FC0
001F80
003E00
003C00
007800
007000
002000
000000
000000
000000
7C001F
7C003E
7C003E
3E003E
3E003E
3E007C
1E007C
1F007C
1F0078
0F00F8
0F80F8
0F80F0
0780F0
07C1F0
07C1F0
03E1E0
03E3E0
01E3E0
01F3C0
00F3C0
00FF80
007F80
007F80
003F00
003F00
001F00
001E00
003E00
003C00
007C00
00F800
7FF000
FFE000
FFC000
FF8000
ENDCHAR
STARTCHAR 00FE
ENCODING 254
SWIDTH 486 0
DWIDTH 27 0
BBX 22 47 4 -8
BITMAP
F80000
F80000
F80000
F80000
F80000
F80000
F80000
F80000
F80000
F80000
F80000
F80000
FBFE00
FFFF80
FFFFC0
FFFFE0
FC07E0
F803F0
F801F0
F800F8
F800F8
F800F8
F80078
F80078
F8007C
F8007C
F8007C
F80078
F800F8
F800F8
F800F8
F801F8
F801F0
FC03F0
FFFFE0
FFFFC0
FFFF80
FFFE00
F87000
F80000
F80000
F80000
F80000
F80000
F80000
F80000
F80000
ENDCHAR
STARTCHAR 00FF
ENCODING 255
SWIDTH 486 0
DWIDTH 27 0
BBX 24 45 2 -9
BITMAP
03C1F0
07E1F0
07E1F0
07E1F0
03C1F0
000000
000000
000000
000000
000000
7C001F
7C003E
7C003E
3E003E
3E003E
3E007C
1E007C
1F007C
1F0078
0F00F8
0F80F8
0F80F0
0780F0
07C1F0
07C1F0
03E1E0
03E3E0
01E3E0
01F3C0
00F3C0
00FF80
007F80
007F80
003F00
003F00
001F00
001E00
003E00
003C00
007C00
00F800
7FF000
FFE000
FFC000
FF8000
ENDCHAR
STARTCHAR 0100
ENCODING 256
SWIDTH 486 0
DWIDTH 27 0
BBX 26 43 1 0
BITMAP
03FFF000
03FFF000
03FFF000
03FFF000
00000000
00000000
00000000
00000000
00000000
003F0000
007F8000
007F8000
007F8000
00FFC000
00F3C000
00F3C000
01E3E000
01E1E000
01E1E000
03C1F000
03C0F000
03C0F000
0780F800
0780F800
07807800
0F807800
0F007C00
0F003C00
1F003C00
1E003E00
1FFFFE00
1FFFFE00
3FFFFE00
3FFFFF00
3C000F00
7C000F00
7C000F80
78000F80
78000F80
F8000780
F80007C0
F80007C0
F00007C0
ENDCHAR
STARTCHAR 0101
ENCODING 257
SWIDTH 486 0
DWIDTH 27 0
BBX 21 36 3 -1
BITMAP
0FFFC0
0FFFC0
0FFFC0
000000
000000
000000
000000
000000
000000
1FFF00
1FFFC0
1FFFE0
1FFFF0
0003F0
0001F8
0000F8
0000F8
0000F8
0000F8
003CF8
07FFF8
1FFFF8
3FFFF8
7F00F8
7C00F8
F800F8
F800F8
F800F8
F800F8
F800F8
7C00F8
7F81F8
3FFFF8
1FFFF8
07FFF8
003800
ENDCHAR
STARTCHAR 0102
ENCODING 258
SWIDTH 486 0
DWIDTH 27 0
BBX 26 45 1 0
BITMAP
0380F000
03C0E000
01C0E000
01F3E000
01FFC000
00FF8000
003F0000
00000000
00000000
00000000
00000000
003F0000
007F8000
007F8000
007F8000
00FFC000
00F3C000
00F3C000
01E3E000
01E1E000
01E1E000
03C1F000
03C0F000
03C0F000
0780F800
0780F800
07807800
0F807800
0F007C00
0F003C00
1F003C00
1E003E00
1FFFFE00
1FFFFE00
3FFFFE00
3FFFFF00
3C000F00
7C000F00
7C000F80
78000F80
78000F80
F8000780
F80007C0
F80007C0
F00007C0
ENDCHAR
STARTCHAR 0103
ENCODING 259
SWIDTH 486 0
DWIDTH 27 0
BBX 21 38 3 -1
BITMAP
0E03C0
0F0380
070780
07FF80
03FF00
01FE00
003000
000000
000000
000000
000000
1FFF00
1FFFC0
1FFFE0
1FFFF0
0003F0
0001F8
0000F8
0000F8
0000F8
0000F8
003CF8
07FFF8
1FFFF8
3FFFF8
7F00F8
7C00F8
F800F8
F800F8
F800F8
F800F8
F800F8
7C00F8
7F81F8
3FFFF8
1FFFF8
07FFF8
003800
ENDCHAR
STARTCHAR 0104
ENCODING 260
SWIDTH 486 0
DWIDTH 27 0
BBX 27 43 1 -9
BITMAP
003F0000
007F8000
007F8000
007F8000
00FFC000
00F3C000
00F3C000
01E3E000
01E1E000
01E1E000
03C1F000
03C0F000
03C0F000
0780F800
0780F800
07807800
0F807800
0F007C00
0F003C00
1F003C00
1E003E00
1FFFFE00
1FFFFE00
3FFFFE00
3FFFFF00
3C000F00
7C000F00
7C000F80
78000F80
78000F80
F8000780
F80007C0
F80007C0
F00007C0
00000780
00000F00
00001E00
00001C00
00003C00
00003E00
00003FC0
00003FC0
00001FE0
ENDCHAR
STARTCHAR 0105
ENCODING 261
SWIDTH 486 0
DWIDTH 27 0
BBX 21 35 3 -9
BITMAP
1FFF00
1FFFC0
1FFFE0
1FFFF0
0003F0
0001F8
0000F8
0000F8
0000F8
0000F8
003CF8
07FFF8
1FFFF8
3FFFF8
7F00F8
7C00F8
F800F8
F800F8
F800F8
F800F8
F800F8
7C00F8
7F81F8
3FFFF8
1FFFF8
07FFF8
003DF0
0003E0
0003C0
000780
000F80
000F80
000FF8
0007F8
0003F8
ENDCHAR
STARTCHAR 0106
ENCODING 262
SWIDTH 486 0
DWIDTH 27 0
BBX 23 47 3 -1
BITMAP
000100
000380
0003C0
0007C0
000F80
001F00
003E00
007C00
001800
000000
000000
003FC0
01FFF8
03FFFC
07FFFC
0FE03C
1F8008
3F0000
3E0000
7C0000
7C0000
780000
F80000
F80000
F80000
F00000
F00000
F00000
F00000
F00000
F00000
F00000
F00000
F80000
F80000
F80000
780000
7C0000
7E0000
3E0000
3F0000
1FC00C
0FF8FC
07FFFC
03FFFE
00FFF8
001F80
ENDCHAR
STARTCHAR 0107
ENCODING 263
SWIDTH 486 0
DWIDTH 27 0
BBX 22 39 3 0
BITMAP
000300
000380
0007C0
000F80
001F00
003E00
007C00
007800
003000
000000
000000
000000
00FFF8
03FFF8
0FFFF8
1FFFF8
3FC008
3F0000
7E0000
7C0000
F80000
F80000
F80000
F80000
F00000
F00000
F00000
F80000
F80000
F80000
7C0000
7C0000
7E0000
3F8000
1FFFFC
0FFFFC
07FFFC
01FFF8
001E00
ENDCHAR
STARTCHAR 0108
ENCODING 264
SWIDTH 486 0
DWIDTH 27 0
BBX 23 47 3 -1
BITMAP
000400
000600
000F00
001F80
003FC0
007BE0
00F1F0
01E070
00C030
000000
000000
003FC0
01FFF8
03FFFC
07FFFC
0FE03C
1F8008
3F0000
3E0000
7C0000
7C0000
780000
F80000
F80000
F80000
F00000
F00000
F00000
F00000
F00000
F00000
F00000
F00000
F80000
F80000
F80000
780000
7C0000
7E0000
3E0000
3F0000
1FC00C
0FF8FC
07FFFC
03FFFE
00FFF8
001F80
ENDCHAR
STARTCHAR 0109
ENCODING 265
SWIDTH 486 0
DWIDTH 27 0
BBX 22 39 3 -1
BITMAP
000400
000E00
001F00
003F80
007FC0
00FBE0
01F0F0
01E070
00C020
000000
000000
000000
00FFF8
03FFF8
0FFFF8
1FFFF8
3FC008
3F0000
7E0000
7C0000
F80000
F80000
F80000
F80000
F00000
F00000
F00000
F80000
F80000
F80000
7C0000
7C0000
7E0000
3F8000
1FFFFC
0FFFFC
07FFFC
01FFF8
001E00
ENDCHAR
STARTCHAR 010A
ENCODING 266
SWIDTH 486 0
DWIDTH 27 0
BBX 23 45 3 0
BITMAP
001F00
001F80
001F80
001F80
001F80
000F00
000000
000000
000000
003FC0
01FFF8
03FFFC
07FFFC
0FE03C
1F8008
3F0000
3E0000
7C0000
7C0000
780000
F80000
F80000
F80000
F00000
F00000
F00000
F00000
F00000
F00000
F00000
F00000
F80000
F80000
F80000
780000
7C0000
7E0000
3E0000
3F0000
1FC00C
0FF8FC
07FFFC
03FFFE
00FFF8
001F80
ENDCHAR
STARTCHAR 010B
ENCODING 267
SWIDTH 486 0
DWIDTH 27 0
BBX 22 38 3 -1
BITMAP
000E00
001F80
001F80
001F80
001F80
001F80
000E00
000000
000000
000000
000000
00FFF8
03FFF8
0FFFF8
1FFFF8
3FC008
3F0000
7E0000
7C0000
F80000
F80000
F80000
F80000
F00000
F00000
F00000
F80000
F80000
F80000
7C0000
7C0000
7E0000
3F8000
1FFFFC
0FFFFC
07FFFC
01FFF8
001E00
ENDCHAR
STARTCHAR 010C
ENCODING 268
SWIDTH 486 0
DWIDTH 27 0
BBX 23 47 3 -1
BITMAP
004020
00E070
00F0F0
00F9E0
007FC0
003F80
001F00
000F00
000600
000000
000000
003FC0
01FFF8
03FFFC
07FFFC
0FE03C
1F8008
3F0000
3E0000
7C0000
7C0000
780000
F80000
F80000
F80000
F00000
F00000
F00000
F00000
F00000
F00000
F00000
F00000
F80000
F80000
F80000
780000
7C0000
7E0000
3E0000
3F0000
1FC00C
0FF8FC
07FFFC
03FFFE
00FFF8
001F80
ENDCHAR
STARTCHAR 010D
ENCODING 269
SWIDTH 486 0
DWIDTH 27 0
BBX 22 39 3 -1
BITMAP
00C020
01E0F0
00F1F0
007BE0
007FC0
003F80
001F00
000E00
000400
000000
000000
000000
00FFF8
03FFF8
0FFFF8
1FFFF8
3FC008
3F0000
7E0000
7C0000
F80000
F80000
F80000
F80000
F00000
F00000
F00000
F80000
F80000
F80000
7C0000
7C0000
7E0000
3F8000
1FFFFC
0FFFFC
07FFFC
01FFF8
001E00
ENDCHAR
STARTCHAR 010E
ENCODING 270
SWIDTH 486 0
DWIDTH 27 0
BBX 23 46 3 0
BITMAP
080400
1C0E00
1E1E00
0F3C00
07F800
07F000
03F000
01E000
00C000
000000
000000
1FC000
FFFC00
FFFF00
FFFF80
F83FC0
F807E0
F803F0
F801F0
F800F8
F800F8
F8007C
F8007C
F8007C
F8003C
F8003C
F8003C
F8003E
F8003E
F8003E
F8003E
F8003C
F8003C
F8007C
F8007C
F8007C
F80078
F800F8
F800F8
F801F0
F803F0
F80FE0
FFFFC0
FFFF80
FFFE00
FFF800
ENDCHAR
STARTCHAR 010F
ENCODING 271
SWIDTH 486 0
DWIDTH 27 0
BBX 27 40 1 -1
BITMAP
000003E0
0001E3E0
0001E3E0
0001E3C0
0001E3C0
0001E3C0
0001E3C0
0001E3C0
0001E3C0
0001E3C0
0001E3C0
0001E380
0001E000
03FDE000
0FFFE000
1FFFE000
1FFFE000
3F07E000
7E03E000
7C01E000
7C01E000
7801E000
F801E000
F801E000
F801E000
F801E000
F801E000
F801E000
F801E000
F801E000
7801E000
7C01E000
7C01E000
3E01E000
3F01E000
1FFFE000
1FFFE000
07FFE000
03FFE000
00300000
ENDCHAR
STARTCHAR 0110
ENCODING 272
SWIDTH 486 0
DWIDTH 27 0
BBX 25 35 1 0
BITMAP
03F80000
1FFF0000
1FFFC000
1FFFE000
1F0FF800
1F01F800
1F00FC00
1F007C00
1F003E00
1F001E00
1F001F00
1F001F00
1F001F00
1F000F00
1F000F00
FFF80F00
FFF80F80
FFF80F80
FFF80F80
1F000F80
1F000F00
1F000F00
1F000F00
1F001F00
1F001F00
1F001F00
1F003E00
1F003E00
1F007C00
1F00FC00
1F03F800
1FFFF000
1FFFE000
1FFFC000
1FFE0000
ENDCHAR
STARTCHAR 0111
ENCODING 273
SWIDTH 486 0
DWIDTH 27 0
BBX 25 39 2 0
BITMAP
0000F800
0000F800
0000F800
0000F800
01FFFF80
01FFFF80
01FFFF80
01FFFF80
0000F800
0000F800
0000F800
0000F800
01FEF800
07FFF800
0FFFF800
1FFFF800
3F01F800
3E00F800
7C00F800
7C00F800
7C00F800
F800F800
F800F800
F800F800
F800F800
F800F800
F800F800
F800F800
F800F800
7C00F800
7C00F800
7E00F800
3E00F800
3F80F800
1FFFF800
0FFFF800
07FFF800
01FFF000
00180000
ENDCHAR
STARTCHAR 0112
ENCODING 274
SWIDTH 486 0
DWIDTH 27 0
BBX 21 43 5 0
BITMAP
1FFF80
1FFF80
1FFF80
1FFF80
000000
000000
000000
000000
000000
FFFFE0
FFFFE0
FFFFE0
FFFFE0
F80000
F80000
F80000
F80000
F80000
F80000
F80000
F80000
F80000
F80000
FFFFC0
FFFFC0
FFFFC0
FFFFC0
F80000
F80000
F80000
F80000
F80000
F80000
F80000
F80000
F80000
F80000
F80000
F80000
FFFFF8
FFFFF8
FFFFF8
FFFFF8
ENDCHAR
STARTCHAR 0113
ENCODING 275
SWIDTH 486 0
DWIDTH 27 0
BBX 23 36 2 -1
BITMAP
07FFE0
07FFE0
07FFE0
000000
000000
000000
000000
000000
000000
00FF80
03FFE0
07FFF0
1FFFF8
1F80FC
3E007C
3E003C
7C003E
78003E
78001E
F8001E
FFFFFE
FFFFFE
FFFFFE
F80000
F80000
780000
780000
7C0000
7E0000
3F0000
1F8008
1FFFF8
0FFFF8
03FFF8
01FFF8
000F00
ENDCHAR
STARTCHAR 0114
ENCODING 276
SWIDTH 486 0
DWIDTH 27 0
BBX 21 45 5 0
BITMAP
1C0780
1E0700
0E0700
0F9F00
0FFE00
07FC00
01F800
000000
000000
000000
000000
FFFFE0
FFFFE0
FFFFE0
FFFFE0
F80000
F80000
F80000
F80000
F80000
F80000
F80000
F80000
F80000
F80000
FFFFC0
FFFFC0
FFFFC0
FFFFC0
F80000
F80000
F80000
F80000
F80000
F80000
F80000
F80000
F80000
F80000
F80000
F80000
FFFFF8
FFFFF8
FFFFF8
FFFFF8
ENDCHAR
STARTCHAR 0115
ENCODING 277
SWIDTH 486 0
DWIDTH 27 0
BBX 23 38 2 -1
BITMAP
0380E0
0380E0
03C1E0
01FFC0
01FFC0
00FF00
003C00
000000
000000
000000
000000
00FF80
03FFE0
07FFF0
1FFFF8
1F80FC
3E007C
3E003C
7C003E
78003E
78001E
F8001E
FFFFFE
FFFFFE
FFFFFE
F80000
F80000
780000
780000
7C0000
7E0000
3F0000
1F8008
1FFFF8
0FFFF8
03FFF8
01FFF8
000F00
ENDCHAR
STARTCHAR 0116
ENCODING 278
SWIDTH 486 0
DWIDTH 27 0
BBX 21 45 5 0
BITMAP
004000
00F800
01F800
01F800
01F800
01F800
00F000
000000
000000
000000
000000
FFFFE0
FFFFE0
FFFFE0
FFFFE0
F80000
F80000
F80000
F80000
F80000
F80000
F80000
F80000
F80000
F80000
FFFFC0
FFFFC0
FFFFC0
FFFFC0
F80000
F80000
F80000
F80000
F80000
F80000
F80000
F80000
F80000
F80000
F80000
F80000
FFFFF8
FFFFF8
FFFFF8
FFFFF8
ENDCHAR
STARTCHAR 0117
ENCODING 279
SWIDTH 486 0
DWIDTH 27 0
BBX 23 38 2 -1
BITMAP
001C00
003E00
007F00
007F00
007F00
003E00
001C00
000000
000000
000000
000000
00FF80
03FFE0
07FFF0
1FFFF8
1F80FC
3E007C
3E003C
7C003E
78003E
78001E
F8001E
FFFFFE
FFFFFE
FFFFFE
F80000
F80000
780000
780000
7C0000
7E0000
3F0000
1F8008
1FFFF8
0FFFF8
03FFF8
01FFF8
000F00
ENDCHAR
STARTCHAR 0118
ENCODING 280
SWIDTH 486 0
DWIDTH 27 0
BBX 21 43 5 -9
BITMAP
FFFFE0
FFFFE0
FFFFE0
FFFFE0
F80000
F80000
F80000
F80000
F80000
F80000
F80000
F80000
F80000
F80000
FFFFC0
FFFFC0
FFFFC0
FFFFC0
F80000
F80000
F80000
F80000
F80000
F80000
F80000
F80000
F80000
F80000
F80000
F80000
FFFFF8
FFFFF8
FFFFF8
FFFFF8
0001F0
0003C0
000780
000780
000F00
000F80
000FF0
0007F8
0003F8
ENDCHAR
STARTCHAR 0119
ENCODING 281
SWIDTH 486 0
DWIDTH 27 0
BBX 23 35 2 -9
BITMAP
00FF80
03FFE0
07FFF0
1FFFF8
1F80FC
3E007C
3E003C
7C003E
78003E
78001E
F8001E
FFFFFE
FFFFFE
FFFFFE
F80000
F80000
780000
780000
7C0000
7E0000
3F0000
1F8008
1FFFF8
0FFFF8
03FFF8
01FFF8
000FF0
0003E0
0007C0
000780
000F80
000F80
000FF8
0007F8
0003F8
ENDCHAR
STARTCHAR 011A
ENCODING 282
SWIDTH 486 0
DWIDTH 27 0
BBX 21 46 5 0
BITMAP
040100
0E0780
0F0F80
07DF00
03FE00
01FC00
00F800
007000
002000
000000
000000
000000
FFFFE0
FFFFE0
FFFFE0
FFFFE0
F80000
F80000
F80000
F80000
F80000
F80000
F80000
F80000
F80000
F80000
FFFFC0
FFFFC0
FFFFC0
FFFFC0
F80000
F80000
F80000
F80000
F80000
F80000
F80000
F80000
F80000
F80000
F80000
F80000
FFFFF8
FFFFF8
FFFFF8
FFFFF8
ENDCHAR
STARTCHAR 011B
ENCODING 283
SWIDTH 486 0
DWIDTH 27 0
BBX 23 39 2 -1
BITMAP
0180C0
03C1E0
03E3C0
01F7C0
00FF80
007F00
003E00
001C00
000800
000000
000000
000000
00FF80
03FFE0
07FFF0
1FFFF8
1F80FC
3E007C
3E003C
7C003E
78003E
78001E
F8001E
FFFFFE
FFFFFE
FFFFFE
F80000
F80000
780000
780000
7C0000
7E0000
3F0000
1F8008
1FFFF8
0FFFF8
03FFF8
01FFF8
000F00
ENDCHAR
STARTCHAR 011C
ENCODING 284
SWIDTH 486 0
DWIDTH 27 0
BBX 22 47 3 -1
BITMAP
000400
000E00
001F00
003F80
007FC0
00FBE0
01F1E0
01E0F0
00C060
000000
000000
007FE0
01FFF8
03FFFC
07FFFC
0FE038
1F8008
3F0000
3E0000
7C0000
7C0000
780000
F80000
F80000
F80000
F00000
F00000
F00000
F00000
F0003C
F0003C
F0003C
F0003C
F8003C
F8003C
F8003C
7C003C
7C003C
7C003C
3E003C
3F003C
1F803C
0FF0FC
07FFFC
03FFFC
00FFF8
001F80
ENDCHAR
STARTCHAR 011D
ENCODING 285
SWIDTH 486 0
DWIDTH 27 0
BBX 22 47 2 -9
BITMAP
001800
003800
007C00
00FE00
01FF00
01E780
03C3C0
0381C0
010080
000000
000000
000000
01FFF0
07FFFC
0FFFFC
1FFFFC
3F807C
3E007C
7E007C
7C007C
7C007C
F8007C
F8007C
F8007C
F8007C
F8007C
F8007C
F8007C
7C007C
7C007C
7C007C
3E007C
3F81FC
1FFFFC
0FFFFC
07FFFC
01FE7C
00007C
00007C
00007C
0000F8
0000F8
3003F0
3FFFF0
3FFFE0
3FFFC0
1FFE00
ENDCHAR
STARTCHAR 011E
ENCODING 286
SWIDTH 486 0
DWIDTH 27 0
BBX 22 46 3 -1
BITMAP
01C078
01E070
00E070
00F9F0
00FFE0
007FC0
001F80
000000
000000
000000
007FE0
01FFF8
03FFFC
07FFFC
0FE038
1F8008
3F0000
3E0000
7C0000
7C0000
780000
F80000
F80000
F80000
F00000
F00000
F00000
F00000
F0003C
F0003C
F0003C
F0003C
F8003C
F8003C
F8003C
7C003C
7C003C
7C003C
3E003C
3F003C
1F803C
0FF0FC
07FFFC
03FFFC
00FFF8
001F80
ENDCHAR
STARTCHAR 011F
ENCODING 287
SWIDTH 486 0
DWIDTH 27 0
BBX 22 46 2 -9
BITMAP
0701E0
0781C0
0383C0
03FFC0
01FF80
00FF00
001800
000000
000000
000000
000000
01FFF0
07FFFC
0FFFFC
1FFFFC
3F807C
3E007C
7E007C
7C007C
7C007C
F8007C
F8007C
F8007C
F8007C
F8007C
F8007C
F8007C
7C007C
7C007C
7C007C
3E007C
3F81FC
1FFFFC
0FFFFC
07FFFC
01FE7C
00007C
00007C
00007C
0000F8
0000F8
3003F0
3FFFF0
3FFFE0
3FFFC0
1FFE00
ENDCHAR
STARTCHAR 0120
ENCODING 288
SWIDTH 486 0
DWIDTH 27 0
BBX 22 46 3 -1
BITMAP
000400
001F00
003F00
003F80
003F80
003F00
001E00
000000
000000
000000
007FE0
01FFF8
03FFFC
07FFFC
0FE038
1F8008
3F0000
3E0000
7C0000
7C0000
780000
F80000
F80000
F80000
F00000
F00000
F00000
F00000
F0003C
F0003C
F0003C
F0003C
F8003C
F8003C
F8003C
7C003C
7C003C
7C003C
3E003C
3F003C
1F803C
0FF0FC
07FFFC
03FFFC
00FFF8
001F80
ENDCHAR
STARTCHAR 0121
ENCODING 289
SWIDTH 486 0
DWIDTH 27 0
BBX 22 46 2 -9
BITMAP
003800
007E00
007E00
007E00
007E00
007E00
003800
000000
000000
000000
000000
01FFF0
07FFFC
0FFFFC
1FFFFC
3F807C
3E007C
7E007C
7C007C
7C007C
F8007C
F8007C
F8007C
F8007C
F8007C
F8007C
F8007C
7C007C
7C007C
7C007C
3E007C
3F81FC
1FFFFC
0FFFFC
07FFFC
01FE7C
00007C
00007C
00007C
0000F8
0000F8
3003F0
3FFFF0
3FFFE0
3FFFC0
1FFE00
ENDCHAR
STARTCHAR 0122
ENCODING 290
SWIDTH 486 0
DWIDTH 27 0
BBX 22 44 3 -9
BITMAP
007FE0
01FFF8
03FFFC
07FFFC
0FE038
1F8008
3F0000
3E0000
7C0000
7C0000
780000
F80000
F80000
F80000
F00000
F00000
F00000
F00000
F0003C
F0003C
F0003C
F0003C
F8003C
F8003C
F8003C
7C003C
7C003C
7C003C
3E003C
3F003C
1F803C
0FF0FC
07FFFC
03FFFC
00FFF8
001F80
000000
001F00
001F00
001F00
001F00
01FE00
01FE00
01FC00
ENDCHAR
STARTCHAR 0123
ENCODING 291
SWIDTH 486 0
DWIDTH 27 0
BBX 22 48 2 -9
BITMAP
000200
000F00
001F80
001F00
003E00
003C00
003C00
007C00
007C00
000000
000000
000000
000000
01FFF0
07FFFC
0FFFFC
1FFFFC
3F807C
3E007C
7E007C
7C007C
7C007C
F8007C
F8007C
F8007C
F8007C
F8007C
F8007C
F8007C
7C007C
7C007C
7C007C
3E007C
3F81FC
1FFFFC
0FFFFC
07FFFC
01FE7C
00007C
00007C
00007C
0000F8
0000F8
3003F0
3FFFF0
3FFFE0
3FFFC0
1FFE00
ENDCHAR
STARTCHAR 0124
ENCODING 292
SWIDTH 486 0
DWIDTH 27 0
BBX 23 46 2 0
BITMAP
001000
001800
003C00
007E00
00FF00
01EF80
03C7C0
0781C0
0300C0
000000
000000
000000
F8001E
F8001E
F8001E
F8001E
F8001E
F8001E
F8001E
F8001E
F8001E
F8001E
F8001E
F8001E
F8001E
F8001E
FFFFFE
FFFFFE
FFFFFE
FFFFFE
F8001E
F8001E
F8001E
F8001E
F8001E
F8001E
F8001E
F8001E
F8001E
F8001E
F8001E
F8001E
F8001E
F8001E
F8001E
F8001E
ENDCHAR
STARTCHAR 0125
ENCODING 293
SWIDTH 486 0
DWIDTH 27 0
BBX 21 46 3 0
BITMAP
040000
1F0000
3F8000
7FC000
F1F000
E0E000
000000
000000
1C0000
7C0000
7C0000
7C0000
7C0000
7C0000
7C0000
7C0000
7C0000
7C0000
7C0000
7C0000
7FFF00
7FFF80
7FFFC0
7FFFE0
7C03F0
7C01F0
7C00F0
7C00F8
7C00F8
7C00F8
7C00F8
7C00F8
7C00F8
7C00F8
7C00F8
7C00F8
7C00F8
7C00F8
7C00F8
7C00F8
7C00F8
7C00F8
7C00F8
7C00F8
7C00F8
7C00F8
ENDCHAR
STARTCHAR 0126
ENCODING 294
SWIDTH 486 0
DWIDTH 27 0
BBX 26 34 1 0
BITMAP
1F003E00
1F003E00
1F003E00
1F003E00
1F003E00
FFFFFFC0
FFFFFFC0
FFFFFFC0
1F003E00
1F003E00
1F003E00
1F003E00
1F003E00
1F003E00
1FFFFE00
1FFFFE00
1FFFFE00
1FFFFE00
1F003E00
1F003E00
1F003E00
1F003E00
1F003E00
1F003E00
1F003E00
1F003E00
1F003E00
1F003E00
1F003E00
1F003E00
1F003E00
1F003E00
1F003E00
1F003E00
ENDCHAR
STARTCHAR 0127
ENCODING 295
SWIDTH 486 0
DWIDTH 27 0
BBX 23 38 1 1
BITMAP
0F0000
0F0000
0F0000
0F0000
FFFF80
FFFF80
FFFF80
FFFF80
0F0000
0F0000
0F0000
0F0000
0F7FC0
0FFFF0
0FFFF8
0FFFF8
0F80FC
0F007C
0F003C
0F003E
0F003E
0F003E
0F003E
0F003E
0F003E
0F003E
0F003E
0F003E
0F003E
0F003E
0F003E
0F003E
0F003E
0F003E
0F003E
0F003E
0F003E
0F003E
ENDCHAR
STARTCHAR 0128
ENCODING 296
SWIDTH 486 0
DWIDTH 27 0
BBX 18 44 5 0
BITMAP
070300
1FC700
3FFF00
3FFE00
707C00
100000
000000
000000
000000
000000
FFFFC0
FFFFC0
FFFFC0
FFFFC0
01E000
01E000
01E000
01E000
01E000
01E000
01E000
01E000
01E000
01E000
01E000
01E000
01E000
01E000
01E000
01E000
01E000
01E000
01E000
01E000
01E000
01E000
01E000
01E000
01E000
01E000
FFFFC0
FFFFC0
FFFFC0
FFFFC0
ENDCHAR
STARTCHAR 0129
ENCODING 297
SWIDTH 486 0
DWIDTH 27 0
BBX 22 37 3 0
BITMAP
0F0300
1FE700
3FFF00
39FE00
307C00
000000
000000
000000
000000
000000
FFF000
FFF000
FFF000
FFF000
01F000
01F000
01F000
01F000
01F000
01F000
01F000
01F000
01F000
01F000
01F000
01F000
01F000
01F000
00F000
00F000
00F800
00F800
00FFFC
007FFC
003FFC
001FF8
0003C0
ENDCHAR
STARTCHAR 012A
ENCODING 298
SWIDTH 486 0
DWIDTH 27 0
BBX 18 43 5 0
BITMAP
3FFF00
3FFF00
3FFF00
3FFF00
000000
000000
000000
000000
000000
FFFFC0
FFFFC0
FFFFC0
FFFFC0
01E000
01E000
01E000
01E000
01E000
01E000
01E000
01E000
01E000
01E000
01E000
01E000
01E000
01E000
01E000
01E000
01E000
01E000
01E000
01E000
01E000
01E000
01E000
01E000
01E000
01E000
FFFFC0
FFFFC0
FFFFC0
FFFFC0
ENDCHAR
STARTCHAR 012B
ENCODING 299
SWIDTH 486 0
DWIDTH 27 0
BBX 22 36 3 -1
BITMAP
3FFF00
3FFF00
3FFF00
000000
000000
000000
000000
000000
000000
FFF000
FFF000
FFF000
FFF000
01F000
01F000
01F000
01F000
01F000
01F000
01F000
01F000
01F000
01F000
01F000
01F000
01F000
01F000
00F000
00F000
00F800
00F800
00FFFC
007FFC
003FFC
001FF8
0003C0
ENDCHAR
STARTCHAR 012C
ENCODING 300
SWIDTH 486 0
DWIDTH 27 0
BBX 18 45 5 0
BITMAP
380F00
3C0E00
1C0E00
1F3E00
1FFC00
0FF800
03F000
000000
000000
000000
000000
FFFFC0
FFFFC0
FFFFC0
FFFFC0
01E000
01E000
01E000
01E000
01E000
01E000
01E000
01E000
01E000
01E000
01E000
01E000
01E000
01E000
01E000
01E000
01E000
01E000
01E000
01E000
01E000
01E000
01E000
01E000
01E000
01E000
FFFFC0
FFFFC0
FFFFC0
FFFFC0
ENDCHAR
STARTCHAR 012D
ENCODING 301
SWIDTH 486 0
DWIDTH 27 0
BBX 22 38 3 -1
BITMAP
380F00
3C0E00
1C1E00
1FFE00
0FFC00
07F800
00C000
000000
000000
000000
000000
FFF000
FFF000
FFF000
FFF000
01F000
01F000
01F000
01F000
01F000
01F000
01F000
01F000
01F000
01F000
01F000
01F000
01F000
01F000
00F000
00F000
00F800
00F800
00FFFC
007FFC
003FFC
001FF8
0003C0
ENDCHAR
STARTCHAR 012E
ENCODING 302
SWIDTH 486 0
DWIDTH 27 0
BBX 18 43 5 -9
BITMAP
FFFFC0
FFFFC0
FFFFC0
FFFFC0
01E000
01E000
01E000
01E000
01E000
01E000
01E000
01E000
01E000
01E000
01E000
01E000
01E000
01E000
01E000
01E000
01E000
01E000
01E000
01E000
01E000
01E000
01E000
01E000
01E000
01E000
FFFFC0
FFFFC0
FFFFC0
FFFFC0
03E000
078000
0F8000
0F0000
1E0000
1F0000
1FF000
0FF000
07F000
ENDCHAR
STARTCHAR 012F
ENCODING 303
SWIDTH 486 0
DWIDTH 27 0
BBX 22 46 3 -9
BITMAP
03E000
03F000
07F000
07F000
07F000
03F000
03E000
000000
000000
000000
000000
FFF000
FFF000
FFF000
FFF000
01F000
01F000
01F000
01F000
01F000
01F000
01F000
01F000
01F000
01F000
01F000
01F000
01F000
01F000
00F000
00F000
00F800
00F800
00FFFC
007FFC
003FFC
001FFC
0003F0
0001E0
0003C0
000780
000780
000780
0007F8
0007F8
0003F8
ENDCHAR
STARTCHAR 0130
ENCODING 304
SWIDTH 486 0
DWIDTH 27 0
BBX 18 44 5 1
BITMAP
03E000
03F000
03F000
03F000
03F000
01E000
000000
000000
000000
000000
FFFFC0
FFFFC0
FFFFC0
FFFFC0
01E000
01E000
01E000
01E000
01E000
01E000
01E000
01E000
01E000
01E000
01E000
01E000
01E000
01E000
01E000
01E000
01E000
01E000
01E000
01E000
01E000
01E000
01E000
01E000
01E000
01E000
FFFFC0
FFFFC0
FFFFC0
FFFFC0
ENDCHAR
STARTCHAR 0131
ENCODING 305
SWIDTH 486 0
DWIDTH 27 0
BBX 22 27 3 -1
BITMAP
FFF000
FFF000
FFF000
FFF000
01F000
01F000
01F000
01F000
01F000
01F000
01F000
01F000
01F000
01F000
01F000
01F000
01F000
01F000
00F000
00F000
00F800
00F800
00FFFC
007FFC
003FFC
001FF8
0003C0
ENDCHAR
STARTCHAR 0132
ENCODING 306
SWIDTH 486 0
DWIDTH 27 0
BBX 24 35 2 -1
BITMAP
F8000F
F8000F
F8000F
F8000F
F8000F
F8000F
F8000F
F8000F
F8000F
F8000F
F8000F
F8000F
F8000F
F8000F
F8000F
F8000F
F8000F
F8000F
F8000F
F8000F
F8000F
F8000F
F8000F
F8000F
F8000F
F8001F
F8001F
F8001F
F8001F
F8603E
F8787E
F8FFFC
F8FFFC
F83FF0
000780
ENDCHAR
STARTCHAR 0133
ENCODING 307
SWIDTH 486 0
DWIDTH 27 0
BBX 18 46 5 -9
BITMAP
380700
7C0F80
FC1FC0
FE1FC0
FC1FC0
FC0F80
380700
000000
000000
000000
000000
7C0F80
7C0F80
7C0F80
7C0F80
7C0F80
7C0F80
7C0F80
7C0F80
7C0F80
7C0F80
7C0F80
7C0F80
7C0F80
7C0F80
7C0F80
7C0F80
7C0F80
7C0F80
7C0F80
7C0F80
7C0F80
7C0F80
7C0F80
7C0F80
7C0F80
7C0F80
000F80
000F80
000F80
001F00
001F00
07FF00
07FE00
07FC00
07F000
ENDCHAR
STARTCHAR 0134
ENCODING 308
SWIDTH 486 0
DWIDTH 27 0
BBX 20 47 3 -1
BITMAP
000400
000E00
001F00
003F80
007FC0
007BE0
00F1F0
01E0F0
00C060
000000
000000
000000
0FFFF0
0FFFF0
0FFFF0
0FFFF0
0000F0
0000F0
0000F0
0000F0
0000F0
0000F0
0000F0
0000F0
0000F0
0000F0
0000F0
0000F0
0000F0
0000F0
0000F0
0000F0
0000F0
0000F0
0000F0
0000F0
0000F0
0000F0
0001F0
0001F0
0003F0
7007E0
7C1FE0
FFFFC0
7FFF80
1FFE00
03F000
ENDCHAR
STARTCHAR 0135
ENCODING 309
SWIDTH 486 0
DWIDTH 27 0
BBX 17 47 4 -9
BITMAP
003000
007800
00FC00
00FC00
01FE00
03CF00
078780
070380
020100
000000
000000
000000
3FFF80
3FFF80
3FFF80
3FFF80
000780
000780
000780
000780
000780
000780
000780
000780
000780
000780
000780
000780
000780
000780
000780
000780
000780
000780
000780
000780
000780
000780
000780
000780
000F80
000F80
601F00
7FFF00
FFFE00
FFFC00
3FF800
ENDCHAR
STARTCHAR 0136
ENCODING 310
SWIDTH 486 0
DWIDTH 27 0
BBX 23 43 4 -9
BITMAP
F000F8
F001F8
F001F0
F003E0
F007E0
F00FC0
F00F80
F01F00
F03E00
F07E00
F0FC00
F1F800
F3F000
F7E000
F7C000
FF8000
FFC000
FFE000
F7F000
F1F800
F0FC00
F07E00
F03F00
F01F80
F00FC0
F007C0
F007E0
F003F0
F001F0
F001F8
F000FC
F0007C
F0007E
F0003E
000000
000000
00F800
00F800
00F800
00F800
07F000
07F000
07E000
ENDCHAR
STARTCHAR 0137
ENCODING 311
SWIDTH 486 0
DWIDTH 27 0
BBX 22 47 4 -8
BITMAP
F80000
F80000
F80000
F80000
F80000
F80000
F80000
F80000
F80000
F80000
F80000
F80000
F800F8
F801F0
F803E0
F807E0
F80FC0
F81F00
F83E00
F87C00
F9F800
FBF000
FFE000
FFC000
FFC000
FFE000
FBF000
F9FC00
F8FE00
F83F00
F81F80
F80F80
F807C0
F803E0
F801F0
F801F8
F800FC
F8007C
000000
000000
00F800
00F800
00F800
00F800
07F000
07F000
07E000
ENDCHAR
STARTCHAR 0138
ENCODING 312
SWIDTH 486 0
DWIDTH 27 0
BBX 22 26 4 0
BITMAP
F800F8
F801F0
F803E0
F807E0
F80FC0
F81F00
F83E00
F87C00
F9F800
FBF000
FFE000
FFC000
FFC000
FFE000
FBF000
F9FC00
F8FE00
F83F00
F81F80
F80F80
F807C0
F803E0
F801F0
F801F8
F800FC
F8007C
ENDCHAR
STARTCHAR 0139
ENCODING 313
SWIDTH 486 0
DWIDTH 27 0
BBX 21 46 5 0
BITMAP
010000
038000
07C000
0FC000
0F8000
1F0000
3E0000
7C0000
380000
000000
000000
000000
F80000
F80000
F80000
F80000
F80000
F80000
F80000
F80000
F80000
F80000
F80000
F80000
F80000
F80000
F80000
F80000
F80000
F80000
F80000
F80000
F80000
F80000
F80000
F80000
F80000
F80000
F80000
F80000
F80000
F80000
FFFFF8
FFFFF8
FFFFF8
FFFFF8
ENDCHAR
STARTCHAR 013A
ENCODING 314
SWIDTH 486 0
DWIDTH 27 0
BBX 22 47 3 -1
BITMAP
000C00
003C00
00FE00
03FE00
03F000
03C000
000000
000000
FFF000
FFF000
FFF000
FFF000
01F000
01F000
01F000
01F000
01F000
01F000
01F000
01F000
01F000
01F000
01F000
01F000
01F000
01F000
01F000
01F000
01F000
01F000
01F000
01F000
01F000
01F000
01F000
01F000
01F000
01F000
00F000
00F000
00F800
00F800
00FFFC
007FFC
003FFC
001FF8
0003C0
ENDCHAR
STARTCHAR 013B
ENCODING 315
SWIDTH 486 0
DWIDTH 27 0
BBX 21 43 5 -9
BITMAP
F80000
F80000
F80000
F80000
F80000
F80000
F80000
F80000
F80000
F80000
F80000
F80000
F80000
F80000
F80000
F80000
F80000
F80000
F80000
F80000
F80000
F80000
F80000
F80000
F80000
F80000
F80000
F80000
F80000
F80000
FFFFF8
FFFFF8
FFFFF8
FFFFF8
000000
000000
00F800
00F800
00F800
00F800
0FF000
0FF000
0FE000
ENDCHAR
STARTCHAR 013C
ENCODING 316
SWIDTH 486 0
DWIDTH 27 0
BBX 22 47 3 -9
BITMAP
FFF000
FFF000
FFF000
FFF000
01F000
01F000
01F000
01F000
01F000
01F000
01F000
01F000
01F000
01F000
01F000
01F000
01F000
01F000
01F000
01F000
01F000
01F000
01F000
01F000
01F000
01F000
01F000
01F000
01F000
01F000
00F000
00F000
00F800
00F800
00FFFC
007FFC
003FFC
001FF8
0003C0
000000
0007C0
0007C0
0007C0
0007C0
007F80
007F80
007F00
ENDCHAR
STARTCHAR 013D
ENCODING 317
SWIDTH 486 0
DWIDTH 27 0
BBX 21 34 5 0
BITMAP
F87800
F87800
F87800
F87800
F87800
F87800
F87800
F87800
F87000
F87000
F87000
F80000
F80000
F80000
F80000
F80000
F80000
F80000
F80000
F80000
F80000
F80000
F80000
F80000
F80000
F80000
F80000
F80000
F80000
F80000
FFFFF8
FFFFF8
FFFFF8
FFFFF8
ENDCHAR
STARTCHAR 013E
ENCODING 318
SWIDTH 486 0
DWIDTH 27 0
BBX 22 40 3 -1
BITMAP
0000F0
FFF0F0
FFF0F0
FFF0F0
FFF0F0
01F0F0
01F0F0
01F0F0
01F0E0
01F0E0
01F0E0
01F0E0
01F000
01F000
01F000
01F000
01F000
01F000
01F000
01F000
01F000
01F000
01F000
01F000
01F000
01F000
01F000
01F000
01F000
01F000
01F000
00F000
00F000
00F800
00F800
00FFFC
007FFC
003FFC
001FF8
0003C0
ENDCHAR
STARTCHAR 013F
ENCODING 319
SWIDTH 486 0
DWIDTH 27 0
BBX 21 34 5 0
BITMAP
F80000
F80000
F80000
F80000
F80000
F80000
F80000
F80000
F80000
F80000
F80000
F80000
F80000
F807C0
F80FC0
F80FC0
F80FC0
F80FC0
F80780
F80000
F80000
F80000
F80000
F80000
F80000
F80000
F80000
F80000
F80000
F80000
FFFFF8
FFFFF8
FFFFF8
FFFFF8
ENDCHAR
STARTCHAR 0140
ENCODING 320
SWIDTH 486 0
DWIDTH 27 0
BBX 27 39 3 -1
BITMAP
FFF00000
FFF00000
FFF00000
FFF00000
01F00000
01F00000
01F00000
01F00000
01F00000
01F00000
01F00000
01F00000
01F00000
01F00000
01F00000
01F00000
01F00000
01F007C0
01F007E0
01F00FE0
01F00FE0
01F007E0
01F007C0
01F00000
01F00000
01F00000
01F00000
01F00000
01F00000
01F00000
00F00000
00F00000
00F80000
00F80000
00FFFC00
007FFC00
003FFC00
001FF800
0003C000
ENDCHAR
STARTCHAR 0141
ENCODING 321
SWIDTH 486 0
DWIDTH 27 0
BBX 25 34 1 0
BITMAP
07C00000
07C00000
07C00000
07C00000
07C00000
07C00000
07C00000
07C00000
07C00000
07C00000
07C10000
07C70000
07DF8000
07FF8000
07FE0000
07FC0000
0FF00000
3FC00000
FFC00000
7FC00000
77C00000
07C00000
07C00000
07C00000
07C00000
07C00000
07C00000
07C00000
07C00000
07C00000
07FFFF80
07FFFF80
07FFFF80
07FFFF80
ENDCHAR
STARTCHAR 0142
ENCODING 322
SWIDTH 486 0
DWIDTH 27 0
BBX 22 39 3 -1
BITMAP
FFF000
FFF000
FFF000
FFF000
01F000
01F000
01F000
01F000
01F000
01F000
01F000
01F000
01F000
01F180
01F780
01FFC0
01FF00
01FC00
07F000
1FF000
1FF000
1FF000
09F000
01F000
01F000
01F000
01F000
01F000
01F000
01F000
00F000
00F000
00F800
00F800
00FFFC
007FFC
003FFC
001FF8
0003C0
ENDCHAR
STARTCHAR 0143
ENCODING 323
SWIDTH 486 0
DWIDTH 27 0
BBX 22 46 3 0
BITMAP
000400
000E00
001F00
003F00
007E00
007C00
00F800
01E000
00C000
000000
000000
000000
F8003C
FC003C
FC003C
FE003C
FE003C
FF003C
FF003C
F7803C
F7C03C
F3C03C
F3E03C
F1E03C
F1F03C
F0F03C
F0F83C
F0783C
F0783C
F03C3C
F03C3C
F01E3C
F01E3C
F00F3C
F00F3C
F0073C
F007BC
F007BC
F003FC
F003FC
F001FC
F001FC
F000FC
F000FC
F000FC
F0007C
ENDCHAR
STARTCHAR 0144
ENCODING 324
SWIDTH 486 0
DWIDTH 27 0
BBX 20 38 4 1
BITMAP
001800
001C00
003E00
007C00
00F800
01F000
03E000
03C000
018000
000000
000000
000000
3FFE00
FFFF00
FFFFC0
FFFFC0
F807E0
F803E0
F801F0
F801F0
F801F0
F801F0
F801F0
F801F0
F801F0
F801F0
F801F0
F801F0
F801F0
F801F0
F801F0
F801F0
F801F0
F801F0
F801F0
F801F0
F801F0
F801F0
ENDCHAR
STARTCHAR 0145
ENCODING 325
SWIDTH 486 0
DWIDTH 27 0
BBX 22 43 3 -9
BITMAP
F8003C
FC003C
FC003C
FE003C
FE003C
FF003C
FF003C
F7803C
F7C03C
F3C03C
F3E03C
F1E03C
F1F03C
F0F03C
F0F83C
F0783C
F0783C
F03C3C
F03C3C
F01E3C
F01E3C
F00F3C
F00F3C
F0073C
F007BC
F007BC
F003FC
F003FC
F001FC
F001FC
F000FC
F000FC
F000FC
F0007C
000000
000000
003C00
003C00
003C00
007C00
03FC00
03F800
03F000
ENDCHAR
STARTCHAR 0146
ENCODING 326
SWIDTH 486 0
DWIDTH 27 0
BBX 20 35 4 -9
BITMAP
3FFE00
FFFF00
FFFFC0
FFFFC0
F807E0
F803E0
F801F0
F801F0
F801F0
F801F0
F801F0
F801F0
F801F0
F801F0
F801F0
F801F0
F801F0
F801F0
F801F0
F801F0
F801F0
F801F0
F801F0
F801F0
F801F0
F801F0
000000
000000
00F800
00F800
00F800
00F800
07F000
07F000
07E000
ENDCHAR
STARTCHAR 0147
ENCODING 327
SWIDTH 486 0
DWIDTH 27 0
BBX 22 46 3 0
BITMAP
020100
070380
078780
07CF00
03FE00
01FC00
00F800
007800
003000
000000
000000
000000
F8003C
FC003C
FC003C
FE003C
FE003C
FF003C
FF003C
F7803C
F7C03C
F3C03C
F3E03C
F1E03C
F1F03C
F0F03C
F0F83C
F0783C
F0783C
F03C3C
F03C3C
F01E3C
F01E3C
F00F3C
F00F3C
F0073C
F007BC
F007BC
F003FC
F003FC
F001FC
F001FC
F000FC
F000FC
F000FC
F0007C
ENDCHAR
STARTCHAR 0148
ENCODING 328
SWIDTH 486 0
DWIDTH 27 0
BBX 20 38 4 0
BITMAP
0C0200
1E0700
0F0F00
07BE00
03FC00
01F800
00F000
006000
004000
000000
000000
000000
3FFE00
FFFF00
FFFFC0
FFFFC0
F807E0
F803E0
F801F0
F801F0
F801F0
F801F0
F801F0
F801F0
F801F0
F801F0
F801F0
F801F0
F801F0
F801F0
F801F0
F801F0
F801F0
F801F0
F801F0
F801F0
F801F0
F801F0
ENDCHAR
STARTCHAR 0149
ENCODING 329
SWIDTH 486 0
DWIDTH 27 0
BBX 23 39 1 0
BITMAP
7C0000
7C0000
7C0000
7C0000
780000
780000
780000
700000
F00000
F00000
600000
000000
000000
07FFC0
1FFFE0
1FFFF8
1FFFF8
1F00FC
1F007C
1F003E
1F003E
1F003E
1F003E
1F003E
1F003E
1F003E
1F003E
1F003E
1F003E
1F003E
1F003E
1F003E
1F003E
1F003E
1F003E
1F003E
1F003E
1F003E
1F003E
ENDCHAR
STARTCHAR 014A
ENCODING 330
SWIDTH 486 0
DWIDTH 27 0
BBX 22 43 3 -9
BITMAP
F8003C
FC003C
FC003C
FE003C
FE003C
FF003C
FF803C
F7803C
F7C03C
F3C03C
F3E03C
F1E03C
F1F03C
F0F03C
F0F83C
F0783C
F03C3C
F03C3C
F01E3C
F01E3C
F00F3C
F00F3C
F007BC
F007BC
F003FC
F003FC
F001FC
F001FC
F000FC
F000FC
F000FC
F0007C
F0007C
F0003C
00003C
00003C
00007C
00007C
000078
000FF8
000FF8
000FF0
000FE0
ENDCHAR
STARTCHAR 014B
ENCODING 331
SWIDTH 486 0
DWIDTH 27 0
BBX 20 35 4 -9
BITMAP
3FFE00
FFFF00
FFFFC0
FFFFC0
F807E0
F803E0
F801F0
F801F0
F801F0
F801F0
F801F0
F801F0
F801F0
F801F0
F801F0
F801F0
F801F0
F801F0
F801F0
F801F0
F801F0
F801F0
F801F0
F801F0
F801F0
F801F0
0001F0
0001F0
0001F0
0001F0
0001F0
003FE0
003FE0
003FC0
003F80
ENDCHAR
STARTCHAR 014C
ENCODING 332
SWIDTH 486 0
DWIDTH 27 0
BBX 24 44 2 -1
BITMAP
07FFE0
07FFE0
07FFE0
07FFE0
000000
000000
000000
000000
00FF00
03FFC0
07FFE0
0FFFF0
1F81F8
3E00FC
3E007C
7C003E
7C003E
78003E
F8001E
F8001F
F8001F
F0001F
F0001F
F0001F
F0000F
F0000F
F0000F
F0000F
F0001F
F0001F
F8001F
F8001F
F8001F
F8001E
78003E
7C003E
7C007C
3E007C
3F00F8
1FC3F8
0FFFF0
07FFE0
03FF80
003C00
ENDCHAR
STARTCHAR 014D
ENCODING 333
SWIDTH 486 0
DWIDTH 27 0
BBX 24 36 2 -1
BITMAP
07FFE0
07FFE0
07FFE0
000000
000000
000000
000000
000000
000000
01FF00
03FFC0
0FFFE0
1FFFF0
1F81F8
3E00FC
7E007C
7C003E
7C003E
78003E
F8001E
F8001E
F8001F
F8001F
F8001F
F8001E
F8003E
7C003E
7C003E
7C007C
3E00FC
3F01F8
1FFFF8
0FFFF0
07FFE0
01FF80
001800
ENDCHAR
STARTCHAR 014E
ENCODING 334
SWIDTH 486 0
DWIDTH 27 0
BBX 24 46 2 -1
BITMAP
0701E0
0781C0
0381C0
03E7C0
03FF80
01FF00
007E00
000000
000000
000000
00FF00
03FFC0
07FFE0
0FFFF0
1F81F8
3E00FC
3E007C
7C003E
7C003E
78003E
F8001E
F8001F
F8001F
F0001F
F0001F
F0001F
F0000F
F0000F
F0000F
F0000F
F0001F
F0001F
F8001F
F8001F
F8001F
F8001E
78003E
7C003E
7C007C
3E007C
3F00F8
1FC3F8
0FFFF0
07FFE0
03FF80
003C00
ENDCHAR
STARTCHAR 014F
ENCODING 335
SWIDTH 486 0
DWIDTH 27 0
BBX 24 38 2 -1
BITMAP
0701E0
0781C0
0383C0
03FFC0
01FF80
00FF00
001800
000000
000000
000000
000000
01FF00
03FFC0
0FFFE0
1FFFF0
1F81F8
3E00FC
7E007C
7C003E
7C003E
78003E
F8001E
F8001E
F8001F
F8001F
F8001F
F8001E
F8003E
7C003E
7C003E
7C007C
3E00FC
3F01F8
1FFFF8
0FFFF0
07FFE0
01FF80
001800
ENDCHAR
STARTCHAR 0150
ENCODING 336
SWIDTH 486 0
DWIDTH 27 0
BBX 24 47 2 -1
BITMAP
001010
003838
007C3C
007878
00F0F8
01F1F0
01E1E0
03C3C0
038180
000000
000000
00FF00
03FFC0
07FFE0
0FFFF0
1F81F8
3E00FC
3E007C
7C003E
7C003E
78003E
F8001E
F8001F
F8001F
F0001F
F0001F
F0001F
F0000F
F0000F
F0000F
F0000F
F0001F
F0001F
F8001F
F8001F
F8001F
F8001E
78003E
7C003E
7C007C
3E007C
3F00F8
1FC3F8
0FFFF0
07FFE0
03FF80
003C00
ENDCHAR
STARTCHAR 0151
ENCODING 337
SWIDTH 486 0
DWIDTH 27 0
BBX 24 39 2 0
BITMAP
001010
003838
007C7C
00F878
00F0F0
01E1E0
03C3E0
0383C0
018180
000000
000000
000000
01FF00
03FFC0
0FFFE0
1FFFF0
1F81F8
3E00FC
7E007C
7C003E
7C003E
78003E
F8001E
F8001E
F8001F
F8001F
F8001F
F8001E
F8003E
7C003E
7C003E
7C007C
3E00FC
3F01F8
1FFFF8
0FFFF0
07FFE0
01FF80
001800
ENDCHAR
STARTCHAR 0152
ENCODING 338
SWIDTH 486 0
DWIDTH 27 0
BBX 26 35 1 0
BITMAP
003C0000
01FFFF80
07FFFF80
0FFFFF80
0FC7FF80
1F03C000
3E03C000
3E03C000
3C03C000
7C03C000
7C03C000
7C03C000
7803C000
7803C000
7803C000
7803FF00
7803FF00
F803FF00
F803FF00
F803C000
7803C000
7803C000
7803C000
7803C000
7803C000
7C03C000
7C03C000
3C03C000
3E03C000
3E03C000
1F03C000
0FFFFFC0
0FFFFFC0
07FFFFC0
01FFFFC0
ENDCHAR
STARTCHAR 0153
ENCODING 339
SWIDTH 486 0
DWIDTH 27 0
BBX 25 27 2 -1
BITMAP
0FC1F800
1FE3FC00
3FF3FE00
3FF7FE00
7C7F1F00
787F0F00
F83E0F00
F03E0F00
F03E0F00
F03E0F00
F03E0F00
F03FFF80
F03FFF80
F03FFF80
F03E0000
F03E0000
F03E0000
F03E0000
F03E0000
F83F0000
787F0000
7C7F8000
7EF7FE00
3FF7FF00
1FE3FF00
0FC1FE00
02003800
ENDCHAR
STARTCHAR 0154
ENCODING 340
SWIDTH 486 0
DWIDTH 27 0
BBX 22 46 3 0
BITMAP
000800
001C00
001E00
003E00
007C00
00F800
01F000
03E000
00C000
000000
000000
0FF000
FFFE00
FFFF80
FFFFC0
F81FE0
F803F0
F801F0
F800F8
F800F8
F800F8
F800F8
F800F8
F800F8
F800F8
F800F0
F801F0
F803E0
F83FE0
FFFFC0
FFFF00
FFFE00
F83E00
F81F00
F80F80
F80780
F807C0
F803C0
F803E0
F801E0
F801F0
F800F8
F800F8
F8007C
F8007C
F8003C
ENDCHAR
STARTCHAR 0155
ENCODING 341
SWIDTH 486 0
DWIDTH 27 0
BBX 18 38 6 1
BITMAP
001800
001C00
003E00
007C00
00F800
01F000
03E000
03C000
018000
000000
000000
000000
0FFFC0
FFFFC0
FFFFC0
FFFFC0
F80000
F80000
F80000
F80000
F80000
F80000
F80000
F80000
F80000
F80000
F80000
F80000
F80000
F80000
F80000
F80000
F80000
F80000
F80000
F80000
F80000
F80000
ENDCHAR
STARTCHAR 0156
ENCODING 342
SWIDTH 486 0
DWIDTH 27 0
BBX 22 44 3 -9
BITMAP
0FF000
FFFE00
FFFF80
FFFFC0
F81FE0
F803F0
F801F0
F800F8
F800F8
F800F8
F800F8
F800F8
F800F8
F800F8
F800F0
F801F0
F803E0
F83FE0
FFFFC0
FFFF00
FFFE00
F83E00
F81F00
F80F80
F80780
F807C0
F803C0
F803E0
F801E0
F801F0
F800F8
F800F8
F8007C
F8007C
F8003C
000000
000000
00F800
00F800
00F800
00F800
07F000
07F000
07E000
ENDCHAR
STARTCHAR 0157
ENCODING 343
SWIDTH 486 0
DWIDTH 27 0
BBX 22 35 2 -9
BITMAP
00FFFC
0FFFFC
0FFFFC
0FFFFC
0F8000
0F8000
0F8000
0F8000
0F8000
0F8000
0F8000
0F8000
0F8000
0F8000
0F8000
0F8000
0F8000
0F8000
0F8000
0F8000
0F8000
0F8000
0F8000
0F8000
0F8000
0F8000
000000
000000
0F8000
0F8000
0F8000
0F0000
FF0000
FF0000
FC0000
ENDCHAR
STARTCHAR 0158
ENCODING 344
SWIDTH 486 0
DWIDTH 27 0
BBX 22 46 3 0
BITMAP
080200
1C0700
1E1F00
0FBE00
07FC00
03F800
01F000
00E000
004000
000000
000000
0FF000
FFFE00
FFFF80
FFFFC0
F81FE0
F803F0
F801F0
F800F8
F800F8
F800F8
F800F8
F800F8
F800F8
F800F8
F800F0
F801F0
F803E0
F83FE0
FFFFC0
FFFF00
FFFE00
F83E00
F81F00
F80F80
F80780
F807C0
F803C0
F803E0
F801E0
F801F0
F800F8
F800F8
F8007C
F8007C
F8003C
ENDCHAR
STARTCHAR 0159
ENCODING 345
SWIDTH 486 0
DWIDTH 27 0
BBX 18 38 6 0
BITMAP
0C0200
1E0700
0F0F00
07BE00
03FC00
01F800
00F000
006000
004000
000000
000000
000000
0FFFC0
FFFFC0
FFFFC0
FFFFC0
F80000
F80000
F80000
F80000
F80000
F80000
F80000
F80000
F80000
F80000
F80000
F80000
F80000
F80000
F80000
F80000
F80000
F80000
F80000
F80000
F80000
F80000
ENDCHAR
STARTCHAR 015A
ENCODING 346
SWIDTH 486 0
DWIDTH 27 0
BBX 22 47 3 -1
BITMAP
000400
000E00
000F00
001F00
003E00
007C00
00F800
01F000
006000
000000
000000
01FF80
07FFF0
0FFFF0
1FFFF0
3F00E0
3E0020
7C0000
7C0000
780000
780000
7C0000
7C0000
7E0000
3F0000
1FC000
1FF000
07FC00
03FF00
00FFC0
001FE0
0007F0
0003F8
0000F8
0000F8
00007C
00007C
00007C
00007C
00007C
0000F8
7001F8
7E07F0
FFFFF0
FFFFC0
1FFF80
01F800
ENDCHAR
STARTCHAR 015B
ENCODING 347
SWIDTH 486 0
DWIDTH 27 0
BBX 20 39 4 0
BITMAP
001800
001C00
003E00
007C00
00F800
01F000
03E000
03C000
018000
000000
000000
000000
07FFC0
1FFFE0
3FFFC0
7FFFC0
7C0040
F80000
F80000
F80000
FC0000
7E0000
7F8000
3FF000
0FFE00
07FF00
00FFC0
001FE0
0007E0
0001F0
0001F0
0001F0
0001F0
E001F0
FE0FE0
FFFFE0
FFFFC0
7FFF00
00D000
ENDCHAR
STARTCHAR 015C
ENCODING 348
SWIDTH 486 0
DWIDTH 27 0
BBX 22 47 3 -1
BITMAP
001000
003800
007C00
00FE00
01FF00
03EF80
07C780
0783C0
030180
000000
000000
01FF80
07FFF0
0FFFF0
1FFFF0
3F00E0
3E0020
7C0000
7C0000
780000
780000
7C0000
7C0000
7E0000
3F0000
1FC000
1FF000
07FC00
03FF00
00FFC0
001FE0
0007F0
0003F8
0000F8
0000F8
00007C
00007C
00007C
00007C
00007C
0000F8
7001F8
7E07F0
FFFFF0
FFFFC0
1FFF80
01F800
ENDCHAR
STARTCHAR 015D
ENCODING 349
SWIDTH 486 0
DWIDTH 27 0
BBX 20 39 4 -1
BITMAP
002000
007000
00F800
01FC00
03FE00
07DF00
0F0F80
0E0780
040100
000000
000000
000000
07FFC0
1FFFE0
3FFFC0
7FFFC0
7C0040
F80000
F80000
F80000
FC0000
7E0000
7F8000
3FF000
0FFE00
07FF00
00FFC0
001FE0
0007E0
0001F0
0001F0
0001F0
0001F0
E001F0
FE0FE0
FFFFE0
FFFFC0
7FFF00
00D000
ENDCHAR
STARTCHAR 015E
ENCODING 350
SWIDTH 486 0
DWIDTH 27 0
BBX 22 44 3 -9
BITMAP
01FF80
07FFF0
0FFFF0
1FFFF0
3F00E0
3E0020
7C0000
7C0000
780000
780000
7C0000
7C0000
7E0000
3F0000
1FC000
1FF000
07FC00
03FF00
00FFC0
001FE0
0007F0
0003F8
0000F8
0000F8
00007C
00007C
00007C
00007C
00007C
0000F8
7001F8
7E07F0
FFFFF0
FFFFC0
1FFF80
01F800
007000
00F800
00FC00
003C00
003C00
03FC00
07FC00
07F800
ENDCHAR
STARTCHAR 015F
ENCODING 351
SWIDTH 486 0
DWIDTH 27 0
BBX 20 35 4 -9
BITMAP
07FFC0
1FFFE0
3FFFC0
7FFFC0
7C0040
F80000
F80000
F80000
FC0000
7E0000
7F8000
3FF000
0FFE00
07FF00
00FFC0
001FE0
0007E0
0001F0
0001F0
0001F0
0001F0
E001F0
FE0FE0
FFFFE0
FFFFC0
7FFF00
01E000
00E000
01F000
01F800
007800
007800
07F800
0FF800
0FF000
ENDCHAR
STARTCHAR 0160
ENCODING 352
SWIDTH 486 0
DWIDTH 27 0
BBX 22 47 3 -1
BITMAP
010080
0381C0
03C3C0
03E780
01FF00
00FE00
007C00
003C00
001800
000000
000000
01FF80
07FFF0
0FFFF0
1FFFF0
3F00E0
3E0020
7C0000
7C0000
780000
780000
7C0000
7C0000
7E0000
3F0000
1FC000
1FF000
07FC00
03FF00
00FFC0
001FE0
0007F0
0003F8
0000F8
0000F8
00007C
00007C
00007C
00007C
00007C
0000F8
7001F8
7E07F0
FFFFF0
FFFFC0
1FFF80
01F800
ENDCHAR
STARTCHAR 0161
ENCODING 353
SWIDTH 486 0
DWIDTH 27 0
BBX 20 39 4 -1
BITMAP
060300
0F0780
0F8F80
07DF00
03FE00
01FC00
00F800
007000
002000
000000
000000
000000
07FFC0
1FFFE0
3FFFC0
7FFFC0
7C0040
F80000
F80000
F80000
FC0000
7E0000
7F8000
3FF000
0FFE00
07FF00
00FFC0
001FE0
0007E0
0001F0
0001F0
0001F0
0001F0
E001F0
FE0FE0
FFFFE0
FFFFC0
7FFF00
00D000
ENDCHAR
STARTCHAR 0162
ENCODING 354
SWIDTH 486 0
DWIDTH 27 0
BBX 24 43 2 -9
BITMAP
FFFFFF
FFFFFF
FFFFFF
FFFFFF
003C00
003C00
003C00
003C00
003C00
003C00
003C00
003C00
003C00
003C00
003C00
003C00
003C00
003C00
003C00
003C00
003C00
003C00
003C00
003C00
003C00
003C00
003C00
003C00
003C00
003C00
003C00
003C00
003C00
003C00
003800
003800
007C00
007E00
001E00
001E00
01FE00
03FE00
03FC00
ENDCHAR
STARTCHAR 0163
ENCODING 355
SWIDTH 486 0
DWIDTH 27 0
BBX 22 43 3 -9
BITMAP
006000
03E000
03E000
03E000
03E000
03E000
03E000
03E000
FFFFF8
FFFFF8
FFFFF8
FFFFF8
03E000
03E000
03E000
03E000
03E000
03E000
03E000
03E000
03E000
03E000
03E000
03E000
03E000
03E000
03E000
03E000
03E000
01F000
01FFFC
01FFFC
00FFFC
007FF8
000780
000E00
000F00
001F80
0007C0
0003C0
007FC0
007F80
007F00
ENDCHAR
STARTCHAR 0164
ENCODING 356
SWIDTH 486 0
DWIDTH 27 0
BBX 24 46 2 0
BITMAP
010080
0381C0
03C3C0
03E780
01FF00
00FE00
007C00
003C00
001800
000000
000000
000000
FFFFFF
FFFFFF
FFFFFF
FFFFFF
003C00
003C00
003C00
003C00
003C00
003C00
003C00
003C00
003C00
003C00
003C00
003C00
003C00
003C00
003C00
003C00
003C00
003C00
003C00
003C00
003C00
003C00
003C00
003C00
003C00
003C00
003C00
003C00
003C00
003C00
ENDCHAR
STARTCHAR 0165
ENCODING 357
SWIDTH 486 0
DWIDTH 27 0
BBX 22 40 3 -1
BITMAP
0003E0
0003E0
0003E0
0003C0
0003C0
0063C0
03E3C0
03E3C0
03E3C0
03E3C0
03E000
03E000
03E000
FFFFF8
FFFFF8
FFFFF8
FFFFF8
03E000
03E000
03E000
03E000
03E000
03E000
03E000
03E000
03E000
03E000
03E000
03E000
03E000
03E000
03E000
03E000
03E000
01F000
01FFFC
01FFFC
00FFFC
003FF8
0007C0
ENDCHAR
STARTCHAR 0166
ENCODING 358
SWIDTH 486 0
DWIDTH 27 0
BBX 24 34 2 0
BITMAP
FFFFFF
FFFFFF
FFFFFF
FFFFFF
003C00
003C00
003C00
003C00
003C00
003C00
003C00
003C00
003C00
003C00
003C00
1FFFF8
1FFFF8
1FFFF8
003C00
003C00
003C00
003C00
003C00
003C00
003C00
003C00
003C00
003C00
003C00
003C00
003C00
003C00
003C00
003C00
ENDCHAR
STARTCHAR 0167
ENCODING 359
SWIDTH 486 0
DWIDTH 27 0
BBX 22 35 3 -1
BITMAP
006000
03E000
03E000
03E000
03E000
03E000
03E000
03E000
FFFFF8
FFFFF8
FFFFF8
FFFFF8
03E000
03E000
03E000
03E000
03E000
03E000
03E000
FFFFF8
FFFFF8
FFFFF8
03E000
03E000
03E000
03E000
03E000
03E000
03E000
01F000
01FFFC
01FFFC
00FFFC
003FF8
0007C0
ENDCHAR
STARTCHAR 0168
ENCODING 360
SWIDTH 486 0
DWIDTH 27 0
BBX 22 45 3 -1
BITMAP
01C0C0
07F1C0
0FFFC0
0FFF80
1C1F00
040000
000000
000000
000000
000000
F0003C
F0003C
F0003C
F0003C
F0003C
F0003C
F0003C
F0003C
F0003C
F0003C
F0003C
F0003C
F0003C
F0003C
F0003C
F0003C
F0003C
F0003C
F0003C
F0003C
F0003C
F0003C
F0003C
F0007C
F0007C
F8007C
F8007C
F80078
7C00F8
7E01F8
3F87F0
3FFFE0
1FFFC0
07FF80
00FC00
ENDCHAR
STARTCHAR 0169
ENCODING 361
SWIDTH 486 0
DWIDTH 27 0
BBX 20 37 4 0
BITMAP
078180
0FF780
1FFF80
3CFF00
183E00
000000
000000
000000
000000
000000
F001F0
F001F0
F001F0
F001F0
F001F0
F001F0
F001F0
F001F0
F001F0
F001F0
F001F0
F001F0
F001F0
F001F0
F001F0
F001F0
F001F0
F801F0
F801F0
F801F0
7C01F0
7E01F0
7FFFF0
3FFFF0
1FFFF0
07FFE0
006800
ENDCHAR
STARTCHAR 016A
ENCODING 362
SWIDTH 486 0
DWIDTH 27 0
BBX 22 44 3 -1
BITMAP
0FFFC0
0FFFC0
0FFFC0
0FFFC0
000000
000000
000000
000000
000000
F0003C
F0003C
F0003C
F0003C
F0003C
F0003C
F0003C
F0003C
F0003C
F0003C
F0003C
F0003C
F0003C
F0003C
F0003C
F0003C
F0003C
F0003C
F0003C
F0003C
F0003C
F0003C
F0003C
F0007C
F0007C
F8007C
F8007C
F80078
7C00F8
7E01F8
3F87F0
3FFFE0
1FFFC0
07FF80
00FC00
ENDCHAR
STARTCHAR 016B
ENCODING 363
SWIDTH 486 0
DWIDTH 27 0
BBX 20 36 4 -1
BITMAP
1FFF80
1FFF80
1FFF80
000000
000000
000000
000000
000000
000000
F001F0
F001F0
F001F0
F001F0
F001F0
F001F0
F001F0
F001F0
F001F0
F001F0
F001F0
F001F0
F001F0
F001F0
F001F0
F001F0
F001F0
F801F0
F801F0
F801F0
7C01F0
7E01F0
7FFFF0
3FFFF0
1FFFF0
07FFE0
006800
ENDCHAR
STARTCHAR 016C
ENCODING 364
SWIDTH 486 0
DWIDTH 27 0
BBX 22 46 3 -1
BITMAP
0E03C0
0F0380
070380
07CF80
07FF00
03FE00
00FC00
000000
000000
000000
000000
F0003C
F0003C
F0003C
F0003C
F0003C
F0003C
F0003C
F0003C
F0003C
F0003C
F0003C
F0003C
F0003C
F0003C
F0003C
F0003C
F0003C
F0003C
F0003C
F0003C
F0003C
F0003C
F0003C
F0007C
F0007C
F8007C
F8007C
F80078
7C00F8
7E01F8
3F87F0
3FFFE0
1FFFC0
07FF80
00FC00
ENDCHAR
STARTCHAR 016D
ENCODING 365
SWIDTH 486 0
DWIDTH 27 0
BBX 20 38 4 -1
BITMAP
1C0780
1E0700
0E0F00
0FFF00
07FE00
03FC00
006000
000000
000000
000000
000000
F001F0
F001F0
F001F0
F001F0
F001F0
F001F0
F001F0
F001F0
F001F0
F001F0
F001F0
F001F0
F001F0
F001F0
F001F0
F001F0
F001F0
F801F0
F801F0
F801F0
7C01F0
7E01F0
7FFFF0
3FFFF0
1FFFF0
07FFE0
006800
ENDCHAR
STARTCHAR 016E
ENCODING 366
SWIDTH 486 0
DWIDTH 27 0
BBX 22 47 3 -1
BITMAP
00F800
01FE00
03CE00
038700
030700
030700
038700
03CE00
01FE00
007800
000000
000000
F0003C
F0003C
F0003C
F0003C
F0003C
F0003C
F0003C
F0003C
F0003C
F0003C
F0003C
F0003C
F0003C
F0003C
F0003C
F0003C
F0003C
F0003C
F0003C
F0003C
F0003C
F0003C
F0003C
F0007C
F0007C
F8007C
F8007C
F80078
7C00F8
7E01F8
3F87F0
3FFFE0
1FFFC0
07FF80
00FC00
ENDCHAR
STARTCHAR 016F
ENCODING 367
SWIDTH 486 0
DWIDTH 27 0
BBX 20 40 4 -1
BITMAP
006000
01F800
03FC00
070E00
060E00
060E00
060E00
070E00
03FC00
01F800
004000
000000
000000
F001F0
F001F0
F001F0
F001F0
F001F0
F001F0
F001F0
F001F0
F001F0
F001F0
F001F0
F001F0
F001F0
F001F0
F001F0
F001F0
F001F0
F801F0
F801F0
F801F0
7C01F0
7E01F0
7FFFF0
3FFFF0
1FFFF0
07FFE0
006800
ENDCHAR
STARTCHAR 0170
ENCODING 368
SWIDTH 486 0
DWIDTH 27 0
BBX 22 47 3 -1
BITMAP
004060
006070
00F0F8
01F1F0
03E1E0
03C3C0
078780
0F0F00
060700
020200
000000
000000
F0003C
F0003C
F0003C
F0003C
F0003C
F0003C
F0003C
F0003C
F0003C
F0003C
F0003C
F0003C
F0003C
F0003C
F0003C
F0003C
F0003C
F0003C
F0003C
F0003C
F0003C
F0003C
F0003C
F0007C
F0007C
F8007C
F8007C
F80078
7C00F8
7E01F8
3F87F0
3FFFE0
1FFFC0
07FF80
00FC00
ENDCHAR
STARTCHAR 0171
ENCODING 369
SWIDTH 486 0
DWIDTH 27 0
BBX 20 39 4 0
BITMAP
00C0C0
01E1E0
01E1F0
03C3E0
07C7C0
0F8780
0F0F00
1E1E00
0C0400
000000
000000
000000
F001F0
F001F0
F001F0
F001F0
F001F0
F001F0
F001F0
F001F0
F001F0
F001F0
F001F0
F001F0
F001F0
F001F0
F001F0
F001F0
F001F0
F801F0
F801F0
F801F0
7C01F0
7E01F0
7FFFF0
3FFFF0
1FFFF0
07FFE0
006800
ENDCHAR
STARTCHAR 0172
ENCODING 370
SWIDTH 486 0
DWIDTH 27 0
BBX 22 43 3 -9
BITMAP
F0003C
F0003C
F0003C
F0003C
F0003C
F0003C
F0003C
F0003C
F0003C
F0003C
F0003C
F0003C
F0003C
F0003C
F0003C
F0003C
F0003C
F0003C
F0003C
F0003C
F0003C
F0003C
F0003C
F0007C
F0007C
F8007C
F8007C
F80078
FC00F8
7E01F8
7F87F0
3FFFF0
1FFFE0
0FFF80
03FF00
003C00
007C00
007800
00F800
00F800
00FF80
007F80
003F80
ENDCHAR
STARTCHAR 0173
ENCODING 371
SWIDTH 486 0
DWIDTH 27 0
BBX 20 35 4 -9
BITMAP
F001F0
F001F0
F001F0
F001F0
F001F0
F001F0
F001F0
F001F0
F001F0
F001F0
F001F0
F001F0
F001F0
F001F0
F001F0
F001F0
F001F0
F801F0
F801F0
F801F0
7C01F0
7E01F0
7FFFF0
3FFFF0
1FFFF0
07FFF0
0063C0
000780
000F00
000F00
001E00
001F00
001FF0
000FF0
0007F0
ENDCHAR
STARTCHAR 0174
ENCODING 372
SWIDTH 486 0
DWIDTH 27 0
BBX 24 46 2 0
BITMAP
001000
001800
003C00
007E00
00FF00
01EF80
03C7C0
0781C0
0300C0
000000
000000
000000
F0000F
F0000F
F0001F
F0001F
F0001F
F0001F
F0001F
F0001F
F0001F
F0001F
F0001F
F0001E
F0001E
F83C1E
F87C1E
787E1E
787E1E
78FE1E
78EF1E
78E71E
79E71E
79C79E
79C39E
7BC39E
7B83DC
7B81DC
7F81DC
7F81FC
3F01FC
3F00FC
3F00FC
3E00FC
3E007C
3E007C
ENDCHAR
STARTCHAR 0175
ENCODING 373
SWIDTH 486 0
DWIDTH 27 0
BBX 26 38 1 0
BITMAP
00080000
001C0000
003E0000
007F0000
00FF8000
01F3C000
03E1E000
01C0E000
01804000
00000000
00000000
00000000
F00003C0
F80007C0
F8000780
F8000780
F8000780
78000780
781E0780
781E0780
781E0780
783F0780
783F0F00
7C3F0F00
3C7F8F00
3C778F00
3C738F00
3CF3CF00
3CE3CE00
3CE1DE00
1DE1FE00
1FC1FE00
1FC0FE00
1FC0FC00
1F807C00
0F807C00
0F007C00
0F003C00
ENDCHAR
STARTCHAR 0176
ENCODING 374
SWIDTH 486 0
DWIDTH 27 0
BBX 26 46 1 0
BITMAP
00080000
000C0000
001E0000
003F0000
007F8000
00F7C000
01E3E000
03C0E000
01806000
00000000
00000000
00000000
F80007C0
FC000F80
7C000F80
7C000F00
3E001F00
3E001F00
1F003E00
1F003E00
0F807C00
0F807C00
0780F800
07C0F800
03E1F000
03E1F000
01F3E000
01F3C000
00FFC000
00FF8000
007F8000
003F0000
003F0000
001E0000
001E0000
001E0000
001E0000
001E0000
001E0000
001E0000
001E0000
001E0000
001E0000
001E0000
001E0000
001E0000
ENDCHAR
STARTCHAR 0177
ENCODING 375
SWIDTH 486 0
DWIDTH 27 0
BBX 24 47 2 -9
BITMAP
001800
003800
007C00
00FE00
01FF00
01E780
03C3C0
0381C0
010080
000000
000000
000000
7C001F
7C003E
7C003E
3E003E
3E003E
3E007C
1E007C
1F007C
1F0078
0F00F8
0F80F8
0F80F0
0780F0
07C1F0
07C1F0
03E1E0
03E3E0
01E3E0
01F3C0
00F3C0
00FF80
007F80
007F80
003F00
003F00
001F00
001E00
003E00
003C00
007C00
00F800
7FF000
FFE000
FFC000
FF8000
ENDCHAR
STARTCHAR 0178
ENCODING 376
SWIDTH 486 0
DWIDTH 27 0
BBX 26 44 1 0
BITMAP
01C0F000
03E1F000
07E1F800
07E1F800
03E1F000
01806000
00000000
00000000
00000000
00000000
F80007C0
FC000F80
7C000F80
7C000F00
3E001F00
3E001F00
1F003E00
1F003E00
0F807C00
0F807C00
0780F800
07C0F800
03E1F000
03E1F000
01F3E000
01F3C000
00FFC000
00FF8000
007F8000
003F0000
003F0000
001E0000
001E0000
001E0000
001E0000
001E0000
001E0000
001E0000
001E0000
001E0000
001E0000
001E0000
001E0000
001E0000
ENDCHAR
STARTCHAR 0179
ENCODING 377
SWIDTH 486 0
DWIDTH 27 0
BBX 22 46 3 0
BITMAP
000400
000E00
001F00
003F00
007E00
007C00
00F800
01E000
00C000
000000
000000
000000
7FFFFC
7FFFFC
7FFFFC
7FFFFC
0000F8
0001F0
0003E0
0003E0
0007C0
000FC0
000F80
001F00
001F00
003E00
007C00
007C00
00F800
01F000
01F000
03E000
03E000
07C000
078000
0F8000
1F0000
1F0000
3E0000
3E0000
7C0000
7C0000
FFFFFC
FFFFFC
FFFFFC
FFFFFC
ENDCHAR
STARTCHAR 017A
ENCODING 378
SWIDTH 486 0
DWIDTH 27 0
BBX 20 38 4 1
BITMAP
001800
001C00
003E00
007C00
00F800
01F000
03E000
03C000
018000
000000
000000
000000
7FFFE0
7FFFE0
7FFFE0
7FFFE0
0007E0
000FC0
001F80
001F00
003E00
007E00
00FC00
00F800
01F000
03E000
07E000
07C000
0F8000
1F8000
1F0000
3E0000
7E0000
7C0000
FFFFF0
FFFFF0
FFFFF0
FFFFF0
ENDCHAR
STARTCHAR 017B
ENCODING 379
SWIDTH 486 0
DWIDTH 27 0
BBX 22 44 3 1
BITMAP
00F800
00FC00
00FC00
00FC00
00FC00
007800
000000
000000
000000
000000
7FFFFC
7FFFFC
7FFFFC
7FFFFC
0000F8
0001F0
0003E0
0003E0
0007C0
000FC0
000F80
001F00
001F00
003E00
007C00
007C00
00F800
01F000
01F000
03E000
03E000
07C000
078000
0F8000
1F0000
1F0000
3E0000
3E0000
7C0000
7C0000
FFFFFC
FFFFFC
FFFFFC
FFFFFC
ENDCHAR
STARTCHAR 017C
ENCODING 380
SWIDTH 486 0
DWIDTH 27 0
BBX 20 37 4 0
BITMAP
00E000
01F800
01F800
01F800
01F800
01F800
00E000
000000
000000
000000
000000
7FFFE0
7FFFE0
7FFFE0
7FFFE0
0007E0
000FC0
001F80
001F00
003E00
007E00
00FC00
00F800
01F000
03E000
07E000
07C000
0F8000
1F8000
1F0000
3E0000
7E0000
7C0000
FFFFF0
FFFFF0
FFFFF0
FFFFF0
ENDCHAR
STARTCHAR 017D
ENCODING 381
SWIDTH 486 0
DWIDTH 27 0
BBX 22 46 3 0
BITMAP
020100
070380
078780
07CF00
03FE00
01FC00
00F800
007800
003000
000000
000000
000000
7FFFFC
7FFFFC
7FFFFC
7FFFFC
0000F8
0001F0
0003E0
0003E0
0007C0
000FC0
000F80
001F00
001F00
003E00
007C00
007C00
00F800
01F000
01F000
03E000
03E000
07C000
078000
0F8000
1F0000
1F0000
3E0000
3E0000
7C0000
7C0000
FFFFFC
FFFFFC
FFFFFC
FFFFFC
ENDCHAR
STARTCHAR 017E
ENCODING 382
SWIDTH 486 0
DWIDTH 27 0
BBX 20 38 4 0
BITMAP
0C0200
1E0700
0F0F00
07BE00
03FC00
01F800
00F000
006000
004000
000000
000000
000000
7FFFE0
7FFFE0
7FFFE0
7FFFE0
0007E0
000FC0
001F80
001F00
003E00
007E00
00FC00
00F800
01F000
03E000
07E000
07C000
0F8000
1F8000
1F0000
3E0000
7E0000
7C0000
FFFFF0
FFFFF0
FFFFF0
FFFFF0
ENDCHAR
STARTCHAR 017F
ENCODING 383
SWIDTH 486 0
DWIDTH 27 0
BBX 18 38 9 1
BITMAP
07FF00
1FFFC0
3FFF80
7FDF80
7E0080
7C0000
F80000
F80000
F80000
F80000
F80000
F80000
F80000
F80000
F80000
F80000
F80000
F80000
F80000
F80000
F80000
F80000
F80000
F80000
F80000
F80000
F80000
F80000
F80000
F80000
F80000
F80000
F80000
F80000
F80000
F80000
F80000
F80000
ENDCHAR
STARTCHAR 0180
ENCODING 384
SWIDTH 486 0
DWIDTH 27 0
BBX 25 39 1 0
BITMAP
0F000000
0F000000
0F000000
0F000000
FFFF8000
FFFF8000
FFFF8000
FFFF8000
0F000000
0F000000
0F000000
0F000000
0F3FC000
0FFFF000
0FFFF800
0FFFFC00
0FC07C00
0F803E00
0F003E00
0F001F00
0F001F00
0F001F00
0F000F00
0F000F80
0F000F80
0F000F80
0F000F80
0F000F00
0F001F00
0F001F00
0F001F00
0F003E00
0F003E00
0F00FC00
0FE7FC00
0FFFF800
0FFFF000
0FFFC000
001C0000
ENDCHAR
STARTCHAR 0181
ENCODING 385
SWIDTH 486 0
DWIDTH 27 0
BBX 26 35 1 0
BITMAP
007FC000
0FFFF800
1FFFFC00
7FFFFE00
7FF07E00
F8F03F00
F0F01F00
F0F01F00
F0F00F00
F0F00F00
80F00F00
00F01F00
00F01F00
00F03E00
00F07C00
00FFFC00
00FFF000
00FFFC00
00FFFE00
00F03F00
00F01F80
00F00F80
00F007C0
00F007C0
00F007C0
00F007C0
00F007C0
00F007C0
00F00780
00F00F80
00F01F80
00FFFF00
00FFFE00
00FFFC00
00FFF000
ENDCHAR
STARTCHAR 0182
ENCODING 386
SWIDTH 486 0
DWIDTH 27 0
BBX 22 34 3 0
BITMAP
FFFFE0
FFFFE0
FFFFE0
FFFFE0
F80000
F80000
F80000
F80000
F80000
F80000
F80000
F80000
F80000
FFFE00
FFFFC0
FFFFE0
F87FF0
F803F8
F800F8
F8007C
F8007C
F8007C
F8007C
F8007C
F8007C
F8007C
F8007C
F800F8
F801F8
F803F8
FFFFF0
FFFFE0
FFFF80
FFFE00
ENDCHAR
STARTCHAR 0183
ENCODING 387
SWIDTH 486 0
DWIDTH 27 0
BBX 22 39 4 -1
BITMAP
FFFFE0
FFFFE0
FFFFE0
FFFFE0
F80000
F80000
F80000
F80000
F80000
F80000
F80000
F80000
FBFE00
FFFF80
FFFFC0
FFFFE0
FC07E0
F801F0
F801F0
F800F8
F800F8
F800F8
F80078
F8007C
F8007C
F8007C
F8007C
F80078
F800F8
F800F8
F800F8
F801F0
F803F0
F807E0
FF7FE0
FFFFC0
FFFF00
7FFE00
00C000
ENDCHAR
STARTCHAR 0184
ENCODING 388
SWIDTH 486 0
DWIDTH 27 0
BBX 25 39 1 0
BITMAP
07000000
3F000000
FF000000
FF000000
7F000000
3F000000
1F000000
1F000000
1F000000
1F000000
1F000000
1F000000
1F7FC000
1FFFF000
1FFFF800
1FFFFC00
1F80FC00
1F003E00
1F003E00
1F001F00
1F001F00
1F001F00
1F000F00
1F000F80
1F000F80
1F000F80
1F000F80
1F000F00
1F001F00
1F001F00
1F001F00
1F003E00
1F007E00
1F00FC00
1FEFFC00
1FFFF800
1FFFE000
0FFFC000
00180000
ENDCHAR
STARTCHAR 0185
ENCODING 389
SWIDTH 486 0
DWIDTH 27 0
BBX 24 35 1 0
BITMAP
010000
0F0000
3F0000
FF0000
FF0000
7F0000
3F0000
1F0000
1F0000
1F0000
1F0000
1F0000
1F0000
1FFF00
1FFFE0
1FFFF0
1FFFFC
1F00FC
1F007E
1F003E
1F001F
1F001F
1F001F
1F001F
1F001F
1F001F
1F001F
1F001F
1F003E
1F007E
1F00FC
1FFFFC
1FFFF8
1FFFE0
1FFF80
ENDCHAR
STARTCHAR 0186
ENCODING 390
SWIDTH 486 0
DWIDTH 27 0
BBX 23 36 2 -1
BITMAP
0FFC00
3FFF00
7FFFC0
7FFFE0
700FF0
0003F0
0001F8
0000F8
00007C
00007C
00003C
00003E
00003E
00003E
00003E
00003E
00001E
00001E
00001E
00001E
00003E
00003E
00003E
00003E
00003C
00007C
00007C
0000F8
0000F8
0001F0
6007F0
7E3FE0
7FFFC0
FFFF80
3FFE00
03E000
ENDCHAR
STARTCHAR 0187
ENCODING 391
SWIDTH 486 0
DWIDTH 27 0
BBX 24 40 3 -1
BITMAP
00001F
00007F
00007F
0000FF
007FF0
01FFF0
03FFE0
0FFFE0
0FC0E0
1F8020
3F0000
3E0000
7C0000
7C0000
780000
F80000
F80000
F80000
F00000
F00000
F00000
F00000
F00000
F00000
F00000
F00000
F80000
F80000
F80000
F80000
7C0000
7C0000
3E0000
3F0000
1F8030
1FF3F0
0FFFF0
07FFF8
01FFE0
003E00
ENDCHAR
STARTCHAR 0188
ENCODING 392
SWIDTH 486 0
DWIDTH 27 0
BBX 24 32 3 -1
BITMAP
00003F
00007F
0000FF
0000FA
0000F0
01FFE0
07FFE0
0FFFE0
1FFFE0
3F8000
3E0000
7C0000
7C0000
F80000
F80000
F80000
F80000
F00000
F00000
F80000
F80000
F80000
F80000
7C0000
7C0000
7E0000
3F8000
1FFFE0
0FFFE0
07FFF0
01FFE0
001E00
ENDCHAR
STARTCHAR 0189
ENCODING 393
SWIDTH 486 0
DWIDTH 27 0
BBX 25 35 1 0
BITMAP
03F80000
1FFF0000
1FFFC000
1FFFE000
1F0FF800
1F01F800
1F00FC00
1F007C00
1F003E00
1F001E00
1F001F00
1F001F00
1F001F00
1F000F00
1F000F00
FFF80F00
FFF80F80
FFF80F80
FFF80F80
1F000F80
1F000F00
1F000F00
1F000F00
1F001F00
1F001F00
1F001F00
1F003E00
1F003E00
1F007C00
1F00FC00
1F03F800
1FFFF000
1FFFE000
1FFFC000
1FFE0000
ENDCHAR
STARTCHAR 018A
ENCODING 394
SWIDTH 486 0
DWIDTH 27 0
BBX 26 35 1 0
BITMAP
00FF0000
0FFFE000
1FFFF800
3FFFFC00
7FF0FE00
F8F03E00
F0F01F00
F0F01F00
F0F00F80
F0F00F80
80F00F80
00F00780
00F007C0
00F007C0
00F007C0
00F007C0
00F007C0
00F007C0
00F007C0
00F007C0
00F007C0
00F007C0
00F007C0
00F00780
00F00780
00F00F80
00F00F80
00F00F00
00F01F00
00F03F00
00F07E00
00FFFC00
00FFF800
00FFF000
00FFC000
ENDCHAR
STARTCHAR 018B
ENCODING 395
SWIDTH 486 0
DWIDTH 27 0
BBX 22 34 3 0
BITMAP
1FFFFC
1FFFFC
1FFFFC
1FFFFC
00007C
00007C
00007C
00007C
00007C
00007C
00007C
00007C
00007C
01FFFC
0FFFFC
1FFFFC
3FF87C
7F007C
7C007C
F8007C
F8007C
F0007C
F0007C
F0007C
F0007C
F0007C
F8007C
F8007C
7C007C
7F007C
3FFFFC
1FFFFC
07FFFC
01FFFC
ENDCHAR
STARTCHAR 018C
ENCODING 396
SWIDTH 486 0
DWIDTH 27 0
BBX 22 39 2 -1
BITMAP
1FFFFC
1FFFFC
1FFFFC
1FFFFC
00007C
00007C
00007C
00007C
00007C
00007C
00007C
00007C
01FF7C
07FFFC
0FFFFC
1FFFFC
3F81FC
3E007C
7C007C
7C007C
7C007C
F8007C
F8007C
F8007C
F8007C
F8007C
F8007C
F8007C
F8007C
7C007C
7C007C
7E007C
3E007C
3F807C
1FFFFC
0FFFFC
07FFFC
01FFF8
001C00
ENDCHAR
STARTCHAR 018D
ENCODING 397
SWIDTH 486 0
DWIDTH 27 0
BBX 24 35 2 -9
BITMAP
01FF80
07FFE0
0FFFF0
1FFFF8
3F01FC
7E007C
7C003E
7C003E
F8003E
F8001E
F8001F
F8001F
F8001F
F8001E
78003E
7C003E
7C003E
3E007C
3F00FC
1F81F8
0FC7F0
07FFE0
01FF80
00FF00
003F80
001FC0
0007E0
0003E0
0001E0
0001E0
1003E0
1FFFE0
1FFFC0
3FFF80
0FFE00
ENDCHAR
STARTCHAR 018E
ENCODING 398
SWIDTH 486 0
DWIDTH 27 0
BBX 21 34 2 0
BITMAP
7FFFF8
7FFFF8
7FFFF8
7FFFF8
0000F8
0000F8
0000F8
0000F8
0000F8
0000F8
0000F8
0000F8
0000F8
0000F8
1FFFF8
1FFFF8
1FFFF8
1FFFF8
0000F8
0000F8
0000F8
0000F8
0000F8
0000F8
0000F8
0000F8
0000F8
0000F8
0000F8
0000F8
FFFFF8
FFFFF8
FFFFF8
FFFFF8
ENDCHAR
STARTCHAR 018F
ENCODING 399
SWIDTH 486 0
DWIDTH 27 0
BBX 25 36 1 -1
BITMAP
03FF0000
0FFFC000
1FFFE000
1FFFF000
1C03F800
0000FC00
00007E00
00003E00
00001F00
00001F00
00001F00
00000F80
00000F80
00000F80
00000F80
00000F80
00000780
FFFFFF80
FFFFFF80
FFFFFF80
FFFFFF80
F8000F80
78000F80
78000F80
78000F80
78001F00
7C001F00
3C001F00
3E003E00
3E007E00
1F00FC00
0FC1F800
0FFFF000
07FFE000
01FFC000
003C0000
ENDCHAR
STARTCHAR 0190
ENCODING 400
SWIDTH 486 0
DWIDTH 27 0
BBX 24 36 2 -1
BITMAP
007FC0
03FFFC
0FFFFE
1FFFFC
1FC03C
3F0000
3E0000
3E0000
3C0000
3C0000
3E0000
3E0000
1F0000
1F8000
0FF000
03FFC0
00FFC0
07FFC0
1FFFC0
3FC000
3E0000
7C0000
780000
F80000
F80000
F80000
F80000
F80000
780000
7C0000
7F000E
3FE07E
1FFFFF
0FFFFE
03FFF8
003F00
ENDCHAR
STARTCHAR 0191
ENCODING 401
SWIDTH 486 0
DWIDTH 27 0
BBX 25 43 0 -9
BITMAP
03FFFF80
03FFFF80
03FFFF80
03FFFF80
03C00000
03C00000
03C00000
03C00000
03C00000
03C00000
03C00000
03C00000
03C00000
03C00000
03FFFE00
03FFFE00
03FFFE00
03FFFE00
03C00000
03C00000
03C00000
03C00000
03C00000
03C00000
03C00000
03C00000
03C00000
03C00000
03C00000
03C00000
03C00000
03C00000
03C00000
03C00000
03C00000
03C00000
07C00000
07C00000
07C00000
7F800000
FF800000
FF000000
FE000000
ENDCHAR
STARTCHAR 0192
ENCODING 402
SWIDTH 486 0
DWIDTH 27 0
BBX 27 47 0 -8
BITMAP
0003FF80
000FFFE0
001FFFC0
003FEFC0
003F0040
003E0000
007C0000
007C0000
007C0000
007C0000
007C0000
007C0000
1FFFFF00
1FFFFF00
1FFFFF00
1FFFFF00
007C0000
007C0000
007C0000
007C0000
007C0000
007C0000
007C0000
007C0000
007C0000
007C0000
007C0000
007C0000
007C0000
007C0000
007C0000
007C0000
007C0000
007C0000
007C0000
007C0000
007C0000
007C0000
00780000
00780000
00780000
00F80000
01F80000
7FF00000
7FF00000
7FE00000
FF800000
ENDCHAR
STARTCHAR 0193
ENCODING 403
SWIDTH 486 0
DWIDTH 27 0
BBX 24 40 3 -1
BITMAP
00001F
00007F
00007F
0000FF
007FF0
01FFF0
07FFE0
0FFFE0
0FC0E0
1F8020
3F0000
3E0000
7C0000
7C0000
F80000
F80000
F80000
F80000
F00000
F00000
F00000
F00000
F0003C
F0003C
F0003C
F0003C
F8003C
F8003C
F8003C
F8003C
7C003C
7C003C
3E003C
3F003C
1F803C
1FF0FC
0FFFFC
03FFFC
01FFF8
003F80
ENDCHAR
STARTCHAR 0194
ENCODING 404
SWIDTH 486 0
DWIDTH 27 0
BBX 26 43 1 -9
BITMAP
F80007C0
F8000780
7C000F80
7C000F80
3C000F00
3E001F00
3E001E00
1E003E00
1F003E00
0F003C00
0F807C00
0F807800
0780F800
07C0F800
03C0F000
03E1F000
03E1E000
01E1E000
01F3C000
00F3C000
00FFC000
007F8000
007F8000
003F0000
003F0000
003E0000
003F0000
007F0000
007F8000
00FF8000
00F3C000
01F3C000
01E1E000
03E1E000
03C0F000
03C0F000
03C0F000
03C0F000
03E1F000
01FFE000
01FFE000
00FFC000
003F0000
ENDCHAR
STARTCHAR 0195
ENCODING 405
SWIDTH 486 0
DWIDTH 27 0
BBX 24 39 2 0
BITMAP
F00000
F00000
F00000
F00000
F00000
F00000
F00000
F00000
F00000
F00000
F00000
F00000
F7E01F
FFF01F
FFF81F
FFF81F
F0F81F
F07C1F
F07C1F
F07C1F
F07C1F
F07C1F
F07C1F
F07C1F
F07C1F
F07C1F
F07C1F
F07C1F
F07C1F
F07C1F
F07C1F
F07C1E
F03C1E
F03E3E
F03FFE
F01FFC
F01FFC
F00FF0
000080
ENDCHAR
STARTCHAR 0196
ENCODING 406
SWIDTH 486 0
DWIDTH 27 0
BBX 21 35 4 -1
BITMAP
FFFFE0
FFFFE0
FFFFE0
FFFFE0
03E000
03E000
03E000
03E000
03E000
03E000
03E000
03E000
03E000
03E000
03E000
03E000
03E000
03E000
03E000
03E000
03E000
03E000
03E000
03E000
03E000
03E000
03E000
01E000
01F000
01F000
01FE78
00FFF8
00FFF8
003FF8
000780
ENDCHAR
STARTCHAR 0197
ENCODING 407
SWIDTH 486 0
DWIDTH 27 0
BBX 18 34 5 0
BITMAP
FFFFC0
FFFFC0
FFFFC0
FFFFC0
01E000
01E000
01E000
01E000
01E000
01E000
01E000
01E000
01E000
01E000
7FFF00
7FFF00
7FFF00
7FFF00
01E000
01E000
01E000
01E000
01E000
01E000
01E000
01E000
01E000
01E000
01E000
01E000
FFFFC0
FFFFC0
FFFFC0
FFFFC0
ENDCHAR
STARTCHAR 0198
ENCODING 408
SWIDTH 486 0
DWIDTH 27 0
BBX 24 35 4 0
BITMAP
00007C
F001FE
F003FF
F007FE
F007C6
F00F80
F01F00
F03F00
F03E00
F07C00
F0F800
F1F800
F1F000
F3E000
F7C000
FFC000
FF8000
FFC000
FFE000
F7F000
F1F800
F0FC00
F07E00
F03F00
F01F80
F00FC0
F007C0
F007E0
F003F0
F001F0
F001F8
F000FC
F0007C
F0007E
F0003E
ENDCHAR
STARTCHAR 0199
ENCODING 409
SWIDTH 486 0
DWIDTH 27 0
BBX 22 39 4 0
BITMAP
010000
1FC000
3FC000
7FC000
7E0000
F80000
F80000
F80000
F80000
F80000
F80000
F80000
F80000
F800F8
F801F0
F803E0
F807E0
F80FC0
F81F00
F83E00
F87C00
F9F800
FBF000
FFE000
FFC000
FFC000
FFE000
FBF000
F9FC00
F8FE00
F83F00
F81F80
F80F80
F807C0
F803E0
F801F0
F801F8
F800FC
F8007C
ENDCHAR
STARTCHAR 019A
ENCODING 410
SWIDTH 486 0
DWIDTH 27 0
BBX 22 39 3 -1
BITMAP
FFF000
FFF000
FFF000
FFF000
01F000
01F000
01F000
01F000
01F000
01F000
01F000
01F000
01F000
01F000
01F000
01F000
FFFFE0
FFFFE0
FFFFE0
FFFFE0
01F000
01F000
01F000
01F000
01F000
01F000
01F000
01F000
01F000
01F000
00F000
00F000
00F800
00F800
00FFFC
007FFC
003FFC
001FF8
0003C0
ENDCHAR
STARTCHAR 019B
ENCODING 411
SWIDTH 486 0
DWIDTH 27 0
BBX 24 39 2 0
BITMAP
080000
7F0000
3FC000
3FE000
07E0C0
01F7E0
01FFE0
01FF80
0FFC00
1FFC00
1FFC00
0C3C00
003E00
003E00
007F00
007F00
00FF00
00FF80
01F780
01E7C0
03E7C0
03C3C0
03C3E0
07C3E0
0781E0
0F81F0
0F01F0
1F00F0
1F00F8
1E00F8
3E0078
3C007C
3C007C
7C007C
78003E
78003E
F8003E
F8003F
F0001F
ENDCHAR
STARTCHAR 019C
ENCODING 412
SWIDTH 486 0
DWIDTH 27 0
BBX 23 35 2 -1
BITMAP
F8001E
F8001E
F8001E
F8001E
F8001E
F8001E
F8001E
F8001E
F8001E
F8001E
F8001E
F8001E
F8001E
F83C1E
F83C1E
F83C1E
F83C1E
F83C1E
F83C1E
F83C1E
F83C1E
F83C1E
F83C1E
F83C1E
F83C1E
783C1E
783C1E
783C1E
783E1E
7C1E1E
3E3F1E
3FFFFE
1FFFFE
0FFFFE
01C0E0
ENDCHAR
STARTCHAR 019D
ENCODING 413
SWIDTH 486 0
DWIDTH 27 0
BBX 28 43 -3 -9
BITMAP
03E000F0
03F000F0
03F000F0
03F800F0
03F800F0
03FC00F0
03FE00F0
03DE00F0
03DF00F0
03CF00F0
03CF80F0
03C780F0
03C7C0F0
03C3C0F0
03C3E0F0
03C1E0F0
03C0F0F0
03C0F0F0
03C078F0
03C078F0
03C03CF0
03C03CF0
03C01EF0
03C01EF0
03C00FF0
03C00FF0
03C007F0
03C007F0
03C007F0
03C003F0
03C003F0
03C001F0
03C001F0
03C001F0
03C00000
03C00000
03C00000
03C00000
07C00000
7F800000
7F800000
7F000000
FE000000
ENDCHAR
STARTCHAR 019E
ENCODING 414
SWIDTH 486 0
DWIDTH 27 0
BBX 20 35 4 -9
BITMAP
3FFE00
FFFF00
FFFFC0
FFFFC0
F807E0
F803E0
F801F0
F801F0
F801F0
F801F0
F801F0
F801F0
F801F0
F801F0
F801F0
F801F0
F801F0
F801F0
F801F0
F801F0
F801F0
F801F0
F801F0
F801F0
F801F0
F801F0
0001F0
0001F0
0001F0
0001F0
0001F0
0001F0
0001F0
0001F0
0001F0
ENDCHAR
STARTCHAR 019F
ENCODING 415
SWIDTH 486 0
DWIDTH 27 0
BBX 24 36 2 -1
BITMAP
00FF00
03FFC0
07FFE0
0FFFF0
1F81F8
3E00FC
3E007C
7C003E
7C003E
78003E
F8001E
F8001F
F8001F
F0001F
F0001F
F0001F
FFFFFF
FFFFFF
FFFFFF
F0001F
F0001F
F0001F
F8001F
F8001F
F8001F
F8001E
78003E
7C003E
7C007C
3E007C
3F00F8
1FC3F8
0FFFF0
07FFE0
03FF80
003C00
ENDCHAR
STARTCHAR 01A0
ENCODING 416
SWIDTH 486 0
DWIDTH 27 0
BBX 25 41 2 -1
BITMAP
00000780
00000780
00000780
00000780
00000780
00FF0780
03FFCF00
07FFFF00
0FFFFE00
1F81FC00
3E00FC00
3E007C00
7C003E00
7C003E00
78003E00
F8001E00
F8001F00
F8001F00
F0001F00
F0001F00
F0001F00
F0000F00
F0000F00
F0000F00
F0000F00
F0001F00
F0001F00
F8001F00
F8001F00
F8001F00
F8001E00
78003E00
7C003E00
7C007C00
3E007C00
3F00F800
1FC3F800
0FFFF000
07FFE000
03FF8000
003C0000
ENDCHAR
STARTCHAR 01A1
ENCODING 417
SWIDTH 486 0
DWIDTH 27 0
BBX 24 32 2 -1
BITMAP
00000F
00000F
00000F
00000F
00000F
01FF0F
03FFDE
0FFFFE
1FFFFC
1F81F8
3E00FC
7E007C
7C003E
7C003E
78003E
F8001E
F8001E
F8001F
F8001F
F8001F
F8001E
F8003E
7C003E
7C003E
7C007C
3E00FC
3F01F8
1FFFF8
0FFFF0
07FFE0
01FF80
001800
ENDCHAR
STARTCHAR 01A2
ENCODING 418
SWIDTH 486 0
DWIDTH 27 0
BBX 24 36 2 -1
BITMAP
03E1F8
0FFFFC
1FFFFE
1FFFFE
3E3E1F
3C1E1F
3C1E0F
7C1F0F
7C0F0F
780F0F
780F0F
780F0F
780F0F
780F0F
780F8F
780F8F
F80F8F
F80F8F
F80F8F
780F8F
780F8F
780F8F
780F0F
780F0F
780F0F
780F0F
780F0F
7C1F0F
3C1F0F
3C1E0F
3E3E0F
1E3C0F
1FFC0F
0FF80F
07F00F
01C000
ENDCHAR
STARTCHAR 01A3
ENCODING 419
SWIDTH 486 0
DWIDTH 27 0
BBX 24 35 1 -9
BITMAP
07E3F8
0FFFFC
1FFFFE
3FFFFE
3C3E3E
7C1E1F
781E1F
781E1F
781F1F
781F1F
781F1F
781F1F
F81F1F
F81F1F
781F1F
781F1F
781F1F
781F1F
781E1F
781E1F
7C1E1F
3C3E1F
3E7C1F
1FFC1F
1FF81F
07F01F
01801F
00001F
00001F
00001F
00001F
00001F
00001F
00001F
00001F
ENDCHAR
STARTCHAR 01A4
ENCODING 420
SWIDTH 486 0
DWIDTH 27 0
BBX 25 35 1 0
BITMAP
007F8000
0FFFF000
1FFFFC00
7FFFFE00
7FF07F00
F8F01F00
F0F00F00
F0F00F80
F0F00F80
F0F00F80
80F00F80
00F00F80
00F00F80
00F00F80
00F00F80
00F00F00
00F01F00
00F03F00
00FFFE00
00FFFC00
00FFF800
00FFE000
00F00000
00F00000
00F00000
00F00000
00F00000
00F00000
00F00000
00F00000
00F00000
00F00000
00F00000
00F00000
00F00000
ENDCHAR
STARTCHAR 01A5
ENCODING 421
SWIDTH 486 0
DWIDTH 27 0
BBX 22 48 4 -9
BITMAP
010000
1FC000
3FC000
7FC000
7E0000
F80000
F80000
F80000
F80000
F80000
F80000
F80000
F80000
FFFC00
FFFF00
FFFF80
FFFFC0
F807E0
F803F0
F801F0
F800F8
F800F8
F800F8
F80078
F80078
F8007C
F8007C
F8007C
F80078
F800F8
F800F8
F800F8
F801F8
F801F0
FC03F0
FFFFE0
FFFFC0
FFFF80
FFFE00
F87000
F80000
F80000
F80000
F80000
F80000
F80000
F80000
F80000
ENDCHAR
STARTCHAR 01A6
ENCODING 422
SWIDTH 486 0
DWIDTH 27 0
BBX 24 44 3 -5
BITMAP
F80000
F80000
F80000
F80000
FFF000
FFFE00
FFFF80
FFFFC0
F81FE0
F803F0
F801F0
F800F8
F800F8
F800F8
F800F8
F800F8
F800F8
F800F8
F800F0
F801F0
F803E0
F83FE0
FFFFC0
FFFF00
FFFE00
F83E00
F81F00
F81F00
F80F80
F807C0
F807C0
F803E0
F803E0
F801F0
F801F0
F801F0
F800F8
F800F8
F8007C
00007C
00003E
00003E
00003F
00001F
ENDCHAR
STARTCHAR 01A7
ENCODING 423
SWIDTH 486 0
DWIDTH 27 0
BBX 21 36 3 -1
BITMAP
07FE00
3FFF80
3FFFC0
3FFFE0
3C03F0
0001F0
0000F8
0000F8
0000F8
0000F8
0000F8
0000F8
0001F0
0003F0
000FE0
003FC0
01FF80
07FF00
0FFC00
1FE000
3F8000
7E0000
7C0000
F80000
F80000
F80000
F80000
F80000
F80000
FC0000
7E0038
7F81F8
3FFFF8
1FFFF8
07FFE0
00FE00
ENDCHAR
STARTCHAR 01A8
ENCODING 424
SWIDTH 486 0
DWIDTH 27 0
BBX 20 27 4 -1
BITMAP
3FFE00
7FFF80
7FFFC0
7FFFE0
2003E0
0001E0
0001F0
0001F0
0003E0
0007E0
003FC0
00FFC0
07FF00
1FFC00
3FF000
7F8000
FE0000
F80000
F00000
F00000
F00000
F80060
FF07F0
7FFFF0
3FFFF0
0FFFC0
003400
ENDCHAR
STARTCHAR 01A9
ENCODING 425
SWIDTH 486 0
DWIDTH 27 0
BBX 23 34 2 0
BITMAP
7FFFFE
7FFFFE
7FFFFE
7FFFFE
3E0000
1F0000
0F8000
0F8000
07C000
03E000
01F000
01F000
00F800
007C00
003E00
003F00
001F00
003E00
007C00
00F800
00F800
01F000
03E000
07C000
0F8000
0F8000
1F0000
3E0000
7C0000
7C0000
FFFFFE
FFFFFE
FFFFFE
FFFFFE
ENDCHAR
STARTCHAR 01AA
ENCODING 426
SWIDTH 486 0
DWIDTH 27 0
BBX 23 48 2 -9
BITMAP
010000
1FF000
3FF800
7FFC00
787C00
703E00
F03E00
F01E00
F01E00
783E00
7FFE00
3FFE00
1FFE00
079E00
001E00
001E00
001E00
001E00
001E00
001E00
001E00
001E00
001E00
001E00
001E00
001E00
001E00
001E00
001E00
001E00
001E00
001E00
001E00
001E00
001E00
001E00
001E00
001E00
001E00
001E00
001E00
001F00
001F00
000F80
000FFE
0007FE
0003FE
0000FE
ENDCHAR
STARTCHAR 01AB
ENCODING 427
SWIDTH 486 0
DWIDTH 27 0
BBX 22 43 3 -9
BITMAP
006000
03E000
03E000
03E000
03E000
03E000
03E000
03E000
FFFFF8
FFFFF8
FFFFF8
FFFFF8
03E000
03E000
03E000
03E000
03E000
03E000
03E000
03E000
03E000
03E000
03E000
03E000
03E000
03E000
03E000
03E000
03E000
01F000
01FFFC
01FFFC
00FFFC
003FFC
00003C
00003C
00003C
00003C
00007C
0000FC
0007F8
0007F8
000FE0
ENDCHAR
STARTCHAR 01AC
ENCODING 428
SWIDTH 486 0
DWIDTH 27 0
BBX 25 34 1 0
BITMAP
0FFFFF80
3FFFFF80
7FFFFF80
7FFFFF80
F80F0000
F00F0000
F00F0000
F00F0000
F00F0000
800F0000
000F0000
000F0000
000F0000
000F0000
000F0000
000F0000
000F0000
000F0000
000F0000
000F0000
000F0000
000F0000
000F0000
000F0000
000F0000
000F0000
000F0000
000F0000
000F0000
000F0000
000F0000
000F0000
000F0000
000F0000
ENDCHAR
STARTCHAR 01AD
ENCODING 429
SWIDTH 486 0
DWIDTH 27 0
BBX 23 40 3 -1
BITMAP
000080
001FFE
007FFC
00FFFC
01FF7C
01F000
01F000
03E000
03E000
03E000
03E000
03E000
03E000
FFFFF8
FFFFF8
FFFFF8
FFFFF8
03E000
03E000
03E000
03E000
03E000
03E000
03E000
03E000
03E000
03E000
03E000
03E000
03E000
03E000
03E000
03E000
03E000
01F000
01FFFC
01FFFC
00FFFC
003FF8
0007C0
ENDCHAR
STARTCHAR 01AE
ENCODING 430
SWIDTH 486 0
DWIDTH 27 0
BBX 24 43 2 -9
BITMAP
FFFFFF
FFFFFF
FFFFFF
FFFFFF
003C00
003C00
003C00
003C00
003C00
003C00
003C00
003C00
003C00
003C00
003C00
003C00
003C00
003C00
003C00
003C00
003C00
003C00
003C00
003C00
003C00
003C00
003C00
003C00
003C00
003C00
003C00
003C00
003C00
003C00
003C00
003C00
003C00
003C00
003E00
003FE0
001FE0
000FE0
0007F0
ENDCHAR
STARTCHAR 01AF
ENCODING 431
SWIDTH 486 0
DWIDTH 27 0
BBX 24 41 3 -1
BITMAP
00000F
00000F
00000F
00000F
00000F
00003F
F001FE
F001FC
F001F8
F001E0
F001E0
F001E0
F001E0
F001E0
F001E0
F001E0
F001E0
F001E0
F001E0
F001E0
F001E0
F001E0
F001E0
F001E0
F001E0
F001E0
F001E0
F001E0
F001E0
F001E0
F003E0
F003E0
F803E0
F803E0
F803C0
7C07C0
7F1FC0
3FFF80
1FFF00
0FFE00
01F000
ENDCHAR
STARTCHAR 01B0
ENCODING 432
SWIDTH 486 0
DWIDTH 27 0
BBX 22 32 4 -1
BITMAP
00003C
00003C
00003C
00003C
00007C
F007FC
F007F8
F007F0
F00780
F00780
F00780
F00780
F00780
F00780
F00780
F00780
F00780
F00780
F00780
F00780
F00780
F00780
F80780
F80780
F80780
F80780
7C0780
7FFF80
3FFF80
1FFF80
0FFF00
008000
ENDCHAR
STARTCHAR 01B1
ENCODING 433
SWIDTH 486 0
DWIDTH 27 0
BBX 26 35 1 -1
BITMAP
FFE1FFC0
FFE1FFC0
FFE1FFC0
FFC1FFC0
07C0F000
07807800
0F007C00
1F003C00
1E003E00
1E001E00
3E001E00
3C001F00
3C001F00
7C000F00
7C000F80
7C000F80
78000F80
78000F80
78000F80
78000F80
78000F80
78000F80
7C000F80
7C000F80
7C000F00
3C001F00
3E001F00
3E003E00
1F003E00
1F807C00
0FE1FC00
07FFF800
03FFF000
00FFC000
003F0000
ENDCHAR
STARTCHAR 01B2
ENCODING 434
SWIDTH 486 0
DWIDTH 27 0
BBX 23 36 2 -1
BITMAP
003800
F83F80
F83FE0
F83FF0
F807F8
F801F8
F800FC
F8007C
F8003C
F8003E
F8003E
F8003E
F8003E
F8001E
F8001E
F8001E
F8001E
F8001E
F8001E
F8001E
F8001E
F8001E
F8001E
F8003E
78003E
78003E
78003C
7C007C
7C007C
7C00F8
3E01F8
3F87F0
1FFFE0
0FFFC0
07FF00
00F800
ENDCHAR
STARTCHAR 01B3
ENCODING 435
SWIDTH 486 0
DWIDTH 27 0
BBX 29 35 1 0
BITMAP
000003C0
F8000FF0
F8001FF8
7C001FF0
7C003E60
3E003C20
3E007800
1F007800
1F007800
0F00F000
0F80F000
0781E000
07C1E000
03C1E000
03E3C000
01E3C000
01F78000
00FF8000
00FF8000
007F0000
003F0000
003E0000
001E0000
001E0000
001E0000
001E0000
001E0000
001E0000
001E0000
001E0000
001E0000
001E0000
001E0000
001E0000
001E0000
ENDCHAR
STARTCHAR 01B4
ENCODING 436
SWIDTH 486 0
DWIDTH 27 0
BBX 26 35 1 -9
BITMAP
7C001FC0
7C003FC0
7C007FC0
3C007E80
3E007800
3E00F800
3E00F800
1F00F000
1F00F000
1F01F000
0F01F000
0F81E000
0F81E000
0781E000
07C3C000
03C3C000
03E3C000
03E7C000
01E78000
01F78000
00F78000
00FF0000
007F0000
007F0000
007E0000
003E0000
003E0000
003C0000
007C0000
00780000
00F80000
7FF00000
7FE00000
FFC00000
FF000000
ENDCHAR
STARTCHAR 01B5
ENCODING 437
SWIDTH 486 0
DWIDTH 27 0
BBX 22 34 3 0
BITMAP
7FFFFC
7FFFFC
7FFFFC
7FFFFC
0000F8
0001F0
0003F0
0003E0
0007C0
000FC0
000F80
001F00
001F00
003E00
3FFFF8
3FFFF8
3FFFF8
3FFFF8
01F000
03E000
03E000
07C000
07C000
0F8000
1F0000
1F0000
3E0000
3E0000
7C0000
7C0000
FFFFFC
FFFFFC
FFFFFC
FFFFFC
ENDCHAR
STARTCHAR 01B6
ENCODING 438
SWIDTH 486 0
DWIDTH 27 0
BBX 20 26 4 0
BITMAP
7FFFE0
7FFFE0
7FFFE0
7FFFE0
0007E0
000FC0
001F80
001F00
003E00
007C00
00FC00
7FFFE0
7FFFE0
7FFFE0
07E000
07C000
0F8000
1F8000
1F0000
3E0000
7E0000
7C0000
FFFFF0
FFFFF0
FFFFF0
FFFFF0
ENDCHAR
STARTCHAR 01B7
ENCODING 439
SWIDTH 486 0
DWIDTH 27 0
BBX 24 35 2 -1
BITMAP
7FFFFE
7FFFFE
7FFFFE
7FFFFC
0000F8
0001F8
0003F0
0003E0
0007C0
000F80
001F00
003E00
007C00
00F800
01FE00
01FFC0
01FFF0
01FFF8
0001FC
00007E
00003E
00001E
00001F
00001F
00001F
00001F
00001F
00003E
00007E
E000FC
FE0FFC
FFFFF8
FFFFE0
3FFF80
01F800
ENDCHAR
STARTCHAR 01B8
ENCODING 440
SWIDTH 486 0
DWIDTH 27 0
BBX 22 35 4 -1
BITMAP
FFFFF8
FFFFF8
FFFFF8
7FFFF8
3E0000
3F0000
1F0000
0F8000
07C000
03E000
03E000
01F000
00F800
007C00
00FE00
07FE00
1FFE00
3FFE00
7F0000
7C0000
F80000
F80000
F00000
F00000
F00000
F00000
F80000
F80000
FC0000
7E0010
7FC1F8
3FFFF8
0FFFFC
07FFF0
007E00
ENDCHAR
STARTCHAR 01B9
ENCODING 441
SWIDTH 486 0
DWIDTH 27 0
BBX 22 35 3 -9
BITMAP
3FFFF8
3FFFF8
3FFFF8
3FFFF8
1F0000
1F0000
0F8000
07C000
03E000
03E000
01F000
00F800
007C00
003C00
003E00
01FF00
07FF00
1FFF00
3FE000
3F0000
7C0000
7C0000
780000
780000
F80000
780000
780000
7C0000
7C0000
3E0000
3F8018
1FFFF8
0FFFFC
03FFFC
00FFE0
ENDCHAR
STARTCHAR 01BA
ENCODING 442
SWIDTH 486 0
DWIDTH 27 0
BBX 20 35 3 -9
BITMAP
FFFFF0
FFFFF0
FFFFF0
FFFFE0
0003C0
0007C0
000F80
001F00
003E00
007C00
00F800
03F000
03FC00
03FF80
03FFC0
001FE0
0003F0
0001F0
0000F0
0000F0
0000F0
0001F0
0001F0
0007F0
001FE0
01FFC0
1FFF80
7FFE00
7FE000
FE0000
F80000
F00000
F00000
F00000
F00000
ENDCHAR
STARTCHAR 01BB
ENCODING 443
SWIDTH 486 0
DWIDTH 27 0
BBX 21 35 4 0
BITMAP
07FC00
3FFF00
7FFF80
FFFFC0
FC0FC0
F007E0
4003E0
0003E0
0001E0
0001E0
0001E0
0003E0
0003E0
0003C0
0007C0
000F80
001F80
7FFFF0
7FFFF0
7FFFF0
7FFFF0
03F000
07E000
0FC000
1F8000
1F0000
3E0000
7E0000
7C0000
780000
F80000
FFFFF8
FFFFF8
FFFFF8
FFFFF8
ENDCHAR
STARTCHAR 01BC
ENCODING 444
SWIDTH 486 0
DWIDTH 27 0
BBX 23 35 2 -1
BITMAP
FFFFF8
FFFFF8
FFFFF8
FFFFF8
078000
078000
078000
078000
078000
078000
0F8000
0F0000
0F0000
0FFC00
0FFF80
0FFFC0
0FFFE0
000FF0
0003F8
0000FC
00007C
00007C
00003C
00003E
00003E
00003E
00003C
00007C
0000FC
2001F8
3E0FF8
3FFFF0
3FFFC0
1FFF80
00F800
ENDCHAR
STARTCHAR 01BD
ENCODING 445
SWIDTH 486 0
DWIDTH 27 0
BBX 21 27 3 -1
BITMAP
FFFFF0
FFFFF0
FFFFF0
FFFFF0
0F0000
0F0000
0F0000
0F0000
0F0000
0F0000
0FFC00
0FFF80
1FFFE0
1FFFF0
0003F0
0000F8
0000F8
000078
000078
0000F8
0000F8
2001F8
3E0FF0
7FFFE0
7FFFC0
3FFF00
00F000
ENDCHAR
STARTCHAR 01BE
ENCODING 446
SWIDTH 486 0
DWIDTH 27 0
BBX 23 35 3 -1
BITMAP
004000
03C000
03C000
03C000
03C000
03C000
03C000
03C000
FFFFF8
FFFFF8
FFFFF8
FFFFF8
03C000
03C000
03C000
03E000
03E000
03F000
01F800
01FE00
00FFC0
007FF0
001FF8
0003FC
0000FC
00007E
00003E
00003E
00003E
18007C
1F81FC
3FFFF8
3FFFF0
0FFFE0
00B000
ENDCHAR
STARTCHAR 01BF
ENCODING 447
SWIDTH 486 0
DWIDTH 27 0
BBX 22 35 4 -9
BITMAP
1FFE00
FFFF80
FFFFC0
FFFFE0
F807F0
F801F0
F800F8
F800F8
F80078
F8007C
F8007C
F8007C
F8007C
F8007C
F80078
F800F8
F800F8
F801F8
F803F0
F807E0
F80FE0
F81FC0
F87F80
F9FF00
FFFC00
FFF800
FFE000
FF0000
F80000
F80000
F80000
F80000
F80000
F80000
F80000
ENDCHAR
STARTCHAR 01C0
ENCODING 448
SWIDTH 486 0
DWIDTH 27 0
BBX 4 48 12 -9
BITMAP
F0
F0
F0
F0
F0
F0
F0
F0
F0
F0
F0
F0
F0
F0
F0
F0
F0
F0
F0
F0
F0
F0
F0
F0
F0
F0
F0
F0
F0
F0
F0
F0
F0
F0
F0
F0
F0
F0
F0
F0
F0
F0
F0
F0
F0
F0
F0
F0
ENDCHAR
STARTCHAR 01C1
ENCODING 449
SWIDTH 486 0
DWIDTH 27 0
BBX 14 48 7 -9
BITMAP
F03C
F03C
F03C
F03C
F03C
F03C
F03C
F03C
F03C
F03C
F03C
F03C
F03C
F03C
F03C
F03C
F03C
F03C
F03C
F03C
F03C
F03C
F03C
F03C
F03C
F03C
F03C
F03C
F03C
F03C
F03C
F03C
F03C
F03C
F03C
F03C
F03C
F03C
F03C
F03C
F03C
F03C
F03C
F03C
F03C
F03C
F03C
F03C
ENDCHAR
STARTCHAR 01C2
ENCODING 450
SWIDTH 486 0
DWIDTH 27 0
BBX 24 48 2 -9
BITMAP
003C00
003C00
003C00
003C00
003C00
003C00
003C00
003C00
003C00
003C00
003C00
003C00
003C00
003C00
003C00
003C00
003C00
FFFFFF
FFFFFF
FFFFFF
FFFFFF
003C00
003C00
003C00
003C00
003C00
003C00
FFFFFF
FFFFFF
FFFFFF
FFFFFF
003C00
003C00
003C00
003C00
003C00
003C00
003C00
003C00
003C00
003C00
003C00
003C00
003C00
003C00
003C00
003C00
003C00
ENDCHAR
STARTCHAR 01C3
ENCODING 451
SWIDTH 486 0
DWIDTH 27 0
BBX 7 35 10 -1
BITMAP
7C
7C
7C
7C
7C
7C
7C
7C
7C
7C
7C
7C
7C
7C
7C
3C
3C
3C
3C
3C
3C
38
00
00
00
00
00
38
7E
FE
FE
FE
FE
7E
18
ENDCHAR
STARTCHAR 01C4
ENCODING 452
SWIDTH 486 0
DWIDTH 27 0
BBX 27 45 1 0
BITMAP
000180C0
0003C1E0
0001E3C0
0000F780
00007F00
00003E00
00001C00
00000800
00000000
00000000
3E000000
FF80FFC0
FFC0FFC0
FFE0FFC0
F1F0FFC0
F0F00780
F0F80780
F0780780
F0780F00
F0780F00
F03C0F00
F03C0F00
F03C1E00
F03C1E00
F03C1E00
F03C1E00
F03C3C00
F03C3C00
F03C3C00
F03C3C00
F03C7800
F03C7800
F03C7800
F03C7800
F03C7000
F07CF000
F078F000
F078F000
F078E000
F0F1E000
F1F1E000
FFE1FFC0
FFE1FFC0
FFC1FFC0
FF01FFC0
ENDCHAR
STARTCHAR 01C5
ENCODING 453
SWIDTH 486 0
DWIDTH 27 0
BBX 27 36 1 0
BITMAP
00002040
3E0070E0
FF807BE0
FFC03FC0
FFE01F80
F1F00E00
F0F00000
F0F80000
F0780000
F0780000
F0787FC0
F03C7FC0
F03C7FC0
F03C7FC0
F03C0380
F03C0380
F03C0780
F03C0700
F03C0700
F03C0F00
F03C0E00
F03C0E00
F03C1E00
F03C1C00
F03C1C00
F03C3C00
F07C3800
F0783800
F0787800
F0787800
F0F07000
F1F07000
FFE0FFC0
FFE0FFC0
FFC0FFC0
FF00FFC0
ENDCHAR
STARTCHAR 01C6
ENCODING 454
SWIDTH 486 0
DWIDTH 27 0
BBX 28 39 0 0
BITMAP
003C0000
003C0000
003C1020
003C3870
003C3DF0
003C1FE0
003C0FC0
003C0700
003C0000
003C0000
003C0000
003C0000
0FFC3FE0
1FFC3FE0
3FFC3FE0
3FFC3FE0
7C3C01E0
783C01E0
783C01C0
783C03C0
783C03C0
F03C0380
F03C0780
F03C0780
F03C0700
F03C0F00
F03C0F00
F03C0E00
F03C1E00
783C1E00
783C1C00
783C1C00
783C3C00
3C3C3C00
3C3C3FE0
1FFC3FE0
1FFC3FE0
0FFC3FE0
01800000
ENDCHAR
STARTCHAR 01C7
ENCODING 455
SWIDTH 486 0
DWIDTH 27 0
BBX 24 34 2 0
BITMAP
F8000F
F8000F
F8000F
F8000F
F8000F
F8000F
F8000F
F8000F
F8000F
F8000F
F8000F
F8000F
F8000F
F8000F
F8000F
F8000F
F8000F
F8000F
F8000F
F8000F
F8000F
F8000F
F8000F
F8000F
F8000F
F8000F
F8000F
F8001F
F8001F
F8003F
FFF3FE
FFF3FE
FFF3FC
FFF3F0
ENDCHAR
STARTCHAR 01C8
ENCODING 456
SWIDTH 486 0
DWIDTH 27 0
BBX 23 46 3 -9
BITMAP
00001C
00007E
00007E
F8007E
F8007E
F8007E
F80018
F80000
F80000
F80000
F80000
F8003C
F8003C
F8003C
F8003C
F8003C
F8003C
F8003C
F8003C
F8003C
F8003C
F8003C
F8003C
F8003C
F8003C
F8003C
F8003C
F8003C
F8003C
F8003C
F8003C
F8003C
F8003C
FFF83C
FFF83C
FFF83C
FFF83C
00003C
00003C
00007C
00007C
0000F8
001FF8
001FF0
001FE0
003FC0
ENDCHAR
STARTCHAR 01C9
ENCODING 457
SWIDTH 486 0
DWIDTH 27 0
BBX 18 47 5 -8
BITMAP
F80000
F80380
F80FC0
F80FC0
F80FC0
F80FC0
F80FC0
F80300
F80000
F80000
F80000
F80000
F80780
F80780
F80780
F80780
F80780
F80780
F80780
F80780
F80780
F80780
F80780
F80780
F80780
F80780
F80780
F80780
F80780
F80780
F80780
F80780
780780
7C0780
7F0780
7F0780
3F0780
1E0780
000780
000780
000F80
000F80
001F80
03FF00
03FE00
03FC00
07F800
ENDCHAR
STARTCHAR 01CA
ENCODING 458
SWIDTH 486 0
DWIDTH 27 0
BBX 24 34 2 0
BITMAP
F0380F
F0380F
F0380F
F8380F
F8380F
F8380F
FC380F
FC380F
FC380F
FC380F
FE380F
FE380F
EE380F
EE380F
EF380F
EF380F
E7380F
E7B80F
E7B80F
E3B80F
E3B80F
E3F80F
E3F80F
E1F80F
E1F80F
E1F80F
E0F80F
E0F80F
E0F80F
E0F81F
E078FE
E078FE
E078FC
E078E0
ENDCHAR
STARTCHAR 01CB
ENCODING 459
SWIDTH 486 0
DWIDTH 27 0
BBX 24 46 2 -9
BITMAP
00000E
00001F
00003F
F0383F
F0383F
F0381F
F8380E
F83800
F83800
FC3800
FC3800
FC381E
FC381E
FE381E
FE381E
EE381E
EE381E
EF381E
EF381E
E7381E
E7B81E
E7B81E
E3B81E
E3B81E
E3F81E
E3F81E
E1F81E
E1F81E
E1F81E
E0F81E
E0F81E
E0F81E
E0F81E
E0781E
E0781E
E0781E
E0781E
00001E
00001E
00001E
00003E
00003E
000FFC
000FFC
000FF8
000FE0
ENDCHAR
STARTCHAR 01CC
ENCODING 460
SWIDTH 486 0
DWIDTH 27 0
BBX 24 46 2 -9
BITMAP
00000E
00003F
00003F
00003F
00003F
00003F
00000C
000000
000000
000000
000000
7FE01E
FFF01E
FFF81E
FFF81E
F07C1E
F07C1E
F03C1E
F03C1E
F03C1E
F03C1E
F03C1E
F03C1E
F03C1E
F03C1E
F03C1E
F03C1E
F03C1E
F03C1E
F03C1E
F03C1E
F03C1E
F03C1E
F03C1E
F03C1E
F03C1E
F03C1E
00001E
00001E
00001E
00003E
00007C
000FFC
000FF8
000FF0
001FE0
ENDCHAR
STARTCHAR 01CD
ENCODING 461
SWIDTH 486 0
DWIDTH 27 0
BBX 26 46 1 0
BITMAP
00804000
01C0E000
01E1E000
01F3C000
00FF8000
007F0000
003E0000
001E0000
000C0000
00000000
00000000
00000000
003F0000
007F8000
007F8000
007F8000
00FFC000
00F3C000
00F3C000
01E3E000
01E1E000
01E1E000
03C1F000
03C0F000
03C0F000
0780F800
0780F800
07807800
0F807800
0F007C00
0F003C00
1F003C00
1E003E00
1FFFFE00
1FFFFE00
3FFFFE00
3FFFFF00
3C000F00
7C000F00
7C000F80
78000F80
78000F80
F8000780
F80007C0
F80007C0
F00007C0
ENDCHAR
STARTCHAR 01CE
ENCODING 462
SWIDTH 486 0
DWIDTH 27 0
BBX 21 39 3 -1
BITMAP
060100
0F0380
078780
03DF00
01FE00
00FC00
007800
003000
002000
000000
000000
000000
1FFF00
1FFFC0
1FFFE0
1FFFF0
0003F0
0001F8
0000F8
0000F8
0000F8
0000F8
003CF8
07FFF8
1FFFF8
3FFFF8
7F00F8
7C00F8
F800F8
F800F8
F800F8
F800F8
F800F8
7C00F8
7F81F8
3FFFF8
1FFFF8
07FFF8
003800
ENDCHAR
STARTCHAR 01CF
ENCODING 463
SWIDTH 486 0
DWIDTH 27 0
BBX 18 46 5 0
BITMAP
080400
1C0E00
1E1E00
1F3C00
0FF800
07F000
03E000
01E000
00C000
000000
000000
000000
FFFFC0
FFFFC0
FFFFC0
FFFFC0
01E000
01E000
01E000
01E000
01E000
01E000
01E000
01E000
01E000
01E000
01E000
01E000
01E000
01E000
01E000
01E000
01E000
01E000
01E000
01E000
01E000
01E000
01E000
01E000
01E000
01E000
FFFFC0
FFFFC0
FFFFC0
FFFFC0
ENDCHAR
STARTCHAR 01D0
ENCODING 464
SWIDTH 486 0
DWIDTH 27 0
BBX 22 39 3 -1
BITMAP
180600
1C0E00
1E1E00
0F3C00
07F800
03F000
01E000
00C000
000000
000000
000000
000000
FFF000
FFF000
FFF000
FFF000
01F000
01F000
01F000
01F000
01F000
01F000
01F000
01F000
01F000
01F000
01F000
01F000
01F000
01F000
00F000
00F000
00F800
00F800
00FFFC
007FFC
003FFC
001FF8
0003C0
ENDCHAR
STARTCHAR 01D1
ENCODING 465
SWIDTH 486 0
DWIDTH 27 0
BBX 24 47 2 -1
BITMAP
010080
0381C0
03C3C0
03E780
01FF00
00FE00
007C00
003C00
001800
000000
000000
00FF00
03FFC0
07FFE0
0FFFF0
1F81F8
3E00FC
3E007C
7C003E
7C003E
78003E
F8001E
F8001F
F8001F
F0001F
F0001F
F0001F
F0000F
F0000F
F0000F
F0000F
F0001F
F0001F
F8001F
F8001F
F8001F
F8001E
78003E
7C003E
7C007C
3E007C
3F00F8
1FC3F8
0FFFF0
07FFE0
03FF80
003C00
ENDCHAR
STARTCHAR 01D2
ENCODING 466
SWIDTH 486 0
DWIDTH 27 0
BBX 24 39 2 -1
BITMAP
030080
0781C0
03C3C0
01EF80
00FF00
007E00
003C00
001800
001000
000000
000000
000000
01FF00
03FFC0
0FFFE0
1FFFF0
1F81F8
3E00FC
7E007C
7C003E
7C003E
78003E
F8001E
F8001E
F8001F
F8001F
F8001F
F8001E
F8003E
7C003E
7C003E
7C007C
3E00FC
3F01F8
1FFFF8
0FFFF0
07FFE0
01FF80
001800
ENDCHAR
STARTCHAR 01D3
ENCODING 467
SWIDTH 486 0
DWIDTH 27 0
BBX 22 47 3 -1
BITMAP
020100
070380
078780
07CF00
03FE00
01FC00
00F800
007800
003000
000000
000000
000000
F0003C
F0003C
F0003C
F0003C
F0003C
F0003C
F0003C
F0003C
F0003C
F0003C
F0003C
F0003C
F0003C
F0003C
F0003C
F0003C
F0003C
F0003C
F0003C
F0003C
F0003C
F0003C
F0003C
F0007C
F0007C
F8007C
F8007C
F80078
7C00F8
7E01F8
3F87F0
3FFFE0
1FFFC0
07FF80
00FC00
ENDCHAR
STARTCHAR 01D4
ENCODING 468
SWIDTH 486 0
DWIDTH 27 0
BBX 20 39 4 -1
BITMAP
0C0200
1E0700
0F0F00
07BE00
03FC00
01F800
00F000
006000
004000
000000
000000
000000
F001F0
F001F0
F001F0
F001F0
F001F0
F001F0
F001F0
F001F0
F001F0
F001F0
F001F0
F001F0
F001F0
F001F0
F001F0
F001F0
F001F0
F801F0
F801F0
F801F0
7C01F0
7E01F0
7FFFF0
3FFFF0
1FFFF0
07FFE0
006800
ENDCHAR
STARTCHAR 01D5
ENCODING 469
SWIDTH 486 0
DWIDTH 27 0
BBX 22 47 3 -1
BITMAP
07FF80
07FF80
07FF80
000000
000000
0F03C0
1F07C0
1F87E0
1F07C0
0F03C0
000000
000000
000000
F0003C
F0003C
F0003C
F0003C
F0003C
F0003C
F0003C
F0003C
F0003C
F0003C
F0003C
F0003C
F0003C
F0003C
F0003C
F0003C
F0003C
F0003C
F0003C
F0003C
F0003C
F0003C
F0007C
F0007C
F8007C
F8007C
F80078
7C00F8
7E01F8
3F87F0
3FFFE0
1FFFC0
07FF80
00FC00
ENDCHAR
STARTCHAR 01D6
ENCODING 470
SWIDTH 486 0
DWIDTH 27 0
BBX 20 41 4 -1
BITMAP
0FFF00
0FFF00
0FFF00
000000
000000
040100
1E0780
3F0F80
3F0FC0
1E0780
1C0700
000000
000000
000000
F001F0
F001F0
F001F0
F001F0
F001F0
F001F0
F001F0
F001F0
F001F0
F001F0
F001F0
F001F0
F001F0
F001F0
F001F0
F001F0
F001F0
F801F0
F801F0
F801F0
7C01F0
7E01F0
7FFFF0
3FFFF0
1FFFF0
07FFE0
006800
ENDCHAR
STARTCHAR 01D7
ENCODING 471
SWIDTH 486 0
DWIDTH 27 0
BBX 22 47 3 -1
BITMAP
000800
001C00
001E00
003C00
1C78E0
3E79F0
7E71F0
3E21F0
3C01F0
000040
000000
000000
F0003C
F0003C
F0003C
F0003C
F0003C
F0003C
F0003C
F0003C
F0003C
F0003C
F0003C
F0003C
F0003C
F0003C
F0003C
F0003C
F0003C
F0003C
F0003C
F0003C
F0003C
F0003C
F0003C
F0007C
F0007C
F8007C
F8007C
F80078
7C00F8
7E01F8
3F87F0
3FFFE0
1FFFC0
07FF80
00FC00
ENDCHAR
STARTCHAR 01D8
ENCODING 472
SWIDTH 486 0
DWIDTH 27 0
BBX 20 43 4 -1
BITMAP
000C00
001E00
001E00
003C00
007C00
007800
00F000
086100
3E0780
3E0FC0
3E0FC0
3E07C0
1C0380
000000
000000
000000
F001F0
F001F0
F001F0
F001F0
F001F0
F001F0
F001F0
F001F0
F001F0
F001F0
F001F0
F001F0
F001F0
F001F0
F001F0
F001F0
F001F0
F801F0
F801F0
F801F0
7C01F0
7E01F0
7FFFF0
3FFFF0
1FFFF0
07FFE0
006800
ENDCHAR
STARTCHAR 01D9
ENCODING 473
SWIDTH 486 0
DWIDTH 27 0
BBX 22 47 3 -1
BITMAP
018400
01DE00
01FE00
00FC00
1C70E0
3E21F0
7E01F0
3E01F0
3C01F0
000040
000000
000000
F0003C
F0003C
F0003C
F0003C
F0003C
F0003C
F0003C
F0003C
F0003C
F0003C
F0003C
F0003C
F0003C
F0003C
F0003C
F0003C
F0003C
F0003C
F0003C
F0003C
F0003C
F0003C
F0003C
F0007C
F0007C
F8007C
F8007C
F80078
7C00F8
7E01F8
3F87F0
3FFFE0
1FFFC0
07FF80
00FC00
ENDCHAR
STARTCHAR 01DA
ENCODING 474
SWIDTH 486 0
DWIDTH 27 0
BBX 20 42 4 -1
BITMAP
040600
0F0F00
0FBE00
03FC00
01F800
00E000
080100
3E0780
3E0FC0
3E0FC0
3E07C0
1C0380
000000
000000
000000
F001F0
F001F0
F001F0
F001F0
F001F0
F001F0
F001F0
F001F0
F001F0
F001F0
F001F0
F001F0
F001F0
F001F0
F001F0
F001F0
F001F0
F801F0
F801F0
F801F0
7C01F0
7E01F0
7FFFF0
3FFFF0
1FFFF0
07FFE0
006800
ENDCHAR
STARTCHAR 01DB
ENCODING 475
SWIDTH 486 0
DWIDTH 27 0
BBX 22 47 3 -1
BITMAP
004000
00E000
01E000
00F000
1CF8E0
3E79F0
7E39F0
3E01F0
3C01F0
000040
000000
000000
F0003C
F0003C
F0003C
F0003C
F0003C
F0003C
F0003C
F0003C
F0003C
F0003C
F0003C
F0003C
F0003C
F0003C
F0003C
F0003C
F0003C
F0003C
F0003C
F0003C
F0003C
F0003C
F0003C
F0007C
F0007C
F8007C
F8007C
F80078
7C00F8
7E01F8
3F87F0
3FFFE0
1FFFC0
07FF80
00FC00
ENDCHAR
STARTCHAR 01DC
ENCODING 476
SWIDTH 486 0
DWIDTH 27 0
BBX 20 43 4 -1
BITMAP
030000
078000
078000
07C000
03E000
01E000
00F000
086100
3E0780
3E0FC0
3E0FC0
3E07C0
1C0380
000000
000000
000000
F001F0
F001F0
F001F0
F001F0
F001F0
F001F0
F001F0
F001F0
F001F0
F001F0
F001F0
F001F0
F001F0
F001F0
F001F0
F001F0
F001F0
F801F0
F801F0
F801F0
7C01F0
7E01F0
7FFFF0
3FFFF0
1FFFF0
07FFE0
006800
ENDCHAR
STARTCHAR 01DD
ENCODING 477
SWIDTH 486 0
DWIDTH 27 0
BBX 24 27 2 -1
BITMAP
0FFF00
3FFFC0
1FFFE0
1FFFF0
1003F8
0000FC
00007C
00003E
00003E
00003E
00001E
00001E
FFFFFF
FFFFFF
7FFFFF
7FFFFE
78003E
78003E
7C003E
7C007C
3E00FC
3F01F8
1FC7F0
1FFFE0
0FFFC0
03FF80
007800
ENDCHAR
STARTCHAR 01DE
ENCODING 478
SWIDTH 486 0
DWIDTH 27 0
BBX 26 46 1 0
BITMAP
01FFE000
01FFE000
01FFE000
00000000
00000000
03C0F000
07C1F000
07E1F800
07C1F000
03C0F000
00000000
00000000
00000000
003F0000
007F8000
007F8000
007F8000
00FFC000
00F7C000
00F3C000
01E3E000
01E1E000
01E1E000
03C1F000
03C0F000
03C0F000
0780F800
0780F800
07807800
0F807C00
0F007C00
0F003C00
1F003C00
1FFFFE00
1FFFFE00
3FFFFE00
3FFFFF00
3C001F00
3C000F00
7C000F80
7C000F80
78000F80
F8000780
F80007C0
F80007C0
F00007C0
ENDCHAR
STARTCHAR 01DF
ENCODING 479
SWIDTH 486 0
DWIDTH 27 0
BBX 21 41 3 -1
BITMAP
07FF80
07FF80
07FF80
000000
000000
020080
0F03C0
1F87C0
1F87E0
0F03C0
0E0380
000000
000000
000000
1FFF00
1FFFC0
1FFFE0
1FFFF0
0003F0
0001F8
0000F8
0000F8
0000F8
0000F8
003CF8
07FFF8
1FFFF8
3FFFF8
7F00F8
7C00F8
F800F8
F800F8
F800F8
F800F8
F800F8
7C00F8
7F81F8
3FFFF8
1FFFF8
07FFF8
003800
ENDCHAR
STARTCHAR 01E0
ENCODING 480
SWIDTH 486 0
DWIDTH 27 0
BBX 26 46 1 0
BITMAP
01FFE000
01FFE000
01FFE000
00000000
00000000
001E0000
003F0000
003F0000
003E0000
001E0000
00000000
00000000
00000000
003F0000
007F8000
007F8000
007F8000
00FFC000
00F7C000
00F3C000
01E3E000
01E1E000
01E1E000
03C1F000
03C0F000
03C0F000
0780F800
0780F800
07807800
0F807C00
0F007C00
0F003C00
1F003C00
1FFFFE00
1FFFFE00
3FFFFE00
3FFFFF00
3C001F00
3C000F00
7C000F80
7C000F80
78000F80
F8000780
F80007C0
F80007C0
F00007C0
ENDCHAR
STARTCHAR 01E1
ENCODING 481
SWIDTH 486 0
DWIDTH 27 0
BBX 21 41 3 -1
BITMAP
07FF80
07FF80
07FF80
000000
000000
003000
007800
00FC00
00FC00
00F800
007000
000000
000000
000000
1FFF00
1FFFC0
1FFFE0
1FFFF0
0003F0
0001F8
0000F8
0000F8
0000F8
0000F8
003CF8
07FFF8
1FFFF8
3FFFF8
7F00F8
7C00F8
F800F8
F800F8
F800F8
F800F8
F800F8
7C00F8
7F81F8
3FFFF8
1FFFF8
07FFF8
003800
ENDCHAR
STARTCHAR 01E2
ENCODING 482
SWIDTH 486 0
DWIDTH 27 0
BBX 25 43 2 0
BITMAP
003FFF00
003FFF00
003FFF00
003FFF00
00000000
00000000
00000000
00000000
00000000
003FFF00
007FFF00
007FFF00
0077FF00
00F78000
00F78000
00E78000
01E78000
01E78000
01C78000
03C78000
03C78000
03C78000
07878000
0787FE00
0787FE00
0F07FE00
0F07FE00
0F078000
1F078000
1E078000
1FFF8000
1FFF8000
3FFF8000
3FFF8000
3C078000
7C078000
7C078000
78078000
78078000
F807FF80
F807FF80
F007FF80
F007FF80
ENDCHAR
STARTCHAR 01E3
ENCODING 483
SWIDTH 486 0
DWIDTH 27 0
BBX 25 36 2 -1
BITMAP
07FFE000
07FFE000
07FFE000
00000000
00000000
00000000
00000000
00000000
00000000
3FC1F800
3FF3FC00
3FF7FE00
3FFFFE00
00FF1E00
007E0F00
003E0F00
003E0F00
003C0F00
003C0F00
07BC0F00
1FFFFF80
3FFFFF80
7FFFFF80
7C7C0000
F83C0000
F03C0000
F03C0000
F03E0000
F01E0000
F01F0000
F81F8000
FCFFFE00
7FFFFF00
3FFFFF00
1FE1FE00
03003000
ENDCHAR
STARTCHAR 01E4
ENCODING 484
SWIDTH 486 0
DWIDTH 27 0
BBX 23 36 3 -1
BITMAP
007F80
01FFF0
07FFF8
0FFFF0
1FC070
1F0020
3F0000
3E0000
7C0000
7C0000
F80000
F80000
F80000
F80000
F00000
F00000
F00000
F000F8
F000F8
F000F8
F000F8
F000F8
F80FFE
F80FFE
F80FFE
7800F8
7C00F8
7C00F8
3E00F8
3F00F8
1F80F8
1FE1F8
0FFFF8
03FFF8
01FFF0
003F00
ENDCHAR
STARTCHAR 01E5
ENCODING 485
SWIDTH 486 0
DWIDTH 27 0
BBX 25 35 2 -9
BITMAP
01FFE000
07FFF800
0FFFF800
1FFFF800
3F00F800
3E00F800
7C00F800
7C00F800
7800F800
F800F800
F800F800
F81FFF80
F81FFF80
F81FFF80
F800F800
F800F800
7800F800
7C00F800
7C00F800
3E00F800
3F83F800
1FFFF800
0FFFF800
07FFF800
01FCF800
0000F800
0000F800
0000F800
0001F000
0001F000
3003F000
3FFFE000
3FFFC000
3FFF8000
1FFE0000
ENDCHAR
STARTCHAR 01E6
ENCODING 486
SWIDTH 486 0
DWIDTH 27 0
BBX 22 47 3 -1
BITMAP
004020
00E070
00F0F0
00F9E0
007FC0
003F80
001F00
000F00
000600
000000
000000
007FE0
01FFF8
03FFFC
07FFFC
0FE038
1F8008
3F0000
3E0000
7C0000
7C0000
780000
F80000
F80000
F80000
F00000
F00000
F00000
F00000
F0003C
F0003C
F0003C
F0003C
F8003C
F8003C
F8003C
7C003C
7C003C
7C003C
3E003C
3F003C
1F803C
0FF0FC
07FFFC
03FFFC
00FFF8
001F80
ENDCHAR
STARTCHAR 01E7
ENCODING 487
SWIDTH 486 0
DWIDTH 27 0
BBX 22 47 2 -9
BITMAP
018040
03C0E0
01E1E0
00F7C0
007F80
003F00
001E00
000C00
000800
000000
000000
000000
01FFF0
07FFFC
0FFFFC
1FFFFC
3F807C
3E007C
7E007C
7C007C
7C007C
F8007C
F8007C
F8007C
F8007C
F8007C
F8007C
F8007C
7C007C
7C007C
7C007C
3E007C
3F81FC
1FFFFC
0FFFFC
07FFFC
01FE7C
00007C
00007C
00007C
0000F8
0000F8
3003F0
3FFFF0
3FFFE0
3FFFC0
1FFE00
ENDCHAR
STARTCHAR 01E8
ENCODING 488
SWIDTH 486 0
DWIDTH 27 0
BBX 23 46 4 0
BITMAP
040200
0E0700
0F0F00
0F9E00
07FC00
03F800
01F000
00F000
006000
000000
000000
000000
F000F8
F001F8
F001F0
F003E0
F007E0
F00FC0
F00F80
F01F00
F03E00
F07E00
F0FC00
F1F800
F3F000
F7E000
F7C000
FF8000
FFC000
FFE000
F7F000
F1F800
F0FC00
F07E00
F03F00
F01F80
F00FC0
F007C0
F007E0
F003F0
F001F0
F001F8
F000FC
F0007C
F0007E
F0003E
ENDCHAR
STARTCHAR 01E9
ENCODING 489
SWIDTH 486 0
DWIDTH 27 0
BBX 23 46 3 0
BITMAP
C06000
E0E000
FBE000
7FC000
3F8000
0E0000
040000
000000
000000
0C0000
7C0000
7C0000
7C0000
7C0000
7C0000
7C0000
7C0000
7C0000
7C0000
7C0000
7C007C
7C00F8
7C01F0
7C03F0
7C07E0
7C0F80
7C1F00
7C3E00
7CFC00
7DF800
7FF000
7FE000
7FE000
7FF000
7DF800
7CFE00
7C7F00
7C1F80
7C0FC0
7C07C0
7C03E0
7C01F0
7C00F8
7C00FC
7C007E
7C003E
ENDCHAR
STARTCHAR 01EA
ENCODING 490
SWIDTH 486 0
DWIDTH 27 0
BBX 24 44 2 -9
BITMAP
00FF00
03FFC0
07FFE0
0FFFF0
1F81F8
3E00FC
3E007C
7C003E
7C003E
78003E
F8001E
F8001F
F8001F
F0001F
F0001F
F0001F
F0000F
F0000F
F0000F
F0000F
F0001F
F0001F
F8001F
F8001F
F8001F
F8001E
78003E
7C003E
7C007C
3E007C
3F00F8
1FC3F8
0FFFF0
07FFE0
01FF80
003F00
001E00
003C00
007800
007800
007800
007F80
007F80
003F80
ENDCHAR
STARTCHAR 01EB
ENCODING 491
SWIDTH 486 0
DWIDTH 27 0
BBX 24 35 2 -9
BITMAP
01FF00
03FFC0
0FFFE0
1FFFF0
1F81F8
3E00FC
7E007C
7C003E
7C003E
78003E
F8001E
F8001E
F8001F
F8001F
F8001F
F8001E
78003E
7C003E
7C003E
7C007C
3E00FC
3F01F8
1FFFF8
0FFFF0
07FFE0
01FF80
001E00
003C00
007800
00F800
00F000
00F800
00FF00
007F80
003F80
ENDCHAR
STARTCHAR 01EC
ENCODING 492
SWIDTH 486 0
DWIDTH 27 0
BBX 24 52 2 -9
BITMAP
07FFE0
07FFE0
07FFE0
07FFE0
000000
000000
000000
000000
00FF00
03FFC0
07FFE0
0FFFF0
1F81F8
3E00FC
3E007C
7C003E
7C003E
78003E
F8001E
F8001F
F8001F
F0001F
F0001F
F0001F
F0000F
F0000F
F0000F
F0000F
F0001F
F0001F
F8001F
F8001F
F8001F
F8001E
78003E
7C003E
7C007C
3E007C
3F00F8
1FC3F8
0FFFF0
07FFE0
01FF80
003F00
001E00
003C00
007800
007800
007800
007F80
007F80
003F80
ENDCHAR
STARTCHAR 01ED
ENCODING 493
SWIDTH 486 0
DWIDTH 27 0
BBX 24 44 2 -9
BITMAP
07FFE0
07FFE0
07FFE0
000000
000000
000000
000000
000000
000000
01FF00
03FFC0
0FFFE0
1FFFF0
1F81F8
3E00FC
7E007C
7C003E
7C003E
78003E
F8001E
F8001E
F8001F
F8001F
F8001F
F8001E
78003E
7C003E
7C003E
7C007C
3E00FC
3F01F8
1FFFF8
0FFFF0
07FFE0
01FF80
001E00
003C00
007800
00F800
00F000
00F800
00FF00
007F80
003F80
ENDCHAR
STARTCHAR 01EE
ENCODING 494
SWIDTH 486 0
DWIDTH 27 0
BBX 24 47 2 -1
BITMAP
010080
0381C0
03C3C0
03E780
01FF00
00FE00
007C00
003C00
001800
000000
000000
000000
7FFFFE
7FFFFE
7FFFFE
7FFFFC
0000F8
0001F8
0003F0
0003E0
0007C0
000F80
001F00
003E00
007C00
00F800
01FE00
01FFC0
01FFF0
01FFF8
0001FC
00007E
00003E
00001E
00001F
00001F
00001F
00001F
00001F
00003E
00007E
E000FC
FE0FFC
FFFFF8
FFFFE0
3FFF80
01F800
ENDCHAR
STARTCHAR 01EF
ENCODING 495
SWIDTH 486 0
DWIDTH 27 0
BBX 22 47 2 -9
BITMAP
030080
0781C0
03C3C0
01EF80
00FF00
007E00
003C00
001800
001000
000000
000000
000000
3FFFF8
3FFFF8
3FFFF8
3FFFF0
0001F0
0003E0
0007C0
0007C0
000F80
001F00
003E00
007E00
007C00
00F800
01F000
01FE00
01FFC0
01FFE0
000FF0
0003F8
0000F8
00007C
00007C
00007C
00007C
00007C
00007C
00007C
0000F8
0001F8
7007F0
7FFFF0
7FFFC0
FFFF80
1FFC00
ENDCHAR
STARTCHAR 01F0
ENCODING 496
SWIDTH 486 0
DWIDTH 27 0
BBX 18 47 4 -9
BITMAP
030080
0781C0
03C3C0
01EF80
00FF00
007E00
003C00
001800
001000
000000
000000
000000
3FFF80
3FFF80
3FFF80
3FFF80
000780
000780
000780
000780
000780
000780
000780
000780
000780
000780
000780
000780
000780
000780
000780
000780
000780
000780
000780
000780
000780
000780
000780
000780
000F80
000F80
601F00
7FFF00
FFFE00
FFFC00
3FF800
ENDCHAR
STARTCHAR 01F1
ENCODING 497
SWIDTH 486 0
DWIDTH 27 0
BBX 26 35 1 0
BITMAP
3E000000
FF80FFC0
FFC0FFC0
FFE0FFC0
F1F0FFC0
F0F00780
F0F80780
F0780780
F0780F00
F0780F00
F03C0F00
F03C0F00
F03C1E00
F03C1E00
F03C1E00
F03C1E00
F03C3C00
F03C3C00
F03C3C00
F03C3C00
F03C7800
F03C7800
F03C7800
F03C7800
F03C7000
F07CF000
F078F000
F078F000
F078E000
F0F1E000
F1F1E000
FFE1FFC0
FFE1FFC0
FFC1FFC0
FF01FFC0
ENDCHAR
STARTCHAR 01F2
ENCODING 498
SWIDTH 486 0
DWIDTH 27 0
BBX 26 35 1 0
BITMAP
3E000000
FF800000
FFC00000
FFE00000
F1F00000
F0F00000
F0F80000
F0780000
F0780000
F0787FC0
F03C7FC0
F03C7FC0
F03C7FC0
F03C0380
F03C0380
F03C0780
F03C0700
F03C0700
F03C0F00
F03C0E00
F03C0E00
F03C1E00
F03C1C00
F03C1C00
F03C3C00
F07C3800
F0783800
F0787800
F0787800
F0F07000
F1F07000
FFE0FFC0
FFE0FFC0
FFC0FFC0
FF00FFC0
ENDCHAR
STARTCHAR 01F3
ENCODING 499
SWIDTH 486 0
DWIDTH 27 0
BBX 27 39 0 0
BITMAP
003C0000
003C0000
003C0000
003C0000
003C0000
003C0000
003C0000
003C0000
003C0000
003C0000
003C0000
003C0000
0FFC3FE0
1FFC3FE0
3FFC3FE0
3FFC3FE0
7C3C01E0
783C01E0
783C01C0
783C03C0
783C03C0
F03C0380
F03C0780
F03C0780
F03C0700
F03C0F00
F03C0F00
F03C0E00
F03C1E00
783C1E00
783C1C00
783C1C00
783C3C00
3C3C3C00
3C3C3FE0
1FFC3FE0
1FFC3FE0
0FFC3FE0
01800000
ENDCHAR
STARTCHAR 01F4
ENCODING 500
SWIDTH 486 0
DWIDTH 27 0
BBX 22 47 3 -1
BITMAP
000180
0001C0
0003E0
0007C0
000F80
001F00
003E00
003C00
001800
000000
000000
007FE0
01FFF8
03FFFC
07FFFC
0FE038
1F8008
3F0000
3E0000
7C0000
7C0000
780000
F80000
F80000
F80000
F00000
F00000
F00000
F00000
F0003C
F0003C
F0003C
F0003C
F8003C
F8003C
F8003C
7C003C
7C003C
7C003C
3E003C
3F003C
1F803C
0FF0FC
07FFFC
03FFFC
00FFF8
001F80
ENDCHAR
STARTCHAR 01F5
ENCODING 501
SWIDTH 486 0
DWIDTH 27 0
BBX 22 47 2 -8
BITMAP
000180
0003C0
0003E0
0007C0
000F80
001F00
003E00
003C00
001800
000000
000000
000000
01FFF0
07FFFC
0FFFFC
1FFFFC
3F807C
3E007C
7E007C
7C007C
7C007C
F8007C
F8007C
F8007C
F8007C
F8007C
F8007C
F8007C
7C007C
7C007C
7C007C
3E007C
3F81FC
1FFFFC
0FFFFC
07FFFC
01FE7C
00007C
00007C
00007C
0000F8
0000F8
3003F0
3FFFF0
3FFFE0
3FFFC0
1FFE00
ENDCHAR
STARTCHAR 01F6
ENCODING 502
SWIDTH 486 0
DWIDTH 27 0
BBX 24 35 2 -1
BITMAP
F03C00
F03C00
F03C00
F03C00
F03C00
F03C00
F03C00
F03C00
F03C0F
F03C0F
F03C0F
F03C0F
F03C0F
F03C0F
FFFC0F
FFFC0F
FFFC0F
FFFC0F
F03C0F
F03C0F
F03C0F
F03C0F
F03C0F
F03C0F
F03C0F
F03C1F
F03C1F
F03E1F
F03E1F
F01E1E
F01F3E
F01FFE
F00FFC
F007F8
0001E0
ENDCHAR
STARTCHAR 01F7
ENCODING 503
SWIDTH 486 0
DWIDTH 27 0
BBX 22 44 4 -9
BITMAP
01F000
1FFF00
FFFF80
FFFFE0
FE0FE0
F803F0
F801F0
F800F8
F800F8
F80078
F80078
F8007C
F8007C
F8007C
F8007C
F80078
F80078
F800F8
F800F8
F800F8
F801F0
F801F0
F803F0
F803E0
F807C0
F80FC0
F81F80
F83F00
F8FE00
F9FC00
FFF000
FFE000
FF8000
FF0000
FC0000
F80000
F80000
F80000
F80000
F80000
F80000
F80000
F80000
F80000
ENDCHAR
STARTCHAR 01F8
ENCODING 504
SWIDTH 486 0
DWIDTH 27 0
BBX 22 46 3 0
BITMAP
00C000
01C000
03E000
01F000
00F800
007C00
003C00
001E00
000C00
000000
000000
000000
F8003C
FC003C
FC003C
FE003C
FE003C
FF003C
FF003C
F7803C
F7C03C
F3C03C
F3E03C
F1E03C
F1F03C
F0F03C
F0F83C
F0783C
F0783C
F03C3C
F03C3C
F01E3C
F01E3C
F00F3C
F00F3C
F0073C
F007BC
F007BC
F003FC
F003FC
F001FC
F001FC
F000FC
F000FC
F000FC
F0007C
ENDCHAR
STARTCHAR 01F9
ENCODING 505
SWIDTH 486 0
DWIDTH 27 0
BBX 20 38 4 1
BITMAP
030000
078000
0FC000
07E000
03E000
01F000
00F800
003800
001000
000000
000000
000000
3FFE00
FFFF00
FFFFC0
FFFFC0
F807E0
F803E0
F801F0
F801F0
F801F0
F801F0
F801F0
F801F0
F801F0
F801F0
F801F0
F801F0
F801F0
F801F0
F801F0
F801F0
F801F0
F801F0
F801F0
F801F0
F801F0
F801F0
ENDCHAR
STARTCHAR 01FA
ENCODING 506
SWIDTH 486 0
DWIDTH 27 0
BBX 26 46 1 0
BITMAP
00010000
00078000
003F8000
007FC000
007C0000
00200000
00000000
001E0000
007F8000
00638000
00E18000
00E1C000
00E18000
00738000
007F0000
007F8000
007F8000
00F78000
00F3C000
00F3C000
01E3E000
01E1E000
01E1E000
03C1F000
03C0F000
03C0F000
0780F800
07807800
07807800
0F007800
0F003C00
0F003C00
1E003C00
1FFFFE00
1FFFFE00
3FFFFE00
3FFFFF00
3C000F00
3C000F00
7C000F00
78000F80
78000F80
F8000780
F80007C0
F80007C0
F00007C0
ENDCHAR
STARTCHAR 01FB
ENCODING 507
SWIDTH 486 0
DWIDTH 27 0
BBX 21 46 3 -1
BITMAP
000400
001E00
007E00
01FF00
01F800
01C000
000000
003000
00FC00
01FE00
038600
038600
038600
038600
01FE00
00FC00
002000
000000
000000
1FFF00
1FFFC0
1FFFE0
1FFFF0
0003F0
0001F8
0000F8
0000F8
0000F8
0000F8
003CF8
07FFF8
1FFFF8
3FFFF8
7F00F8
7C00F8
F800F8
F800F8
F800F8
F800F8
F800F8
7C00F8
7F81F8
3FFFF8
1FFFF8
07FFF8
003800
ENDCHAR
STARTCHAR 01FC
ENCODING 508
SWIDTH 486 0
DWIDTH 27 0
BBX 25 46 2 0
BITMAP
00001000
00003800
00007C00
0000FC00
0000F800
0001F000
0003E000
0007C000
00038000
00010000
00000000
00000000
003FFF00
007FFF00
007FFF00
0077FF00
00F78000
00F78000
00E78000
01E78000
01E78000
01C78000
03C78000
03C78000
03C78000
07878000
0787FE00
0787FE00
0F07FE00
0F07FE00
0F078000
1F078000
1E078000
1FFF8000
1FFF8000
3FFF8000
3FFF8000
3C078000
7C078000
7C078000
78078000
78078000
F807FF80
F807FF80
F007FF80
F007FF80
ENDCHAR
STARTCHAR 01FD
ENCODING 509
SWIDTH 486 0
DWIDTH 27 0
BBX 25 39 2 0
BITMAP
00018000
0003C000
0007E000
000FC000
000F8000
001F0000
003C0000
00380000
00100000
00000000
00000000
00000000
3FC1F800
3FF3FC00
3FF7FE00
3FFFFE00
00FF1E00
007E0F00
003E0F00
003E0F00
003C0F00
003C0F00
07BC0F00
1FFFFF80
3FFFFF80
7FFFFF80
7C7C0000
F83C0000
F03C0000
F03C0000
F03E0000
F01E0000
F01F0000
F81F8000
FCFFFE00
7FFFFF00
3FFFFF00
1FE1FE00
03003000
ENDCHAR
STARTCHAR 01FE
ENCODING 510
SWIDTH 486 0
DWIDTH 27 0
BBX 24 48 2 -2
BITMAP
000300
000380
0007C0
000F80
001F00
003E00
007C00
007800
003000
000000
000030
00FF3C
03FFFC
07FFF8
0FFFF8
1F81F8
3E00FC
3E01FC
7C01FE
7C03FE
7803DE
F8079E
F8079F
F80F1F
F00F1F
F01E1F
F01E1F
F03C0F
F03C0F
F0780F
F0780F
F0F81F
F0F01F
F1F01F
F1E01F
FBE01F
FBC01E
7FC03E
7F803E
7F807C
3F007C
3F00F8
1FC3F8
3FFFF0
3FFFE0
3FFF80
383C00
080000
ENDCHAR
STARTCHAR 01FF
ENCODING 511
SWIDTH 486 0
DWIDTH 27 0
BBX 24 39 2 -1
BITMAP
000300
000780
0007C0
000F80
001F00
003E00
007C00
007800
003000
000000
000000
00000C
01FF1E
03FFFE
0FFFFC
1FFFF8
1F81F8
3E01FC
7E01FC
7C03FE
7C07BE
780F9E
F80F1E
F81E1E
F83C1F
F87C1F
F8781F
F8F01E
79E03E
79E03E
7FC03E
7F807C
3F00FC
3F01F8
1FFFF8
3FFFF0
7FFFE0
79FF80
703800
ENDCHAR
STARTCHAR 0200
ENCODING 512
SWIDTH 486 0
DWIDTH 27 0
BBX 26 46 1 0
BITMAP
01010000
03838000
07878000
07C7C000
03E3E000
01E1F000
00F0F000
00787800
00303000
00000000
00000000
00000000
003F0000
007F8000
007F8000
007F8000
00FFC000
00F3C000
00F3C000
01E3E000
01E1E000
01E1E000
03C1F000
03C0F000
03C0F000
0780F800
0780F800
07807800
0F807800
0F007C00
0F003C00
1F003C00
1E003E00
1FFFFE00
1FFFFE00
3FFFFE00
3FFFFF00
3C000F00
7C000F00
7C000F80
78000F80
78000F80
F8000780
F80007C0
F80007C0
F00007C0
ENDCHAR
STARTCHAR 0201
ENCODING 513
SWIDTH 486 0
DWIDTH 27 0
BBX 21 40 3 -1
BITMAP
000400
0C0C00
1E1E00
1F1F00
0F0F00
078780
07C3C0
03C3E0
01E1E0
00C0C0
000000
000000
000000
1FFF00
1FFFC0
1FFFE0
1FFFF0
0003F0
0001F8
0000F8
0000F8
0000F8
0000F8
003CF8
07FFF8
1FFFF8
3FFFF8
7F00F8
7C00F8
F800F8
F800F8
F800F8
F800F8
F800F8
7C00F8
7F81F8
3FFFF8
1FFFF8
07FFF8
003800
ENDCHAR
STARTCHAR 0202
ENCODING 514
SWIDTH 486 0
DWIDTH 27 0
BBX 26 45 1 0
BITMAP
001E0000
007F8000
00FFC000
01FFE000
01C0E000
03C0E000
0380E000
00000000
00000000
00000000
00000000
003F0000
007F8000
007F8000
007F8000
00FFC000
00F3C000
00F3C000
01E3E000
01E1E000
01E1E000
03C1F000
03C0F000
03C0F000
0780F800
0780F800
07807800
0F807800
0F007C00
0F003C00
1F003C00
1E003E00
1FFFFE00
1FFFFE00
3FFFFE00
3FFFFF00
3C000F00
7C000F00
7C000F80
78000F80
78000F80
F8000780
F80007C0
F80007C0
F00007C0
ENDCHAR
STARTCHAR 0203
ENCODING 515
SWIDTH 486 0
DWIDTH 27 0
BBX 21 38 3 -1
BITMAP
00FC00
03FE00
07FF00
078780
0F0380
0F0380
0E03C0
000000
000000
000000
000000
1FFF00
1FFFC0
1FFFE0
1FFFF0
0003F0
0001F8
0000F8
0000F8
0000F8
0000F8
003CF8
07FFF8
1FFFF8
3FFFF8
7F00F8
7C00F8
F800F8
F800F8
F800F8
F800F8
F800F8
7C00F8
7F81F8
3FFFF8
1FFFF8
07FFF8
003800
ENDCHAR
STARTCHAR 0204
ENCODING 516
SWIDTH 486 0
DWIDTH 27 0
BBX 21 46 5 0
BITMAP
101000
383800
787800
7C7C00
3E3E00
1E1F00
0F0F00
078780
030300
000000
000000
000000
FFFFE0
FFFFE0
FFFFE0
FFFFE0
F80000
F80000
F80000
F80000
F80000
F80000
F80000
F80000
F80000
F80000
FFFFC0
FFFFC0
FFFFC0
FFFFC0
F80000
F80000
F80000
F80000
F80000
F80000
F80000
F80000
F80000
F80000
F80000
F80000
FFFFF8
FFFFF8
FFFFF8
FFFFF8
ENDCHAR
STARTCHAR 0205
ENCODING 517
SWIDTH 486 0
DWIDTH 27 0
BBX 23 40 2 -1
BITMAP
000200
060600
0F0F00
0F8F80
078780
03C3C0
03E1E0
01E1F0
00F0F0
006060
000000
000000
000000
00FF80
03FFE0
07FFF0
1FFFF8
1F80FC
3E007C
3E003C
7C003E
78003E
78001E
F8001E
FFFFFE
FFFFFE
FFFFFE
F80000
F80000
780000
780000
7C0000
7E0000
3F0000
1F8008
1FFFF8
0FFFF8
03FFF8
01FFF8
000F00
ENDCHAR
STARTCHAR 0206
ENCODING 518
SWIDTH 486 0
DWIDTH 27 0
BBX 21 45 5 0
BITMAP
00F800
03FE00
07FF00
0FDF00
0F0780
0E0380
0E0380
000000
000000
000000
000000
FFFFE0
FFFFE0
FFFFE0
FFFFE0
F80000
F80000
F80000
F80000
F80000
F80000
F80000
F80000
F80000
F80000
FFFFC0
FFFFC0
FFFFC0
FFFFC0
F80000
F80000
F80000
F80000
F80000
F80000
F80000
F80000
F80000
F80000
F80000
F80000
FFFFF8
FFFFF8
FFFFF8
FFFFF8
ENDCHAR
STARTCHAR 0207
ENCODING 519
SWIDTH 486 0
DWIDTH 27 0
BBX 23 38 2 -1
BITMAP
003F00
00FF80
01FFC0
01E1E0
03C0E0
03C0E0
0380F0
000000
000000
000000
000000
00FF80
03FFE0
07FFF0
1FFFF8
1F80FC
3E007C
3E003C
7C003E
78003E
78001E
F8001E
FFFFFE
FFFFFE
FFFFFE
F80000
F80000
780000
780000
7C0000
7E0000
3F0000
1F8008
1FFFF8
0FFFF8
03FFF8
01FFF8
000F00
ENDCHAR
STARTCHAR 0208
ENCODING 520
SWIDTH 486 0
DWIDTH 27 0
BBX 18 46 5 0
BITMAP
202000
707000
F0F000
F87800
7C7C00
3C3E00
1E1E00
0F0F00
060600
000000
000000
000000
FFFFC0
FFFFC0
FFFFC0
FFFFC0
01E000
01E000
01E000
01E000
01E000
01E000
01E000
01E000
01E000
01E000
01E000
01E000
01E000
01E000
01E000
01E000
01E000
01E000
01E000
01E000
01E000
01E000
01E000
01E000
01E000
01E000
FFFFC0
FFFFC0
FFFFC0
FFFFC0
ENDCHAR
STARTCHAR 0209
ENCODING 521
SWIDTH 486 0
DWIDTH 27 0
BBX 22 39 3 0
BITMAP
602000
F07000
F8F800
787800
3C3C00
3E1E00
1E0F00
0F0F00
060600
000000
000000
000000
FFF000
FFF000
FFF000
FFF000
01F000
01F000
01F000
01F000
01F000
01F000
01F000
01F000
01F000
01F000
01F000
01F000
01F000
01F000
00F000
00F000
00F800
00F800
00FFFC
007FFC
003FFC
001FF8
0003C0
ENDCHAR
STARTCHAR 020A
ENCODING 522
SWIDTH 486 0
DWIDTH 27 0
BBX 18 45 5 0
BITMAP
01E000
07F800
0FFC00
1FFE00
1C0E00
3C0E00
380E00
000000
000000
000000
000000
FFFFC0
FFFFC0
FFFFC0
FFFFC0
01E000
01E000
01E000
01E000
01E000
01E000
01E000
01E000
01E000
01E000
01E000
01E000
01E000
01E000
01E000
01E000
01E000
01E000
01E000
01E000
01E000
01E000
01E000
01E000
01E000
01E000
FFFFC0
FFFFC0
FFFFC0
FFFFC0
ENDCHAR
STARTCHAR 020B
ENCODING 523
SWIDTH 486 0
DWIDTH 27 0
BBX 22 38 3 -1
BITMAP
03F000
0FFC00
1FFC00
1E1E00
1C0E00
3C0F00
380700
000000
000000
000000
000000
FFF000
FFF000
FFF000
FFF000
01F000
01F000
01F000
01F000
01F000
01F000
01F000
01F000
01F000
01F000
01F000
01F000
01F000
01F000
00F000
00F000
00F800
00F800
00FFFC
007FFC
003FFC
001FF8
0003C0
ENDCHAR
STARTCHAR 020C
ENCODING 524
SWIDTH 486 0
DWIDTH 27 0
BBX 24 47 2 -1
BITMAP
040400
0E0E00
1E1E00
1F0F00
0F8F80
0787C0
03C3C0
01E1E0
00C0C0
000000
000000
00FF00
03FFC0
07FFE0
0FFFF0
1F81F8
3E00FC
3E007C
7C003E
7C003E
78003E
F8001E
F8001F
F8001F
F0001F
F0001F
F0001F
F0000F
F0000F
F0000F
F0000F
F0001F
F0001F
F8001F
F8001F
F8001F
F8001E
78003E
7C003E
7C007C
3E007C
3F00F8
1FC3F8
0FFFF0
07FFE0
03FF80
003C00
ENDCHAR
STARTCHAR 020D
ENCODING 525
SWIDTH 486 0
DWIDTH 27 0
BBX 24 39 2 0
BITMAP
0C0400
1E0E00
1F1F00
0F0F00
078780
07C3C0
03C1E0
01E1E0
00C0C0
000000
000000
000000
01FF00
03FFC0
0FFFE0
1FFFF0
1F81F8
3E00FC
7E007C
7C003E
7C003E
78003E
F8001E
F8001E
F8001F
F8001F
F8001F
F8001E
F8003E
7C003E
7C003E
7C007C
3E00FC
3F01F8
1FFFF8
0FFFF0
07FFE0
01FF80
001800
ENDCHAR
STARTCHAR 020E
ENCODING 526
SWIDTH 486 0
DWIDTH 27 0
BBX 24 46 2 -1
BITMAP
003C00
00FF00
01FF80
03FFC0
0381C0
0781C0
0701C0
000000
000000
000000
00FF00
03FFC0
07FFE0
0FFFF0
1F81F8
3E00FC
3E007C
7C003E
7C003E
78003E
F8001E
F8001F
F8001F
F0001F
F0001F
F0001F
F0000F
F0000F
F0000F
F0000F
F0001F
F0001F
F8001F
F8001F
F8001F
F8001E
78003E
7C003E
7C007C
3E007C
3F00F8
1FC3F8
0FFFF0
07FFE0
03FF80
003C00
ENDCHAR
STARTCHAR 020F
ENCODING 527
SWIDTH 486 0
DWIDTH 27 0
BBX 24 38 2 -1
BITMAP
007E00
01FF00
03FF80
03C3C0
0781C0
0781C0
0701E0
000000
000000
000000
000000
01FF00
03FFC0
0FFFE0
1FFFF0
1F81F8
3E00FC
7E007C
7C003E
7C003E
78003E
F8001E
F8001E
F8001F
F8001F
F8001F
F8001E
F8003E
7C003E
7C003E
7C007C
3E00FC
3F01F8
1FFFF8
0FFFF0
07FFE0
01FF80
001800
ENDCHAR
STARTCHAR 0210
ENCODING 528
SWIDTH 486 0
DWIDTH 27 0
BBX 22 46 3 0
BITMAP
101800
383800
7C7C00
3E3E00
1E1E00
0F0F00
078780
0783C0
038380
000100
000000
0FF000
FFFE00
FFFF80
FFFFC0
F81FE0
F803F0
F801F0
F800F8
F800F8
F800F8
F800F8
F800F8
F800F8
F800F8
F800F0
F801F0
F803E0
F83FE0
FFFFC0
FFFF00
FFFE00
F83E00
F81F00
F80F80
F80780
F807C0
F803C0
F803E0
F801E0
F801F0
F800F8
F800F8
F8007C
F8007C
F8003C
ENDCHAR
STARTCHAR 0211
ENCODING 529
SWIDTH 486 0
DWIDTH 27 0
BBX 19 38 5 1
BITMAP
602000
F07000
F8F800
787800
3C3C00
3E1E00
1E0F00
0F0F00
060600
000000
000000
000000
07FFE0
7FFFE0
7FFFE0
7FFFE0
7C0000
7C0000
7C0000
7C0000
7C0000
7C0000
7C0000
7C0000
7C0000
7C0000
7C0000
7C0000
7C0000
7C0000
7C0000
7C0000
7C0000
7C0000
7C0000
7C0000
7C0000
7C0000
ENDCHAR
STARTCHAR 0212
ENCODING 530
SWIDTH 486 0
DWIDTH 27 0
BBX 22 45 3 0
BITMAP
01F000
07FC00
0FFE00
0FBE00
1E0F00
1C0700
1C0700
000000
000000
000000
0FF000
FFFE00
FFFF80
FFFFC0
F81FE0
F803F0
F801F0
F800F8
F800F8
F800F8
F800F8
F800F8
F800F8
F800F8
F800F0
F801F0
F803E0
F83FE0
FFFFC0
FFFF00
FFFE00
F83E00
F81F00
F80F80
F80780
F807C0
F803C0
F803E0
F801E0
F801F0
F800F8
F800F8
F8007C
F8007C
F8003C
ENDCHAR
STARTCHAR 0213
ENCODING 531
SWIDTH 486 0
DWIDTH 27 0
BBX 18 37 6 0
BITMAP
03F000
07FC00
0FFE00
1F1E00
1C0F00
1C0700
1C0700
000000
000000
000000
000000
0FFFC0
FFFFC0
FFFFC0
FFFFC0
F80000
F80000
F80000
F80000
F80000
F80000
F80000
F80000
F80000
F80000
F80000
F80000
F80000
F80000
F80000
F80000
F80000
F80000
F80000
F80000
F80000
F80000
ENDCHAR
STARTCHAR 0214
ENCODING 532
SWIDTH 486 0
DWIDTH 27 0
BBX 22 47 3 -1
BITMAP
080C00
1C1C00
3E3E00
1F1F00
0F0F00
078780
03C3C0
03C1E0
01C1C0
000080
000000
000000
F0003C
F0003C
F0003C
F0003C
F0003C
F0003C
F0003C
F0003C
F0003C
F0003C
F0003C
F0003C
F0003C
F0003C
F0003C
F0003C
F0003C
F0003C
F0003C
F0003C
F0003C
F0003C
F0003C
F0007C
F0007C
F8007C
F8007C
F80078
7C00F8
7E01F8
3F87F0
3FFFE0
1FFFC0
07FF80
00FC00
ENDCHAR
STARTCHAR 0215
ENCODING 533
SWIDTH 486 0
DWIDTH 27 0
BBX 20 39 4 0
BITMAP
301000
783800
7C7C00
3C3C00
1E1E00
1F0F00
0F0780
078780
030300
000000
000000
000000
F001F0
F001F0
F001F0
F001F0
F001F0
F001F0
F001F0
F001F0
F001F0
F001F0
F001F0
F001F0
F001F0
F001F0
F001F0
F001F0
F001F0
F801F0
F801F0
F801F0
7C01F0
7E01F0
7FFFF0
3FFFF0
1FFFF0
07FFE0
006800
ENDCHAR
STARTCHAR 0216
ENCODING 534
SWIDTH 486 0
DWIDTH 27 0
BBX 22 46 3 -1
BITMAP
007800
01FE00
03FF00
07FF80
070380
0F0380
0E0380
000000
000000
000000
000000
F0003C
F0003C
F0003C
F0003C
F0003C
F0003C
F0003C
F0003C
F0003C
F0003C
F0003C
F0003C
F0003C
F0003C
F0003C
F0003C
F0003C
F0003C
F0003C
F0003C
F0003C
F0003C
F0003C
F0007C
F0007C
F8007C
F8007C
F80078
7C00F8
7E01F8
3F87F0
3FFFE0
1FFFC0
07FF80
00FC00
ENDCHAR
STARTCHAR 0217
ENCODING 535
SWIDTH 486 0
DWIDTH 27 0
BBX 20 38 4 -1
BITMAP
01F800
07FC00
0FFE00
0F0F00
1E0700
1E0700
1C0780
000000
000000
000000
000000
F001F0
F001F0
F001F0
F001F0
F001F0
F001F0
F001F0
F001F0
F001F0
F001F0
F001F0
F001F0
F001F0
F001F0
F001F0
F001F0
F001F0
F801F0
F801F0
F801F0
7C01F0
7E01F0
7FFFF0
3FFFF0
1FFFF0
07FFE0
006800
ENDCHAR
STARTCHAR 0218
ENCODING 536
SWIDTH 486 0
DWIDTH 27 0
BBX 22 44 3 -9
BITMAP
01FF80
07FFF0
0FFFF0
1FFFF0
3F00E0
3E0020
7C0000
7C0000
780000
780000
7C0000
7C0000
7E0000
3F0000
1FC000
1FF000
07FC00
03FF00
00FFC0
001FE0
0007F0
0003F8
0000F8
0000F8
00007C
00007C
00007C
00007C
00007C
0000F8
7001F8
7E07F0
FFFFF0
FFFFC0
1FFF80
01F800
000000
00F800
00F800
00F800
00F800
07F000
07F000
07E000
ENDCHAR
STARTCHAR 0219
ENCODING 537
SWIDTH 486 0
DWIDTH 27 0
BBX 20 35 4 -9
BITMAP
07FFC0
1FFFE0
3FFFC0
7FFFC0
7C0040
F80000
F80000
F80000
FC0000
7E0000
7F8000
3FF000
0FFE00
07FF00
00FFC0
001FE0
0007E0
0001F0
0001F0
0001F0
0001F0
E001F0
FE0FE0
FFFFE0
FFFFC0
7FFF00
00D000
000000
01F000
01F000
01F000
01F000
0FE000
0FE000
0FC000
ENDCHAR
STARTCHAR 021A
ENCODING 538
SWIDTH 486 0
DWIDTH 27 0
BBX 24 43 2 -9
BITMAP
FFFFFF
FFFFFF
FFFFFF
FFFFFF
003C00
003C00
003C00
003C00
003C00
003C00
003C00
003C00
003C00
003C00
003C00
003C00
003C00
003C00
003C00
003C00
003C00
003C00
003C00
003C00
003C00
003C00
003C00
003C00
003C00
003C00
003C00
003C00
003C00
003C00
000000
000000
003C00
003C00
003C00
007C00
03FC00
03F800
03F000
ENDCHAR
STARTCHAR 021B
ENCODING 539
SWIDTH 486 0
DWIDTH 27 0
BBX 22 43 3 -9
BITMAP
006000
03E000
03E000
03E000
03E000
03E000
03E000
03E000
FFFFF8
FFFFF8
FFFFF8
FFFFF8
03E000
03E000
03E000
03E000
03E000
03E000
03E000
03E000
03E000
03E000
03E000
03E000
03E000
03E000
03E000
03E000
03E000
01F000
01FFFC
01FFFC
00FFFC
003FF8
0007C0
000000
000F80
000F80
000F80
000F80
00FF00
00FF00
00FE00
ENDCHAR
STARTCHAR 021C
ENCODING 540
SWIDTH 486 0
DWIDTH 27 0
BBX 24 44 2 -9
BITMAP
0FFE00
7FFFC0
FFFFE0
FFFFF0
7003F8
4000F8
00007C
00007C
00003C
00003E
00003E
00003E
00003C
00003C
00007C
0000F8
0001F8
000FF0
07FFE0
07FF80
07FFC0
07FFF0
001FF8
0003FC
0000FC
00007E
00003E
00001F
00001F
00001F
00001F
00001F
00001F
00001F
00003E
00003E
00007E
0000FC
0003F8
003FF0
FFFFE0
FFFF80
FFFE00
FFE000
ENDCHAR
STARTCHAR 021D
ENCODING 541
SWIDTH 486 0
DWIDTH 27 0
BBX 21 35 3 -9
BITMAP
7FFE00
FFFF80
7FFFC0
7F7FE0
4007E0
0003F0
0001F0
0001F0
0001F0
0001F0
0001F0
0003E0
0007E0
003FC0
07FF80
07FE00
07FF80
07FFC0
001FE0
0003F0
0001F8
0000F8
0000F8
0000F8
0000F8
0000F8
0001F8
0001F0
0007F0
001FE0
00FFC0
FFFF00
FFFE00
FFF000
FF0000
ENDCHAR
STARTCHAR 021E
ENCODING 542
SWIDTH 486 0
DWIDTH 27 0
BBX 23 46 2 0
BITMAP
010080
0381C0
03C3C0
03E780
01FF00
00FE00
007C00
003C00
001800
000000
000000
000000
F8001E
F8001E
F8001E
F8001E
F8001E
F8001E
F8001E
F8001E
F8001E
F8001E
F8001E
F8001E
F8001E
F8001E
FFFFFE
FFFFFE
FFFFFE
FFFFFE
F8001E
F8001E
F8001E
F8001E
F8001E
F8001E
F8001E
F8001E
F8001E
F8001E
F8001E
F8001E
F8001E
F8001E
F8001E
F8001E
ENDCHAR
STARTCHAR 021F
ENCODING 543
SWIDTH 486 0
DWIDTH 27 0
BBX 21 46 3 0
BITMAP
C06000
E0E000
FBE000
7FC000
1F8000
0E0000
040000
000000
000000
0C0000
7C0000
7C0000
7C0000
7C0000
7C0000
7C0000
7C0000
7C0000
7C0000
7C0000
7FFF00
7FFF80
7FFFC0
7FFFE0
7C03F0
7C01F0
7C00F0
7C00F8
7C00F8
7C00F8
7C00F8
7C00F8
7C00F8
7C00F8
7C00F8
7C00F8
7C00F8
7C00F8
7C00F8
7C00F8
7C00F8
7C00F8
7C00F8
7C00F8
7C00F8
7C00F8
ENDCHAR
STARTCHAR 0220
ENCODING 544
SWIDTH 486 0
DWIDTH 27 0
BBX 23 44 2 -9
BITMAP
07FF00
FFFFC0
FFFFF0
FFFFF8
FC01F8
F800FC
F8007C
F8007E
F8003E
F8003E
F8003E
F8001E
F8001E
F8001E
F8001E
F8001E
F8001E
F8001E
F8001E
F8001E
F8001E
F8001E
F8001E
F8001E
F8001E
F8001E
F8001E
F8001E
F8001E
F8001E
F8001E
F8001E
F8001E
F8001E
F8001E
00001E
00001E
00001E
00001E
00001E
00001E
00001E
00001E
00001E
ENDCHAR
STARTCHAR 0221
ENCODING 545
SWIDTH 486 0
DWIDTH 27 0
BBX 27 47 1 -8
BITMAP
000F8000
000F8000
000F8000
000F8000
000F8000
000F8000
000F8000
000F8000
000F8000
000F8000
000F8000
000F8000
07EF8000
0FFF8000
1FFF8000
3FFF8000
3E1F8000
7C0F8000
7C0F8000
780F8000
780F8000
780F8000
F80F8000
F80F8000
F80F8000
F80F8000
F80F8000
F80F8000
780F8000
780F8000
7C0F8000
7C0F8000
3C0F8000
3E0FBE00
3FFFFF80
1FFFFF80
0FFFFFC0
07FFC3C0
000F81E0
000F81E0
001F81E0
003F81E0
007FC3C0
007BE7C0
00F3FF80
00E1FF80
00407E00
ENDCHAR
STARTCHAR 0222
ENCODING 546
SWIDTH 486 0
DWIDTH 27 0
BBX 24 34 2 0
BITMAP
1F00F8
1E00F8
1E0078
3E0078
3E0078
3E0078
3E0078
3E007C
3E0078
3E0078
1E00F8
1F00F8
0F81F0
0FFFE0
07FFC0
07FFC0
0FFFF0
3FE7F8
3E00FC
7C003E
78003E
F8001F
F8001F
F8001F
F8001F
F8001F
F8001F
F8003E
7C007E
7F00FC
3FFFFC
1FFFF8
0FFFE0
01FF80
ENDCHAR
STARTCHAR 0223
ENCODING 547
SWIDTH 486 0
DWIDTH 27 0
BBX 24 40 2 -1
BITMAP
3E007C
3E007C
3C007C
3C007C
3C003C
3C003C
3C003C
3C003C
7C003C
3C003C
3C007C
3E007C
3E007C
1F00F8
1F81F8
0FFFF0
07FFC0
07FFE0
1FFFF0
3F81F8
3E00FC
7C003E
7C003E
F8001E
F8001F
F8001F
F0001F
F0001F
F0001F
F8001F
F8001F
F8001E
7C003E
7E007E
3F00FC
3FE7F8
1FFFF0
07FFE0
03FFC0
001800
ENDCHAR
STARTCHAR 0224
ENCODING 548
SWIDTH 486 0
DWIDTH 27 0
BBX 22 43 3 -9
BITMAP
7FFFFC
7FFFFC
7FFFFC
7FFFFC
0000F8
0001F0
0003E0
0003E0
0007C0
000FC0
000F80
001F00
001F00
003E00
007C00
007C00
00F800
01F000
01F000
03E000
03E000
07C000
078000
0F8000
1F0000
1F0000
3E0000
3E0000
7C0000
7C0000
FFFFFC
FFFFFC
FFFFFC
FFFFFC
00003C
00003C
00003C
00007C
00007C
000FFC
000FF8
000FF0
000FE0
ENDCHAR
STARTCHAR 0225
ENCODING 549
SWIDTH 486 0
DWIDTH 27 0
BBX 20 35 4 -9
BITMAP
7FFFE0
7FFFE0
7FFFE0
7FFFE0
0007E0
000FC0
001F80
001F00
003E00
007E00
00FC00
00F800
01F000
03E000
07E000
07C000
0F8000
1F8000
1F0000
3E0000
7E0000
7C0000
FFFFF0
FFFFF0
FFFFF0
FFFFF0
0000F0
0000F0
0001F0
0001F0
0001E0
0003E0
003FE0
003FC0
003F80
ENDCHAR
STARTCHAR 0226
ENCODING 550
SWIDTH 486 0
DWIDTH 27 0
BBX 26 45 1 0
BITMAP
001E0000
003F0000
003F0000
003F0000
003F0000
001E0000
00000000
00000000
00000000
00000000
00000000
003F0000
007F8000
007F8000
007F8000
00FFC000
00F3C000
00F3C000
01E3E000
01E1E000
01E1E000
03C1F000
03C0F000
03C0F000
0780F800
0780F800
07807800
0F807800
0F007C00
0F003C00
1F003C00
1E003E00
1FFFFE00
1FFFFE00
3FFFFE00
3FFFFF00
3C000F00
7C000F00
7C000F80
78000F80
78000F80
F8000780
F80007C0
F80007C0
F00007C0
ENDCHAR
STARTCHAR 0227
ENCODING 551
SWIDTH 486 0
DWIDTH 27 0
BBX 21 38 3 -1
BITMAP
007000
00FC00
00FC00
00FC00
00FC00
00FC00
007000
000000
000000
000000
000000
1FFF00
1FFFC0
1FFFE0
1FFFF0
0003F0
0001F8
0000F8
0000F8
0000F8
0000F8
003CF8
07FFF8
1FFFF8
3FFFF8
7F00F8
7C00F8
F800F8
F800F8
F800F8
F800F8
F800F8
7C00F8
7F81F8
3FFFF8
1FFFF8
07FFF8
003800
ENDCHAR
STARTCHAR 0228
ENCODING 552
SWIDTH 486 0
DWIDTH 27 0
BBX 21 43 5 -9
BITMAP
FFFFE0
FFFFE0
FFFFE0
FFFFE0
F80000
F80000
F80000
F80000
F80000
F80000
F80000
F80000
F80000
F80000
FFFFC0
FFFFC0
FFFFC0
FFFFC0
F80000
F80000
F80000
F80000
F80000
F80000
F80000
F80000
F80000
F80000
F80000
F80000
FFFFF8
FFFFF8
FFFFF8
FFFFF8
007000
00F000
00F800
00FC00
003C00
003C00
07FC00
07FC00
07F800
ENDCHAR
STARTCHAR 0229
ENCODING 553
SWIDTH 486 0
DWIDTH 27 0
BBX 23 35 2 -9
BITMAP
00FF80
03FFE0
07FFF0
1FFFF8
1F80FC
3E007C
3E003C
7C003E
78003E
78001E
F8001E
FFFFFE
FFFFFE
FFFFFE
F80000
F80000
780000
780000
7C0000
7E0000
3F0000
1F8008
1FFFF8
0FFFF8
03FFF8
01FFF8
001F00
001C00
003E00
003F00
000F00
000F00
00FF00
00FF00
01FE00
ENDCHAR
STARTCHAR 022A
ENCODING 554
SWIDTH 486 0
DWIDTH 27 0
BBX 24 47 2 -1
BITMAP
03FFC0
03FFC0
03FFC0
000000
000000
0781E0
0F83E0
0FC3F0
0F83E0
0781E0
000000
000000
00FF00
03FFC0
0FFFE0
1FFFF0
1F81F8
3E00FC
3E007C
7C003E
7C003E
78001E
F8001F
F8001F
F8001F
F0001F
F0001F
F0000F
F0000F
F0000F
F0000F
F0000F
F0001F
F8001F
F8001F
F8001F
F8001F
78003E
7C003E
7C003E
3E007C
3F00FC
1FC3F8
0FFFF0
07FFE0
03FFC0
007C00
ENDCHAR
STARTCHAR 022B
ENCODING 555
SWIDTH 486 0
DWIDTH 27 0
BBX 24 41 2 -1
BITMAP
03FFC0
03FFC0
03FFC0
000000
000000
010040
0781E0
0FC3E0
0FC3F0
0781E0
0701C0
000000
000000
000000
01FF00
03FFC0
0FFFE0
1FFFF0
1F81F8
3E00FC
7E007C
7C003E
7C003E
78003E
F8001E
F8001E
F8001F
F8001F
F8001F
F8001E
F8003E
7C003E
7C003E
7C007C
3E00FC
3F01F8
1FFFF8
0FFFF0
07FFE0
01FF80
001800
ENDCHAR
STARTCHAR 022C
ENCODING 556
SWIDTH 486 0
DWIDTH 27 0
BBX 24 47 2 -1
BITMAP
03FFC0
03FFC0
03FFC0
000000
000000
01F060
03FCE0
07FFE0
0F1FC0
060700
000000
000000
00FF00
03FFC0
0FFFE0
1FFFF0
1F81F8
3E00FC
3E007C
7C003E
7C003E
78001E
F8001F
F8001F
F8001F
F0001F
F0001F
F0000F
F0000F
F0000F
F0000F
F0000F
F0001F
F8001F
F8001F
F8001F
F8001F
78003E
7C003E
7C003E
3E007C
3F00FC
1FC3F8
0FFFF0
07FFE0
03FFC0
007C00
ENDCHAR
STARTCHAR 022D
ENCODING 557
SWIDTH 486 0
DWIDTH 27 0
BBX 24 41 2 -1
BITMAP
03FFC0
03FFC0
03FFC0
000000
000000
000000
01F070
03FFE0
07FFC0
0F1F80
060200
000000
000000
000000
01FF00
03FFC0
0FFFE0
1FFFF0
1F81F8
3E00FC
7E007C
7C003E
7C003E
78003E
F8001E
F8001E
F8001F
F8001F
F8001F
F8001E
F8003E
7C003E
7C003E
7C007C
3E00FC
3F01F8
1FFFF8
0FFFF0
07FFE0
01FF80
001800
ENDCHAR
STARTCHAR 022E
ENCODING 558
SWIDTH 486 0
DWIDTH 27 0
BBX 24 45 2 0
BITMAP
007C00
007E00
007E00
007E00
007E00
003C00
000000
000000
000000
00FF00
03FFC0
07FFE0
0FFFF0
1F81F8
3E00FC
3E007C
7C003E
7C003E
78003E
F8001E
F8001F
F8001F
F0001F
F0001F
F0001F
F0000F
F0000F
F0000F
F0000F
F0001F
F0001F
F8001F
F8001F
F8001F
F8001E
78003E
7C003E
7C007C
3E007C
3F00F8
1FC3F8
0FFFF0
07FFE0
03FF80
003C00
ENDCHAR
STARTCHAR 022F
ENCODING 559
SWIDTH 486 0
DWIDTH 27 0
BBX 24 38 2 -1
BITMAP
003800
007E00
007E00
007E00
007E00
007E00
003800
000000
000000
000000
000000
01FF00
03FFC0
0FFFE0
1FFFF0
1F81F8
3E00FC
7E007C
7C003E
7C003E
78003E
F8001E
F8001E
F8001F
F8001F
F8001F
F8001E
F8003E
7C003E
7C003E
7C007C
3E00FC
3F01F8
1FFFF8
0FFFF0
07FFE0
01FF80
001800
ENDCHAR
STARTCHAR 0230
ENCODING 560
SWIDTH 486 0
DWIDTH 27 0
BBX 24 47 2 -1
BITMAP
03FFC0
03FFC0
03FFC0
000000
000000
003C00
007E00
007E00
007C00
003C00
000000
000000
00FF00
03FFC0
0FFFE0
1FFFF0
1F81F8
3E00FC
3E007C
7C003E
7C003E
78001E
F8001F
F8001F
F8001F
F0001F
F0001F
F0000F
F0000F
F0000F
F0000F
F0000F
F0001F
F8001F
F8001F
F8001F
F8001F
78003E
7C003E
7C003E
3E007C
3F00FC
1FC3F8
0FFFF0
07FFE0
03FFC0
007C00
ENDCHAR
STARTCHAR 0231
ENCODING 561
SWIDTH 486 0
DWIDTH 27 0
BBX 24 41 2 -1
BITMAP
03FFC0
03FFC0
03FFC0
000000
000000
001800
003C00
007E00
007E00
007C00
003800
000000
000000
000000
01FF00
03FFC0
0FFFE0
1FFFF0
1F81F8
3E00FC
7E007C
7C003E
7C003E
78003E
F8001E
F8001E
F8001F
F8001F
F8001F
F8001E
F8003E
7C003E
7C003E
7C007C
3E00FC
3F01F8
1FFFF8
0FFFF0
07FFE0
01FF80
001800
ENDCHAR
STARTCHAR 0232
ENCODING 562
SWIDTH 486 0
DWIDTH 27 0
BBX 26 43 1 0
BITMAP
03FFF000
03FFF000
03FFF000
03FFF000
00000000
00000000
00000000
00000000
00000000
F80007C0
FC000F80
7C000F80
7C000F00
3E001F00
3E001F00
1F003E00
1F003E00
0F807C00
0F807C00
0780F800
07C0F800
03E1F000
03E1F000
01F3E000
01F3C000
00FFC000
00FF8000
007F8000
003F0000
003F0000
001E0000
001E0000
001E0000
001E0000
001E0000
001E0000
001E0000
001E0000
001E0000
001E0000
001E0000
001E0000
001E0000
ENDCHAR
STARTCHAR 0233
ENCODING 563
SWIDTH 486 0
DWIDTH 27 0
BBX 24 44 2 -9
BITMAP
07FFE0
07FFE0
07FFE0
000000
000000
000000
000000
000000
000000
7C001F
7C003E
7C003E
3E003E
3E003E
3E007C
1E007C
1F007C
1F0078
0F00F8
0F80F8
0F80F0
0780F0
07C1F0
07C1F0
03E1E0
03E3E0
01E3E0
01F3C0
00F3C0
00FF80
007F80
007F80
003F00
003F00
001F00
001E00
003E00
003C00
007C00
00F800
7FF000
FFE000
FFC000
FF8000
ENDCHAR
STARTCHAR 0234
ENCODING 564
SWIDTH 486 0
DWIDTH 27 0
BBX 21 47 3 -9
BITMAP
FFC000
FFC000
FFC000
FFC000
07C000
07C000
07C000
07C000
07C000
07C000
07C000
07C000
07C000
07C000
07C000
07C000
07C000
07C000
07C000
07C000
07C000
07C000
07C000
07C000
07C000
07C000
07C000
07C000
07C000
07C000
07C000
07C000
07C000
07CF80
07FFE0
07FFF0
07FBF0
07E078
03C078
07C078
0FC078
1FC078
1FE078
3DF9F0
78FFF0
70FFE0
203F80
ENDCHAR
STARTCHAR 0235
ENCODING 565
SWIDTH 486 0
DWIDTH 27 0
BBX 26 35 2 -9
BITMAP
3FF00000
FFFC0000
FFFC0000
FFFE0000
F83E0000
F81F0000
F81F0000
F81F0000
F81F0000
F81F0000
F81F0000
F81F0000
F81F0000
F81F0000
F81F0000
F81F0000
F81F0000
F81F0000
F81F0000
F81F0000
F81F0000
F81F7C00
F81FFF00
F81FFF00
F81FFF80
F81F8780
001F03C0
001F03C0
003F03C0
007F03C0
00FF8780
00F7CF80
01E7FF00
01C3FF00
0080FC00
ENDCHAR
STARTCHAR 0236
ENCODING 566
SWIDTH 486 0
DWIDTH 27 0
BBX 21 43 3 -9
BITMAP
006000
03E000
03E000
03E000
03E000
03E000
03E000
03E000
FFFFF8
FFFFF8
FFFFF8
FFFFF8
03E000
03E000
03E000
03E000
03E000
03E000
03E000
03E000
03E000
03E000
03E000
03E000
03E000
03E000
03E000
03E000
03E000
03EF80
03FFE0
03FFF0
03FBF0
03E078
03E078
03E078
07E078
0FE078
1FE078
3DF9F0
7CFFF0
787FE0
303F80
ENDCHAR
STARTCHAR 0237
ENCODING 567
SWIDTH 486 0
DWIDTH 27 0
BBX 17 35 4 -9
BITMAP
3FFF80
3FFF80
3FFF80
3FFF80
000780
000780
000780
000780
000780
000780
000780
000780
000780
000780
000780
000780
000780
000780
000780
000780
000780
000780
000780
000780
000780
000780
000780
000780
000F80
000F80
601F00
7FFF00
FFFE00
FFFC00
3FF800
ENDCHAR
STARTCHAR 0238
ENCODING 568
SWIDTH 486 0
DWIDTH 27 0
BBX 25 39 1 0
BITMAP
001E0000
001E0000
001E0000
001E0000
001E0000
001E0000
001E0000
001E0000
001E0000
001E0000
001E0000
001E0000
07DEF800
1FFFFC00
1FFFFE00
3F7FBF00
3C3F0F00
7C1E0F00
781E0F80
781E0780
781E0780
781E0780
781E0780
781E0780
F81E0780
F81E0780
781E0780
781E0780
781E0780
781E0780
781E0780
7C1E0F80
7C1E0F00
3C1E1F00
3E3F3F00
1FFFFE00
0FFFFC00
07FFF800
00804000
ENDCHAR
STARTCHAR 0239
ENCODING 569
SWIDTH 486 0
DWIDTH 27 0
BBX 25 35 1 -9
BITMAP
07F7F800
0FFFFC00
1FFFFE00
3F3F3E00
3E1E1F00
7C1E0F00
7C1E0F80
781E0F80
781E0780
781E0780
781E0780
781E0780
F81E0780
F81E0780
781E0780
781E0780
781E0780
781E0780
781E0780
781E0F80
7C1E0F00
3C3E0F00
3E7F9F00
3FFFFE00
1FFFFC00
0FDFFC00
031E6000
001E0000
001E0000
001E0000
001E0000
001E0000
001E0000
001E0000
001E0000
ENDCHAR
STARTCHAR 023A
ENCODING 570
SWIDTH 486 0
DWIDTH 27 0
BBX 26 43 1 -4
BITMAP
00001C00
00001C00
00003C00
00003C00
003F3800
007F7800
007FF800
007FF000
00FFF000
00F3F000
00F3F000
01E3E000
01E1E000
01E1E000
03C1F000
03C1F000
03C3F000
0783F800
0783F800
0787F800
0F87F800
0F077C00
0F073C00
1F0F3C00
1E0F3E00
1FFFFE00
1FFFFE00
3FFFFE00
3FFFFF00
3C1C0F00
7C3C0F00
7C3C0F80
783C0F80
78780F80
F8780780
F87807C0
F87007C0
F0F007C0
00F00000
00F00000
01E00000
01E00000
00600000
ENDCHAR
STARTCHAR 023B
ENCODING 571
SWIDTH 486 0
DWIDTH 27 0
BBX 23 43 3 -4
BITMAP
000078
000070
0000F0
003FF0
01FFFC
03FFFE
07FFFE
0FE1FE
1F81C4
3F03C0
3E03C0
7C03C0
7C0380
780780
F80780
F80700
F80F00
F00F00
F00F00
F00E00
F01E00
F01E00
F01C00
F03C00
F03C00
F83C00
F83800
F87800
F87800
7C7800
7EF000
3EF000
3FF000
1FE00C
0FF8FC
07FFFC
03FFFE
01FFF8
03DF80
03C000
03C000
078000
018000
ENDCHAR
STARTCHAR 023C
ENCODING 572
SWIDTH 486 0
DWIDTH 27 0
BBX 23 35 2 -4
BITMAP
000040
000070
000070
000070
0000F0
007FFC
01FFFC
07FFFC
0FFFFC
1FC1C4
3F03C0
3E0380
7C0380
7C0780
780700
F80700
F80F00
F80E00
F80E00
F81E00
F81E00
F81C00
7C3C00
7C3C00
7E3800
3F7800
1FF800
1FFFFE
07FFFE
03FFFE
00FFFC
00E740
01E000
01C000
00C000
ENDCHAR
STARTCHAR 023D
ENCODING 573
SWIDTH 486 0
DWIDTH 27 0
BBX 24 34 2 0
BITMAP
0F8000
0F8000
0F8000
0F8000
0F8000
0F8000
0F8000
0F8000
0F8000
0F8000
0F8000
0F8000
0F8000
0F8000
FFFF00
FFFF00
FFFF00
FFFF00
0F8000
0F8000
0F8000
0F8000
0F8000
0F8000
0F8000
0F8000
0F8000
0F8000
0F8000
0F8000
0FFFFF
0FFFFF
0FFFFF
0FFFFF
ENDCHAR
STARTCHAR 023E
ENCODING 574
SWIDTH 486 0
DWIDTH 27 0
BBX 27 39 1 -1
BITMAP
000001C0
000001E0
000003C0
FFFFFF80
FFFFFF80
FFFFFF00
FFFFFF00
003C1E00
003C3C00
003C7C00
003C7800
003CF000
003CF000
003DE000
003FC000
003FC000
003F8000
003F8000
003F0000
003E0000
003E0000
003C0000
007C0000
007C0000
00FC0000
01FC0000
01FC0000
03FC0000
07FC0000
07BC0000
0F3C0000
0F3C0000
1E3C0000
3C3C0000
3C3C0000
783C0000
F03C0000
70000000
20000000
ENDCHAR
STARTCHAR 023F
ENCODING 575
SWIDTH 486 0
DWIDTH 27 0
BBX 20 35 4 -9
BITMAP
07FFC0
1FFFE0
3FFFC0
7FFFC0
7C0040
F80000
F80000
F80000
F80000
7E0000
7F8000
3FF000
1FFC00
07FF00
00FFC0
001FE0
0007E0
0001F0
0001F0
0001F0
0001F0
7003E0
FFFFE0
FFFFC0
FFFF80
7FF800
3E0000
1F0000
0F8000
07E000
03F800
01FFF0
007FF0
003FF0
000FF0
ENDCHAR
STARTCHAR 0240
ENCODING 576
SWIDTH 486 0
DWIDTH 27 0
BBX 22 35 4 -9
BITMAP
7FFFE0
7FFFE0
7FFFE0
7FFFE0
0007E0
000FC0
001F80
001F00
003E00
007C00
00FC00
00F800
01F000
03E000
07E000
07C000
0F8000
1F8000
1F0000
3E0000
7C0000
7C0000
FC0000
FF0000
FFC000
FFE000
0FF000
03F800
00FC00
007E00
003F00
001FF8
000FF8
0007F8
0001FC
ENDCHAR
STARTCHAR 0241
ENCODING 577
SWIDTH 486 0
DWIDTH 27 0
BBX 21 35 4 0
BITMAP
0FFE00
7FFF80
FFFFC0
FFFFE0
7807F0
4001F0
0000F8
0000F8
0000F8
0000F8
0000F8
0000F8
0001F0
0003F0
000FE0
003FC0
007F80
00FE00
01FC00
03F000
03E000
03E000
07C000
07C000
07C000
07C000
07C000
07C000
07C000
07C000
07C000
07C000
07C000
07C000
07C000
ENDCHAR
STARTCHAR 0242
ENCODING 578
SWIDTH 486 0
DWIDTH 27 0
BBX 19 26 5 0
BITMAP
1FFC00
FFFF00
FFFF80
FFFFC0
7007C0
0003C0
0003E0
0003E0
0003C0
0007C0
000FC0
003F80
007F00
01FE00
03F800
03F000
07C000
07C000
078000
078000
078000
078000
078000
078000
078000
078000
ENDCHAR
STARTCHAR 0243
ENCODING 579
SWIDTH 486 0
DWIDTH 27 0
BBX 24 35 1 0
BITMAP
01F800
1FFFC0
1FFFF0
1FFFF8
1F03F8
1F00FC
1F007C
1F003C
1F003C
1F003C
1F003C
1F003C
1F007C
1F00F8
1F01F0
1FFFE0
1FFFC0
1FFFF0
1FFFF8
1F00FC
1F003E
1F003E
1F001F
1F001F
FFFC1F
FFFC1F
FFFC1F
1F001F
1F001F
1F003E
1F00FE
1FFFFC
1FFFF8
1FFFF0
1FFFC0
ENDCHAR
STARTCHAR 0244
ENCODING 580
SWIDTH 486 0
DWIDTH 27 0
BBX 26 35 1 -1
BITMAP
1F003E00
1F003E00
1F003E00
1F003E00
1F003E00
1F003E00
1F003E00
1F003E00
1F003E00
1F003E00
1F003E00
1F003E00
1F003E00
1F003E00
FFFFFFC0
FFFFFFC0
FFFFFFC0
1F003E00
1F003E00
1F003E00
1F003E00
1F003E00
1F003E00
1F003E00
1F003E00
1F003E00
1F003E00
1F003C00
0F807C00
0F80FC00
07E1F800
07FFF800
03FFF000
01FFC000
003E0000
ENDCHAR
STARTCHAR 0245
ENCODING 581
SWIDTH 486 0
DWIDTH 27 0
BBX 26 34 1 0
BITMAP
003F0000
007F8000
007F8000
007F8000
00FFC000
00F7C000
00F3C000
01E3E000
01E3E000
01E1E000
03C1F000
03C1F000
03C0F000
0780F800
0780F800
07807800
0F807800
0F007C00
0F003C00
1F003C00
1E003E00
1E003E00
1E001E00
3E001E00
3C001F00
3C001F00
7C000F00
7C000F80
78000F80
78000F80
F8000780
F80007C0
F80007C0
F00007C0
ENDCHAR
STARTCHAR 0246
ENCODING 582
SWIDTH 486 0
DWIDTH 27 0
BBX 21 44 5 -6
BITMAP
000060
000078
000078
0000F0
FFFFF0
FFFFF0
FFFFE0
FFFFE0
F801E0
F803C0
F803C0
F803C0
F80780
F80780
F80780
F80F00
F80F00
F80F00
FFFFE0
FFFFE0
FFFFE0
FFFFE0
F83C00
F83C00
F87800
F87800
F87800
F8F000
F8F000
F8F000
F9E000
F9E000
F9E000
FBC000
FFFFF8
FFFFF8
FFFFF8
FFFFF8
078000
0F0000
0F0000
0F0000
1E0000
060000
ENDCHAR
STARTCHAR 0247
ENCODING 583
SWIDTH 486 0
DWIDTH 27 0
BBX 23 34 2 -3
BITMAP
0001C0
0001C0
0003C0
0003C0
00FF80
03FFE0
0FFFF0
1FE7F8
1F07FC
3E0F7C
7C0E3E
7C0E3E
781E3E
F81C1E
F81C1E
FFFFFE
FFFFFE
FFFFFE
F87800
F87000
F87000
78F000
7CF000
7CE000
3FE000
3FE000
1FF1F8
0FFFF8
07FFF8
03FFF8
038F00
078000
070000
030000
ENDCHAR
STARTCHAR 0248
ENCODING 584
SWIDTH 486 0
DWIDTH 27 0
BBX 24 35 3 -1
BITMAP
0FFFF0
0FFFF0
0FFFF0
0FFFF0
0001F0
0001F0
0001F0
0001F0
0001F0
0001F0
0001F0
0001F0
0001F0
0001F0
00FFFF
00FFFF
00FFFF
00FFFF
0001F0
0001F0
0001F0
0001F0
0001F0
0001F0
0001F0
0001F0
0001F0
0003E0
0003E0
7007E0
7C3FC0
FFFF80
7FFF00
1FFE00
03F000
ENDCHAR
STARTCHAR 0249
ENCODING 585
SWIDTH 486 0
DWIDTH 27 0
BBX 22 46 4 -9
BITMAP
001E00
003F00
003F80
003F80
003F80
003F00
001E00
000000
000000
000000
000000
3FFF80
3FFF80
3FFF80
3FFF80
000780
000780
000780
000780
000780
000780
000780
3FFFFC
3FFFFC
3FFFFC
000780
000780
000780
000780
000780
000780
000780
000780
000780
000780
000780
000780
000780
000780
000F80
000F80
601F00
7FFF00
FFFE00
FFFC00
3FF800
ENDCHAR
STARTCHAR 024A
ENCODING 586
SWIDTH 486 0
DWIDTH 27 0
BBX 26 44 2 -9
BITMAP
01FE0000
07FF0000
0FFFC000
1FFFE000
1F07E000
3E01F000
3C01F000
7C00F800
7800F800
78007800
F8007C00
F8007C00
F8007C00
F0007C00
F0007C00
F0003C00
F0003C00
F0003C00
F0003C00
F0003C00
F0003C00
F0007C00
F0007C00
F8007C00
F8007C00
F8007C00
78007C00
7C00FC00
7C00FC00
3E01FC00
3E03FC00
1F87FC00
0FFFBC00
07FFBC00
03FE3C00
00783C00
00003C00
00003C00
00003C00
00003E00
00003FC0
00001FC0
00001FC0
00000FC0
ENDCHAR
STARTCHAR 024B
ENCODING 587
SWIDTH 486 0
DWIDTH 27 0
BBX 26 35 2 -9
BITMAP
01FFE000
03FFF800
0FFFF800
1FFFF800
1F80F800
3F00F800
7E00F800
7C00F800
7C00F800
7800F800
F800F800
F800F800
F800F800
F800F800
F800F800
F800F800
F800F800
7800F800
7C00F800
7C00F800
3E00F800
3F01F800
1FFFF800
0FFFF800
07FFF800
03FEF800
0030F800
0000F800
0000F800
0000F800
00007C00
00007F80
00007F80
00003FC0
00001FC0
ENDCHAR
STARTCHAR 024C
ENCODING 588
SWIDTH 486 0
DWIDTH 27 0
BBX 25 35 1 0
BITMAP
01FC0000
0FFFC000
0FFFF000
0FFFF800
0F03FC00
0F00FC00
0F007E00
0F003E00
0F003E00
0F001E00
0F001E00
0F001E00
0F001E00
0F003E00
0F003E00
0F007E00
0F00FC00
0F0FF800
FFFFF000
FFFFE000
FFFF8000
0F07C000
0F03E000
0F03E000
0F01F000
0F01F000
0F00F800
0F007800
0F007C00
0F007E00
0F003E00
0F003F00
0F001F00
0F001F00
0F000F80
ENDCHAR
STARTCHAR 024D
ENCODING 589
SWIDTH 486 0
DWIDTH 27 0
BBX 22 26 2 0
BITMAP
01FFFC
0FFFFC
1FFFF8
1FFFF8
1F8000
1F0000
1F0000
1F0000
1F0000
1F0000
1F0000
1F0000
FFFF80
FFFF80
FFFF80
FFFF80
1F0000
1F0000
1F0000
1F0000
1F0000
1F0000
1F0000
1F0000
1F0000
1F0000
ENDCHAR
STARTCHAR 024E
ENCODING 590
SWIDTH 486 0
DWIDTH 27 0
BBX 25 34 1 0
BITMAP
FC000F80
7C000F80
7C001F00
3E001F00
3E001F00
1F003E00
1F003E00
FFFFFF80
FFFFFF80
FFFFFF80
FFFFFF80
07C0F800
03C1F000
03E1F000
01F3E000
01F3C000
00FFC000
00FF8000
007F8000
003F0000
003F0000
001E0000
001E0000
001E0000
001E0000
001E0000
001E0000
001E0000
001E0000
001E0000
001E0000
001E0000
001E0000
001E0000
ENDCHAR
STARTCHAR 024F
ENCODING 591
SWIDTH 486 0
DWIDTH 27 0
BBX 25 35 2 -9
BITMAP
7C001F00
7C001F00
3E001E00
3E003E00
3E003E00
1E003E00
1F003C00
1F007C00
0F007C00
0F807800
7FFFFF80
7FFFFF80
7FFFFF80
7FFFFF80
03C0F000
03E1F000
01E1E000
01F1E000
01F3E000
00FBC000
00FBC000
007F8000
007F8000
003F8000
003F0000
001F0000
001E0000
001E0000
003C0000
007C0000
00F80000
7FF80000
7FF00000
7FE00000
FF800000
ENDCHAR
STARTCHAR 0292
ENCODING 658
SWIDTH 486 0
DWIDTH 27 0
BBX 22 35 2 -9
BITMAP
3FFFF8
3FFFF8
3FFFF8
3FFFF0
0001F0
0003E0
0007C0
0007C0
000F80
001F00
003E00
007E00
007C00
00F800
01F000
01FE00
01FFC0
01FFE0
000FF0
0003F8
0000F8
00007C
00007C
00007C
00007C
00007C
00007C
00007C
0000F8
0001F8
7007F0
7FFFF0
7FFFC0
FFFF80
1FFC00
ENDCHAR
STARTCHAR 02BC
ENCODING 700
SWIDTH 486 0
DWIDTH 27 0
BBX 6 11 11 28
BITMAP
3C
3C
3C
3C
3C
7C
78
78
F0
F0
20
ENDCHAR
STARTCHAR 02C6
ENCODING 710
SWIDTH 486 0
DWIDTH 27 0
BBX 12 9 8 29
BITMAP
0600
0E00
1F00
3F80
7FC0
79E0
F0F0
E070
4020
ENDCHAR
STARTCHAR 02C7
ENCODING 711
SWIDTH 486 0
DWIDTH 27 0
BBX 13 9 7 29
BITMAP
6010
F038
7878
3DF0
1FE0
0FC0
0780
0300
0200
ENDCHAR
STARTCHAR 02C9
ENCODING 713
SWIDTH 486 0
DWIDTH 27 0
BBX 14 3 7 32
BITMAP
FFFC
FFFC
FFFC
ENDCHAR
STARTCHAR 02D8
ENCODING 728
SWIDTH 486 0
DWIDTH 27 0
BBX 14 7 7 30
BITMAP
E03C
F038
7078
7FF8
3FF0
1FE0
0300
ENDCHAR
STARTCHAR 02D9
ENCODING 729
SWIDTH 486 0
DWIDTH 27 0
BBX 6 7 11 30
BITMAP
70
FC
FC
FC
FC
FC
70
ENDCHAR
STARTCHAR 02DA
ENCODING 730
SWIDTH 486 0
DWIDTH 27 0
BBX 10 11 9 28
BITMAP
0C00
3F00
7F80
E1C0
C1C0
C1C0
C1C0
E1C0
7F80
3F00
0800
ENDCHAR
STARTCHAR 02DB
ENCODING 731
SWIDTH 486 0
DWIDTH 27 0
BBX 9 9 9 -9
BITMAP
1F80
3E00
3C00
7800
7800
F800
7F80
7F80
3F80
ENDCHAR
STARTCHAR 02DC
ENCODING 732
SWIDTH 486 0
DWIDTH 27 0
BBX 15 5 6 31
BITMAP
1E06
3FDE
7FFE
F3FC
60F8
ENDCHAR
STARTCHAR 02DD
ENCODING 733
SWIDTH 486 0
DWIDTH 27 0
BBX 16 9 6 30
BITMAP
0404
0E0E
1F1F
3E1E
3C3C
7878
F0F8
E0F0
6060
ENDCHAR
STARTCHAR 0311
ENCODING 785
SWIDTH 486 0
DWIDTH 27 0
BBX 14 7 7 30
BITMAP
0FC0
3FE0
7FF0
7878
F038
F038
E03C
ENDCHAR
STARTCHAR 0384
ENCODING 900
SWIDTH 486 0
DWIDTH 27 0
BBX 9 10 9 28
BITMAP
0400
0700
0F80
1F80
1F00
3E00
7C00
7800
F000
7000
ENDCHAR
STARTCHAR 0385
ENCODING 901
SWIDTH 486 0
DWIDTH 27 0
BBX 19 9 4 30
BITMAP
007000
007800
F0F9C0
F8F3E0
F9E3E0
F9E3E0
F3C1C0
038000
018000
ENDCHAR
STARTCHAR 0386
ENCODING 902
SWIDTH 486 0
DWIDTH 27 0
BBX 26 35 1 0
BITMAP
38000000
3C3F0000
7C7F8000
7C7F8000
787F8000
78FFC000
F0F3C000
F0F3C000
F1E3E000
E1E1E000
01E1E000
03C1F000
03C0F000
03C0F000
0780F800
0780F800
07807800
0F807800
0F007C00
0F003C00
1F003C00
1E003E00
1FFFFE00
1FFFFE00
3FFFFE00
3FFFFF00
3C000F00
7C000F00
7C000F80
78000F80
78000F80
F8000780
F80007C0
F80007C0
F00007C0
ENDCHAR
STARTCHAR 0388
ENCODING 904
SWIDTH 486 0
DWIDTH 27 0
BBX 30 35 -4 0
BITMAP
38000000
3E7FFFF0
3C7FFFF0
3C7FFFF0
7C7FFFF0
787C0000
787C0000
787C0000
707C0000
F07C0000
107C0000
007C0000
007C0000
007C0000
007C0000
007FFFE0
007FFFE0
007FFFE0
007FFFE0
007C0000
007C0000
007C0000
007C0000
007C0000
007C0000
007C0000
007C0000
007C0000
007C0000
007C0000
007C0000
007FFFFC
007FFFFC
007FFFFC
007FFFFC
ENDCHAR
STARTCHAR 0389
ENCODING 905
SWIDTH 486 0
DWIDTH 27 0
BBX 32 35 -7 0
BITMAP
38000000
3E7C000F
3E7C000F
3C7C000F
3C7C000F
7C7C000F
787C000F
787C000F
707C000F
F07C000F
107C000F
007C000F
007C000F
007C000F
007C000F
007FFFFF
007FFFFF
007FFFFF
007FFFFF
007C000F
007C000F
007C000F
007C000F
007C000F
007C000F
007C000F
007C000F
007C000F
007C000F
007C000F
007C000F
007C000F
007C000F
007C000F
007C000F
ENDCHAR
STARTCHAR 038A
ENCODING 906
SWIDTH 486 0
DWIDTH 27 0
BBX 27 35 -4 0
BITMAP
38000000
3C7FFFE0
3C7FFFE0
7C7FFFE0
787FFFE0
7800F000
7800F000
F000F000
F000F000
F000F000
0000F000
0000F000
0000F000
0000F000
0000F000
0000F000
0000F000
0000F000
0000F000
0000F000
0000F000
0000F000
0000F000
0000F000
0000F000
0000F000
0000F000
0000F000
0000F000
0000F000
0000F000
007FFFE0
007FFFE0
007FFFE0
007FFFE0
ENDCHAR
STARTCHAR 038C
ENCODING 908
SWIDTH 486 0
DWIDTH 27 0
BBX 30 36 -4 -1
BITMAP
3803FC00
3E0FFF00
3C1FFF80
7C3FFFC0
7C7E07E0
78F803F0
78F801F0
71F000F8
F1F000F8
F1E000F8
03E00078
03E0007C
03E0007C
03C0007C
03C0007C
03C0007C
03C0003C
03C0003C
03C0003C
03C0003C
03C0007C
03C0007C
03E0007C
03E0007C
03E0007C
03E00078
01E000F8
01F000F8
01F001F0
00F801F0
00FC03E0
007F0FE0
003FFFC0
001FFF80
000FFE00
0000F000
ENDCHAR
STARTCHAR 038E
ENCODING 910
SWIDTH 486 0
DWIDTH 27 0
BBX 34 35 -7 0
BITMAP
3800000000
3CF80007C0
7CFC000F80
7C7C000F80
787C000F00
783E001F00
783E001F00
F01F003E00
F01F003E00
F00F807C00
000F807C00
000780F800
0007C0F800
0003E1F000
0003E1F000
0001F3E000
0001F3C000
0000FFC000
0000FF8000
00007F8000
00003F0000
00003F0000
00001E0000
00001E0000
00001E0000
00001E0000
00001E0000
00001E0000
00001E0000
00001E0000
00001E0000
00001E0000
00001E0000
00001E0000
00001E0000
ENDCHAR
STARTCHAR 038F
ENCODING 911
SWIDTH 486 0
DWIDTH 27 0
BBX 31 35 -4 0
BITMAP
3803FC00
3C0FFF00
3C1FFF80
7C3FFFC0
787E07E0
78FC03F0
78F801F0
F1F000F8
F1F000F8
F1E00078
03E0007C
03E0007C
03E0007C
03E0007C
03C0007C
03C0007C
03C0007C
03E0007C
03E0007C
03E0007C
03E0007C
01E00078
01E000F8
01F000F8
01F000F0
00F000F0
00F801F0
007801E0
007C03E0
003C07C0
001E0780
07FF0FFE
07FF0FFE
07FF0FFE
07FF0FFE
ENDCHAR
STARTCHAR 0390
ENCODING 912
SWIDTH 486 0
DWIDTH 27 0
BBX 23 40 2 -1
BITMAP
002000
003000
007C00
7879E0
F8F9F0
FCF3F0
F9E1F0
79E1E0
03C000
018000
000000
000000
000000
7FF800
7FF800
7FF800
7FF800
00F800
00F800
00F800
00F800
00F800
00F800
00F800
00F800
00F800
00F800
00F800
00F800
00F800
00F800
00F800
007800
007C00
007C00
007FFE
003FFE
003FFE
001FFC
0001E0
ENDCHAR
STARTCHAR 0391
ENCODING 913
SWIDTH 486 0
DWIDTH 27 0
BBX 26 34 1 0
BITMAP
003F0000
007F8000
007F8000
007F8000
00FFC000
00F3C000
00F3C000
01E3E000
01E1E000
01E1E000
03C1F000
03C0F000
03C0F000
0780F800
0780F800
07807800
0F807800
0F007C00
0F003C00
1F003C00
1E003E00
1FFFFE00
1FFFFE00
3FFFFE00
3FFFFF00
3C000F00
7C000F00
7C000F80
78000F80
78000F80
F8000780
F80007C0
F80007C0
F00007C0
ENDCHAR
STARTCHAR 0392
ENCODING 914
SWIDTH 486 0
DWIDTH 27 0
BBX 22 35 3 0
BITMAP
0FE000
FFFF00
FFFF80
FFFFC0
F80FE0
F803F0
F801F0
F801F0
F800F0
F800F0
F800F0
F800F0
F801F0
F803E0
F807C0
FFFF80
FFFF00
FFFFC0
FFFFE0
F803F0
F800F8
F80078
F8007C
F8007C
F8007C
F8007C
F8007C
F8007C
F800FC
F800F8
F803F8
FFFFF0
FFFFE0
FFFF80
FFFE00
ENDCHAR
STARTCHAR 0393
ENCODING 915
SWIDTH 486 0
DWIDTH 27 0
BBX 23 34 3 0
BITMAP
07FFFE
07FFFE
07FFFE
07FFFE
07C000
07C000
07C000
07C000
07C000
07C000
07C000
07C000
07C000
07C000
07C000
07C000
07C000
07C000
07C000
07C000
07C000
07C000
07C000
07C000
07C000
07C000
07C000
07C000
07C000
07C000
FFFF80
FFFF80
FFFF80
FFFF80
ENDCHAR
STARTCHAR 0394
ENCODING 916
SWIDTH 486 0
DWIDTH 27 0
BBX 26 34 1 0
BITMAP
003F0000
003F0000
007F8000
007F8000
00FF8000
00F3C000
00F3C000
01F3C000
01E1E000
01E1E000
03E1E000
03C0F000
03C0F000
07C0F000
0780F800
07807800
0F807800
0F007C00
0F003C00
0F003C00
1F003E00
1E003E00
1E001E00
3E001E00
3C001F00
3C001F00
7C000F00
7C000F80
78000F80
78000F80
FFFFFF80
FFFFFFC0
FFFFFFC0
FFFFFFC0
ENDCHAR
STARTCHAR 0395
ENCODING 917
SWIDTH 486 0
DWIDTH 27 0
BBX 21 34 5 0
BITMAP
FFFFE0
FFFFE0
FFFFE0
FFFFE0
F80000
F80000
F80000
F80000
F80000
F80000
F80000
F80000
F80000
F80000
FFFFC0
FFFFC0
FFFFC0
FFFFC0
F80000
F80000
F80000
F80000
F80000
F80000
F80000
F80000
F80000
F80000
F80000
F80000
FFFFF8
FFFFF8
FFFFF8
FFFFF8
ENDCHAR
STARTCHAR 0396
ENCODING 918
SWIDTH 486 0
DWIDTH 27 0
BBX 22 34 3 0
BITMAP
7FFFFC
7FFFFC
7FFFFC
7FFFFC
0000F8
0001F0
0001F0
0003E0
0007C0
0007C0
000F80
001F00
001F00
003E00
007C00
007C00
00F800
01F800
01F000
03E000
03E000
07C000
0FC000
0F8000
1F0000
1F0000
3E0000
3E0000
7C0000
FC0000
FFFFFC
FFFFFC
FFFFFC
FFFFFC
ENDCHAR
STARTCHAR 0397
ENCODING 919
SWIDTH 486 0
DWIDTH 27 0
BBX 23 34 2 0
BITMAP
F8001E
F8001E
F8001E
F8001E
F8001E
F8001E
F8001E
F8001E
F8001E
F8001E
F8001E
F8001E
F8001E
F8001E
FFFFFE
FFFFFE
FFFFFE
FFFFFE
F8001E
F8001E
F8001E
F8001E
F8001E
F8001E
F8001E
F8001E
F8001E
F8001E
F8001E
F8001E
F8001E
F8001E
F8001E
F8001E
ENDCHAR
STARTCHAR 0398
ENCODING 920
SWIDTH 486 0
DWIDTH 27 0
BBX 24 36 2 -1
BITMAP
00FF00
03FFC0
07FFE0
0FFFF0
1F81F8
3E00FC
3E007C
7C003E
7C003E
78003E
F8001E
F8001F
F8001F
F0001F
F0001F
F0001F
F0FF0F
F0FF0F
F0FF0F
F0FF0F
F0001F
F0001F
F8001F
F8001F
F8001F
F8001E
78003E
7C003E
7C007C
3E007C
3F00F8
1FC3F8
0FFFF0
07FFE0
03FF80
003C00
ENDCHAR
STARTCHAR 0399
ENCODING 921
SWIDTH 486 0
DWIDTH 27 0
BBX 18 34 5 0
BITMAP
FFFFC0
FFFFC0
FFFFC0
FFFFC0
01E000
01E000
01E000
01E000
01E000
01E000
01E000
01E000
01E000
01E000
01E000
01E000
01E000
01E000
01E000
01E000
01E000
01E000
01E000
01E000
01E000
01E000
01E000
01E000
01E000
01E000
FFFFC0
FFFFC0
FFFFC0
FFFFC0
ENDCHAR
STARTCHAR 039A
ENCODING 922
SWIDTH 486 0
DWIDTH 27 0
BBX 22 34 4 0
BITMAP
F001F0
F003E0
F003E0
F007C0
F00FC0
F00F80
F01F00
F03E00
F07E00
F07C00
F0F800
F1F000
F3F000
F7E000
FFC000
FF8000
FF8000
FFC000
F7E000
F1F000
F0F800
F0FC00
F07E00
F03F00
F01F00
F00F80
F00FC0
F007C0
F003E0
F003F0
F001F0
F001F8
F000F8
F000FC
ENDCHAR
STARTCHAR 039B
ENCODING 923
SWIDTH 486 0
DWIDTH 27 0
BBX 26 34 1 0
BITMAP
003F0000
007F8000
007F8000
007F8000
00FFC000
00F7C000
00F3C000
01E3E000
01E3E000
01E1E000
03C1F000
03C1F000
03C0F000
0780F800
0780F800
07807800
0F807800
0F007C00
0F003C00
1F003C00
1E003E00
1E003E00
1E001E00
3E001E00
3C001F00
3C001F00
7C000F00
7C000F80
78000F80
78000F80
F8000780
F80007C0
F80007C0
F00007C0
ENDCHAR
STARTCHAR 039C
ENCODING 924
SWIDTH 486 0
DWIDTH 27 0
BBX 24 34 2 0
BITMAP
3E007C
3E00FC
7F00FC
7F00FC
7F01FC
7F81FC
7F81DE
7B81DE
7B83DE
7BC39E
79C39E
79C79E
79E79E
79E71E
78E71E
78FF1E
78FE1E
787E1E
F87E1E
F87E1E
F87C1E
F8001E
F8001E
F0001F
F0001F
F0001F
F0001F
F0001F
F0001F
F0001F
F0001F
F0001F
F0000F
F0000F
ENDCHAR
STARTCHAR 039D
ENCODING 925
SWIDTH 486 0
DWIDTH 27 0
BBX 22 34 3 0
BITMAP
F8003C
FC003C
FC003C
FE003C
FE003C
FF003C
FF003C
F7803C
F7C03C
F3C03C
F3E03C
F1E03C
F1F03C
F0F03C
F0F03C
F0783C
F0783C
F03C3C
F03C3C
F01E3C
F01E3C
F00F3C
F00F3C
F00FBC
F007BC
F007BC
F003FC
F003FC
F001FC
F001FC
F000FC
F000FC
F0007C
F0007C
ENDCHAR
STARTCHAR 039E
ENCODING 926
SWIDTH 486 0
DWIDTH 27 0
BBX 24 34 2 0
BITMAP
7FFFFE
7FFFFE
7FFFFE
7FFFFE
000000
000000
000000
000000
000000
000000
000000
000000
000000
000000
1FFFF8
1FFFF8
1FFFF8
1FFFF8
000000
000000
000000
000000
000000
000000
000000
000000
000000
000000
000000
000000
FFFFFF
FFFFFF
FFFFFF
FFFFFF
ENDCHAR
STARTCHAR 039F
ENCODING 927
SWIDTH 486 0
DWIDTH 27 0
BBX 24 36 2 -1
BITMAP
00FF00
03FFC0
07FFE0
0FFFF0
1F81F8
3E00FC
3E007C
7C003E
7C003E
78003E
F8001E
F8001F
F8001F
F0001F
F0001F
F0001F
F0000F
F0000F
F0000F
F0000F
F0001F
F0001F
F8001F
F8001F
F8001F
F8001E
78003E
7C003E
7C007C
3E007C
3F00F8
1FC3F8
0FFFF0
07FFE0
03FF80
003C00
ENDCHAR
STARTCHAR 03A0
ENCODING 928
SWIDTH 486 0
DWIDTH 27 0
BBX 23 34 2 0
BITMAP
FFFFFE
FFFFFE
FFFFFE
FFFFFE
F8001E
F8001E
F8001E
F8001E
F8001E
F8001E
F8001E
F8001E
F8001E
F8001E
F8001E
F8001E
F8001E
F8001E
F8001E
F8001E
F8001E
F8001E
F8001E
F8001E
F8001E
F8001E
F8001E
F8001E
F8001E
F8001E
F8001E
F8001E
F8001E
F8001E
ENDCHAR
STARTCHAR 03A1
ENCODING 929
SWIDTH 486 0
DWIDTH 27 0
BBX 21 35 4 0
BITMAP
0FF000
FFFF00
FFFF80
FFFFE0
F80FE0
F803F0
F801F8
F800F8
F800F8
F800F8
F80078
F80078
F80078
F800F8
F800F8
F800F8
F801F0
F807F0
FFFFE0
FFFFC0
FFFF80
FFFC00
F80000
F80000
F80000
F80000
F80000
F80000
F80000
F80000
F80000
F80000
F80000
F80000
F80000
ENDCHAR
STARTCHAR 03A3
ENCODING 931
SWIDTH 486 0
DWIDTH 27 0
BBX 23 34 2 0
BITMAP
7FFFFE
7FFFFE
7FFFFE
7FFFFE
3E0000
1F0000
0F8000
0F8000
07C000
03E000
01F000
01F000
00F800
007C00
003E00
003F00
001F00
003E00
007C00
00F800
00F800
01F000
03E000
07C000
0F8000
0F8000
1F0000
3E0000
7C0000
7C0000
FFFFFE
FFFFFE
FFFFFE
FFFFFE
ENDCHAR
ENDFONT
